<svg width="144" height="103" viewBox="0 0 144 103" fill="none" xmlns="http://www.w3.org/2000/svg">
<g clip-path="url(#clip0_344_27963)">
<path d="M19.5563 102.641C19.5546 102.646 19.5546 102.653 19.5529 102.658H8.41275C8.20304 102.526 7.99678 102.389 7.79395 102.251C6.54144 101.406 5.38473 100.428 4.34414 99.3349C3.15126 98.0695 2.16574 96.6253 1.42374 95.055C-0.0459126 91.9336 -0.49798 88.3828 0.639925 85.1742L0.640043 85.1735L0.640416 85.1729L0.64098 85.1726L0.641643 85.1724C0.669145 85.092 0.700086 85.0099 0.731026 84.9277C0.777436 85.0082 0.822127 85.0869 0.870256 85.1656L0.871974 85.1673C1.51067 86.2372 2.23495 87.2542 3.03778 88.2082V88.2099C3.09967 88.2835 3.16154 88.3571 3.22514 88.429L3.22526 88.4296L3.22563 88.4302L3.22619 88.4306L3.22686 88.4307C5.17625 90.6996 7.53143 92.5888 10.1729 94.0026C10.1815 94.0077 10.1884 94.0111 10.197 94.0163C10.2058 94.0215 10.215 94.0261 10.2245 94.0299C10.2262 94.0317 10.2279 94.0317 10.2296 94.0334C10.8158 94.3482 11.4174 94.6357 12.0293 94.8958V94.8976C12.5106 95.1046 13.0005 95.2929 13.4938 95.4674C14.5458 95.8353 15.6802 96.1707 16.6875 96.655C17.6673 97.1256 18.5301 97.7365 19.0922 98.6555C19.1352 98.7308 19.1782 98.8044 19.2177 98.8797L18.8894 101.142L19.5443 101.139L19.4824 102.251L19.4652 102.573L19.5563 102.641Z" fill="#F0F0F0"/>
<path d="M16.8058 102.658H16.5703C16.548 102.521 16.5256 102.386 16.4998 102.251C16.4331 101.881 16.3424 101.516 16.2283 101.157C16.1767 100.996 16.1182 100.839 16.0512 100.683C15.6713 99.7969 15.0182 99.0183 14.0521 98.7582C13.7709 98.6839 13.4818 98.6431 13.191 98.6366C12.6151 98.6127 12.0307 98.6863 11.4583 98.7171C11.3174 98.7239 11.1747 98.7291 11.0372 98.7274H11.0338C10.2894 98.7396 9.55111 98.5913 8.86969 98.2927C8.02814 97.8916 7.26188 97.3498 6.60418 96.6909C6.17383 96.2807 5.76478 95.8489 5.37861 95.3972V95.3955C5.32705 95.339 5.2772 95.2809 5.22736 95.221C4.31729 94.1321 3.52186 92.9532 2.85357 91.7026C2.51286 91.0705 2.20702 90.4204 1.93741 89.7552C1.93383 89.7493 1.93095 89.743 1.92881 89.7364C1.3256 88.2696 0.893063 86.7389 0.639642 85.1741L0.639763 85.1735L0.640133 85.1729L0.640697 85.1726L0.641363 85.1724C0.62762 85.1023 0.617305 85.0304 0.606983 84.9602C0.584637 84.8148 0.81669 84.8079 0.837316 84.9534C0.84763 85.0253 0.857941 85.0937 0.869973 85.1656L0.871694 85.1673C1.1156 86.6656 1.52488 88.1324 2.0921 89.5413V89.543C2.12133 89.6149 2.15055 89.685 2.17977 89.7552C2.98661 91.7036 4.09115 93.5161 5.45426 95.1286L5.45598 95.132C5.46973 95.1491 5.4852 95.1645 5.50067 95.1816C5.50132 95.1823 5.50181 95.1831 5.50211 95.184C5.50241 95.1849 5.5025 95.1858 5.50239 95.1868C5.5041 95.185 5.5041 95.1868 5.5041 95.1868C5.8221 95.5615 6.15556 95.9209 6.50278 96.27C7.14481 96.9453 7.88961 97.5159 8.70983 97.9607C9.39474 98.31 10.1525 98.494 10.922 98.498C10.9994 98.498 11.0767 98.4998 11.1541 98.498C11.216 98.498 11.2779 98.4963 11.3397 98.4929C11.9224 98.4655 12.5137 98.3919 13.0999 98.4022C13.3664 98.4074 13.6321 98.4348 13.894 98.4844C14.3242 98.5762 14.7301 98.7575 15.085 99.0164C15.4399 99.2754 15.7358 99.6061 15.9532 99.9868C16.1719 100.355 16.3461 100.747 16.4723 101.156C16.5153 101.289 16.5514 101.424 16.5875 101.561V101.563C16.6425 101.782 16.6906 102.004 16.7319 102.229C16.7339 102.236 16.735 102.243 16.7353 102.251C16.7611 102.386 16.7834 102.523 16.8058 102.658Z" fill="white"/>
<path d="M5.46754 95.3324C4.87836 95.7693 4.15238 95.9834 3.41925 95.9366C2.68612 95.8897 1.99359 95.585 1.46533 95.0767C1.3588 94.9735 1.51489 94.8038 1.62156 94.9072C2.1126 95.3814 2.75772 95.6652 3.4405 95.7074C4.12327 95.7497 4.79872 95.5475 5.34494 95.1375C5.46374 95.0485 5.58567 95.244 5.46754 95.3324Z" fill="white"/>
<path d="M10.9135 98.5689C11.1441 97.0915 10.807 95.5819 9.96933 94.341C9.88624 94.2182 10.0822 94.0962 10.1652 94.219C11.0344 95.5119 11.3821 97.0836 11.1386 98.6204C11.1153 98.7669 10.8903 98.7145 10.9135 98.5689Z" fill="white"/>
<path d="M2.03056 89.5741C2.29391 89.4523 2.52276 89.2674 2.69657 89.0358C2.87038 88.8043 2.9837 88.5334 3.02635 88.2474C3.04778 88.1008 3.27279 88.1532 3.2515 88.299C3.2029 88.6147 3.07739 88.9137 2.88593 89.17C2.69446 89.4262 2.44288 89.6319 2.15316 89.769C2.12694 89.7842 2.09589 89.7889 2.06631 89.7821C2.03674 89.7754 2.01087 89.7576 1.99395 89.7326C1.97785 89.7067 1.97266 89.6755 1.97952 89.6458C1.98637 89.6161 2.00471 89.5903 2.03056 89.5741Z" fill="white"/>
<path d="M21.2384 95.13L21.1439 95.9977L19.6398 95.9754L19.4129 97.5395L19.3734 97.8082V97.8099L19.2187 98.8794L18.8904 101.142L19.5453 101.138L19.4834 102.251L19.4662 102.572L19.5573 102.641L19.578 102.658L19.5848 102.663C19.5659 102.701 19.5453 102.738 19.5247 102.778C19.5367 102.737 19.5453 102.699 19.5539 102.658H15.2017C15.1209 102.523 15.0418 102.388 14.9645 102.251C14.2928 101.087 13.7008 99.8794 13.1923 98.6364C13.1613 98.5594 13.1287 98.4824 13.1012 98.4037V98.402C12.6491 97.2647 12.2909 96.0926 12.0303 94.8973V94.8956C11.8891 94.241 11.7818 93.5796 11.7089 92.914C11.5225 91.1937 11.609 89.4549 11.965 87.7613C11.9679 87.7529 11.9702 87.7444 11.9719 87.7357C12.6577 84.5031 14.3302 81.5152 16.979 79.6226C17.089 79.5404 17.2024 79.4634 17.3176 79.3881C17.3193 79.3864 17.3193 79.3864 17.3211 79.3864C17.3213 79.3864 17.3215 79.3864 17.3217 79.3863C17.3219 79.3862 17.3221 79.3861 17.3223 79.3859C17.3224 79.3858 17.3226 79.3856 17.3227 79.3854C17.3227 79.3852 17.3228 79.3849 17.3228 79.3847C17.395 79.3385 17.4654 79.2923 17.5376 79.2461C17.5273 79.3385 17.5153 79.4309 17.5067 79.5233C17.3678 80.7595 17.331 82.0049 17.3967 83.247V83.2504C17.3984 83.3463 17.4036 83.4421 17.4104 83.5396V83.5431C17.5978 86.5276 18.3385 89.4518 19.5951 92.1678C19.5973 92.175 19.6002 92.1819 19.6037 92.1884C19.6072 92.1969 19.6106 92.2038 19.6141 92.2123C20.0841 93.2226 20.627 94.1977 21.2384 95.13Z" fill="#F0F0F0"/>
<path d="M17.608 79.3305C17.5736 79.3937 17.5378 79.4589 17.5053 79.5235C17.2486 80.0067 17.0123 80.5003 16.7964 81.0043C16.4106 81.8944 16.0897 82.811 15.8362 83.747C15.8156 83.82 15.7954 83.8947 15.7768 83.969C15.241 86.0112 15.0267 88.1237 15.1415 90.2313C15.1416 90.2521 15.1431 90.271 15.1449 90.2915C15.1722 90.7834 15.2196 91.2736 15.2871 91.7622C15.3909 92.6861 15.6402 93.588 16.0257 94.4348C16.0796 94.5454 16.1367 94.6537 16.1966 94.7581C16.3456 95.0134 16.5185 95.2542 16.7131 95.4771C16.8534 95.6401 17.0046 95.7935 17.1656 95.9362C17.2627 96.0238 17.3629 96.1091 17.4675 96.1902C17.528 96.2371 17.5901 96.2838 17.6522 96.3305C17.7035 96.3651 17.7535 96.4017 17.8048 96.4363C18.3384 96.8 18.914 97.1234 19.4115 97.5401L19.3724 97.809C18.8876 97.3745 18.3024 97.0458 17.7642 96.6864C17.427 96.4642 17.1112 96.2113 16.8211 95.9309C16.783 95.8923 16.7433 95.8539 16.7066 95.8133C16.5102 95.6119 16.3329 95.3929 16.1769 95.1591C16.0974 95.0424 16.0225 94.9215 15.9518 94.7947C15.5245 93.9701 15.241 93.0792 15.1133 92.16C15.0177 91.5736 14.9518 90.9827 14.9159 90.3897C14.9096 90.3127 14.9053 90.237 14.9023 90.1594C14.835 88.7448 14.9129 87.327 15.1348 85.9281C15.4149 84.1537 15.9226 82.4224 16.6455 80.7766C16.852 80.3055 17.0771 79.8416 17.3209 79.3849C17.352 79.3223 17.385 79.2611 17.4195 79.1979C17.4894 79.0678 17.678 79.2005 17.608 79.3305Z" fill="white"/>
<path d="M15.0268 90.3922C14.2922 90.3878 13.5831 90.1236 13.026 89.6468C12.469 89.17 12.1004 88.5115 11.986 87.7891C11.9633 87.6428 12.1905 87.6009 12.2132 87.7474C12.3185 88.4203 12.662 89.0336 13.1816 89.4766C13.7012 89.9196 14.3628 90.163 15.0468 90.163C15.1955 90.1632 15.1747 90.3924 15.0268 90.3922Z" fill="white"/>
<path d="M17.4158 96.2403C18.4934 95.199 19.1371 93.7916 19.2187 92.2987C19.2267 92.1508 19.4568 92.1709 19.4489 92.3186C19.3611 93.872 18.6881 95.3352 17.5644 96.4164C17.4572 96.5194 17.3092 96.3427 17.4158 96.2403Z" fill="white"/>
<path d="M15.7659 83.7344C16.0498 83.795 16.3444 83.7845 16.6232 83.7038C16.902 83.6231 17.1563 83.4748 17.3633 83.272C17.4691 83.1678 17.617 83.3445 17.5119 83.4481C17.2821 83.6711 17.0011 83.8346 16.6932 83.9244C16.3854 84.0143 16.0601 84.0277 15.7459 83.9635C15.7158 83.96 15.6881 83.9451 15.6686 83.922C15.6491 83.8988 15.6391 83.8692 15.6408 83.839C15.6436 83.8087 15.6583 83.7807 15.6817 83.7611C15.7052 83.7415 15.7354 83.7319 15.7659 83.7344Z" fill="white"/>
<path d="M51.3301 102.795C51.3302 102.822 51.3249 102.849 51.3147 102.873C51.3044 102.898 51.2894 102.921 51.2703 102.94C51.2513 102.959 51.2288 102.974 51.2039 102.984C51.179 102.994 51.1524 102.999 51.1255 102.999H2.94674C2.91987 102.999 2.89327 102.994 2.86846 102.984C2.84364 102.973 2.82109 102.958 2.8021 102.939C2.7831 102.921 2.76804 102.898 2.75776 102.873C2.74748 102.849 2.74219 102.822 2.74219 102.795C2.74219 102.769 2.74748 102.742 2.75776 102.718C2.76804 102.693 2.7831 102.67 2.8021 102.651C2.82109 102.633 2.84364 102.618 2.86846 102.607C2.89327 102.597 2.91987 102.592 2.94674 102.592H51.1255C51.1524 102.592 51.179 102.597 51.2039 102.607C51.2288 102.617 51.2513 102.632 51.2703 102.651C51.2893 102.67 51.3044 102.693 51.3147 102.717C51.3249 102.742 51.3302 102.769 51.3301 102.795Z" fill="#797979"/>
<path d="M134.709 18.9817H103.56C103.427 18.9819 103.294 18.9559 103.171 18.9051C103.048 18.8544 102.935 18.7799 102.841 18.686C102.747 18.592 102.672 18.4805 102.62 18.3577C102.569 18.2349 102.543 18.1033 102.543 17.9704C102.543 17.8374 102.569 17.7058 102.62 17.583C102.672 17.4602 102.747 17.3487 102.841 17.2547C102.935 17.1608 103.048 17.0863 103.171 17.0356C103.294 16.9848 103.427 16.9588 103.56 16.959H134.709C134.843 16.9588 134.975 16.9848 135.098 17.0356C135.222 17.0863 135.334 17.1608 135.428 17.2547C135.523 17.3487 135.598 17.4602 135.649 17.583C135.7 17.7058 135.726 17.8374 135.726 17.9704C135.726 18.1033 135.7 18.2349 135.649 18.3577C135.598 18.4805 135.523 18.592 135.428 18.686C135.334 18.7799 135.222 18.8544 135.098 18.9051C134.975 18.9559 134.843 18.9819 134.709 18.9817Z" fill="#019ACB"/>
<path d="M134.711 22.9779H103.561C103.292 22.9776 103.034 22.8709 102.844 22.6812C102.654 22.4916 102.547 22.2345 102.547 21.9665C102.547 21.6985 102.654 21.4414 102.844 21.2518C103.034 21.0621 103.292 20.9554 103.561 20.9551H134.711C134.98 20.9554 135.238 21.0621 135.428 21.2518C135.618 21.4414 135.725 21.6985 135.725 21.9665C135.725 22.2345 135.618 22.4916 135.428 22.6812C135.238 22.8709 134.98 22.9776 134.711 22.9779Z" fill="#019ACB"/>
<path d="M117.064 26.974H103.561C103.292 26.9737 103.034 26.8669 102.844 26.6773C102.654 26.4877 102.547 26.2306 102.547 25.9626C102.547 25.6946 102.654 25.4375 102.844 25.2479C103.034 25.0582 103.292 24.9515 103.561 24.9512H117.064C117.197 24.951 117.33 24.977 117.453 25.0278C117.576 25.0785 117.689 25.153 117.783 25.2469C117.878 25.3409 117.953 25.4524 118.004 25.5752C118.055 25.698 118.081 25.8297 118.081 25.9626C118.081 26.0955 118.055 26.2271 118.004 26.3499C117.953 26.4727 117.878 26.5843 117.783 26.6782C117.689 26.7722 117.576 26.8466 117.453 26.8974C117.33 26.9481 117.197 26.9742 117.064 26.974Z" fill="#019ACB"/>
<path d="M134.712 41.7083H103.563C103.293 41.7083 103.035 41.6017 102.844 41.4121C102.654 41.2224 102.547 40.9651 102.547 40.6969C102.547 40.4287 102.654 40.1714 102.844 39.9818C103.035 39.7921 103.293 39.6855 103.563 39.6855H134.712C134.981 39.6855 135.24 39.7921 135.43 39.9818C135.621 40.1714 135.728 40.4287 135.728 40.6969C135.728 40.9651 135.621 41.2224 135.43 41.4121C135.24 41.6017 134.981 41.7083 134.712 41.7083Z" fill="#B1B1B1"/>
<path d="M134.712 45.7045H103.563C103.293 45.7045 103.035 45.5979 102.844 45.4082C102.654 45.2186 102.547 44.9613 102.547 44.6931C102.547 44.4248 102.654 44.1676 102.844 43.9779C103.035 43.7882 103.293 43.6816 103.563 43.6816H134.712C134.981 43.6816 135.24 43.7882 135.43 43.9779C135.621 44.1676 135.728 44.4248 135.728 44.6931C135.728 44.9613 135.621 45.2186 135.43 45.4082C135.24 45.5979 134.981 45.7045 134.712 45.7045Z" fill="#B1B1B1"/>
<path d="M117.065 49.7025H103.563C103.293 49.7025 103.035 49.596 102.844 49.4063C102.654 49.2166 102.547 48.9593 102.547 48.6911C102.547 48.4229 102.654 48.1656 102.844 47.9759C103.035 47.7862 103.293 47.6797 103.563 47.6797H117.065C117.199 47.6795 117.331 47.7055 117.454 47.7563C117.578 47.8071 117.69 47.8815 117.784 47.9755C117.879 48.0694 117.954 48.181 118.005 48.3038C118.056 48.4265 118.082 48.5582 118.082 48.6911C118.082 48.824 118.056 48.9557 118.005 49.0785C117.954 49.2013 117.879 49.3128 117.784 49.4068C117.69 49.5007 117.578 49.5752 117.454 49.6259C117.331 49.6767 117.199 49.7027 117.065 49.7025Z" fill="#B1B1B1"/>
<path d="M134.712 65.6868H103.563C103.429 65.6868 103.297 65.6606 103.174 65.6098C103.051 65.559 102.939 65.4845 102.844 65.3906C102.75 65.2967 102.675 65.1852 102.624 65.0625C102.573 64.9398 102.547 64.8082 102.547 64.6754C102.547 64.5426 102.573 64.4111 102.624 64.2884C102.675 64.1657 102.75 64.0542 102.844 63.9603C102.939 63.8664 103.051 63.7919 103.174 63.7411C103.297 63.6902 103.429 63.6641 103.563 63.6641H134.712C134.845 63.6641 134.977 63.6902 135.101 63.7411C135.224 63.7919 135.336 63.8664 135.43 63.9603C135.525 64.0542 135.599 64.1657 135.65 64.2884C135.701 64.4111 135.728 64.5426 135.728 64.6754C135.728 64.8082 135.701 64.9398 135.65 65.0625C135.599 65.1852 135.525 65.2967 135.43 65.3906C135.336 65.4845 135.224 65.559 135.101 65.6098C134.977 65.6606 134.845 65.6868 134.712 65.6868Z" fill="#B1B1B1"/>
<path d="M134.711 69.683H103.561C103.292 69.6826 103.034 69.5759 102.844 69.3863C102.654 69.1967 102.547 68.9396 102.547 68.6716C102.547 68.4036 102.654 68.1465 102.844 67.9569C103.034 67.7672 103.292 67.6605 103.561 67.6602H134.711C134.98 67.6605 135.238 67.7672 135.428 67.9569C135.618 68.1465 135.725 68.4036 135.725 68.6716C135.725 68.9396 135.618 69.1967 135.428 69.3863C135.238 69.5759 134.98 69.6826 134.711 69.683Z" fill="#B1B1B1"/>
<path d="M117.065 73.6791H103.563C103.293 73.6791 103.035 73.5725 102.844 73.3829C102.654 73.1932 102.547 72.9359 102.547 72.6677C102.547 72.3994 102.654 72.1422 102.844 71.9525C103.035 71.7628 103.293 71.6563 103.563 71.6563H117.065C117.199 71.6561 117.331 71.6821 117.454 71.7329C117.578 71.7836 117.69 71.8581 117.784 71.952C117.879 72.046 117.954 72.1575 118.005 72.2803C118.056 72.4031 118.082 72.5347 118.082 72.6677C118.082 72.8006 118.056 72.9322 118.005 73.055C117.954 73.1778 117.879 73.2894 117.784 73.3833C117.69 73.4773 117.578 73.5517 117.454 73.6025C117.331 73.6532 117.199 73.6793 117.065 73.6791Z" fill="#B1B1B1"/>
<path d="M91.1363 52.7054H72.3839C71.8813 52.7048 71.3995 52.5058 71.0441 52.152C70.6887 51.7982 70.4888 51.3185 70.4883 50.8182V38.5708C70.4888 38.0704 70.6887 37.5908 71.0441 37.237C71.3995 36.8832 71.8813 36.6842 72.3839 36.6836H91.1363C91.6389 36.6842 92.1207 36.8832 92.476 37.237C92.8314 37.5908 93.0313 38.0704 93.0319 38.5708V50.8182C93.0313 51.3185 92.8314 51.7982 92.476 52.152C92.1207 52.5058 91.6389 52.7048 91.1363 52.7054Z" fill="#B1B1B1"/>
<path d="M89.8152 38.2129H73.6992C73.2416 38.2133 72.8028 38.3944 72.4791 38.7165C72.1555 39.0386 71.9733 39.4753 71.9727 39.9309V49.4555C71.9733 49.9111 72.1554 50.3479 72.479 50.6702C72.8027 50.9924 73.2415 51.1737 73.6992 51.1743H83.9758C85.9816 51.1723 87.9046 50.3782 89.3229 48.9662C90.7412 47.5542 91.5389 45.6397 91.5409 43.6428V39.9309C91.5404 39.4754 91.3584 39.0387 91.0349 38.7166C90.7114 38.3945 90.2728 38.2134 89.8152 38.2129Z" fill="white"/>
<path d="M85.2612 41.4328L85.213 41.5192C85.6417 40.4674 85.2519 39.1712 84.4871 38.3781C83.7224 37.5849 82.6592 37.2223 81.6123 37.0785C80.8351 36.9717 80.0285 36.9748 79.2895 37.2582C78.2194 37.6686 77.4018 38.6186 76.7192 39.607C76.407 40.059 76.1 40.5744 76.1311 41.1394C76.16 41.6637 76.4726 42.1087 76.7286 42.5535C76.9846 42.9984 77.1984 43.5503 77.0147 44.0358C76.9052 44.3252 76.6738 44.5335 76.486 44.7702C76.2982 45.0069 76.1438 45.3268 76.2345 45.6238C76.2747 45.7374 76.3439 45.8387 76.4353 45.9177C76.5266 45.9967 76.637 46.0508 76.7556 46.0747C76.9854 46.1129 77.2203 46.1073 77.448 46.0584L83.4152 45.1608C83.8207 45.0998 84.2054 44.9421 84.5364 44.7011C84.8674 44.4601 85.135 44.143 85.3163 43.7768C85.4976 43.4107 85.5873 43.0062 85.5777 42.5981C85.5681 42.1899 85.4595 41.7901 85.2612 41.4328Z" fill="#2F2E41"/>
<path d="M80.8237 45.1196C82.435 45.1196 83.7412 43.8192 83.7412 42.2151C83.7412 40.611 82.435 39.3105 80.8237 39.3105C79.2125 39.3105 77.9062 40.611 77.9062 42.2151C77.9062 43.8192 79.2125 45.1196 80.8237 45.1196Z" fill="#FFB9B9"/>
<path d="M88.4381 49.7233C87.145 50.6681 85.5824 51.1766 83.9785 51.1747H75.0259C75.0078 51.1602 74.9907 51.1457 74.9727 51.1303L75.8076 48.8109C75.9963 48.3989 76.294 48.0459 76.6689 47.7896C77.0438 47.5333 77.4817 47.3834 77.9357 47.356L78.4669 47.3236L79.7334 46.236C79.7334 46.236 83.1461 46.1147 83.0955 46.0566L85.1627 47.2945L85.1609 47.286L85.9736 47.3355C86.4276 47.3628 86.8655 47.5126 87.2404 47.7689C87.6154 48.0252 87.9131 48.3784 88.1017 48.7904L88.4381 49.7233Z" fill="#019ACB"/>
<path d="M83.5916 39.5204C83.5163 39.1238 83.11 38.9423 82.7619 38.8544C81.752 38.5979 80.7015 38.5405 79.6696 38.6854C78.9173 38.7922 78.1471 39.0277 77.6013 39.6123C77.1611 40.1045 76.9117 40.7369 76.8979 41.3958C76.8756 41.7898 76.9641 42.1821 77.1532 42.5289C77.2379 42.6903 77.3632 42.827 77.5169 42.9257C77.6706 43.0243 77.8475 43.0815 78.0301 43.0915L78.0651 43.2127C79.5299 43.0095 80.8906 42.1022 81.7475 40.7571C81.5867 41.3289 81.2666 41.8436 80.8243 42.2419C81.8132 41.848 82.6729 41.1884 83.3074 40.3367C83.4807 40.1077 83.6489 39.8222 83.5916 39.5204Z" fill="#2F2E41"/>
<path d="M91.1363 29.9769H72.3839C71.8813 29.9763 71.3995 29.7773 71.0441 29.4235C70.6887 29.0697 70.4888 28.59 70.4883 28.0897V15.8422C70.4888 15.3419 70.6887 14.8622 71.0441 14.5084C71.3995 14.1547 71.8813 13.9556 72.3839 13.9551H91.1363C91.6389 13.9556 92.1207 14.1547 92.476 14.5084C92.8314 14.8622 93.0313 15.3419 93.0319 15.8422V28.0897C93.0313 28.59 92.8314 29.0697 92.476 29.4235C92.1207 29.7773 91.6389 29.9763 91.1363 29.9769Z" fill="#797979"/>
<path d="M89.8152 15.4863H73.6992C73.2416 15.4869 72.8029 15.668 72.4792 15.9901C72.1556 16.3121 71.9734 16.7488 71.9727 17.2043V26.7289C71.9733 27.1846 72.1554 27.6214 72.479 27.9436C72.8027 28.2658 73.2415 28.4471 73.6992 28.4477H83.9758C85.9817 28.4461 87.905 27.6521 89.3233 26.24C90.7417 24.8279 91.5393 22.9132 91.5409 20.9162V17.2043C91.5404 16.7488 91.3584 16.3121 91.0349 15.99C90.7114 15.668 90.2728 15.4868 89.8152 15.4863Z" fill="white"/>
<path d="M77.886 17.3341C78.6451 17.3341 79.2604 16.7215 79.2604 15.9659C79.2604 15.2102 78.6451 14.5977 77.886 14.5977C77.127 14.5977 76.5117 15.2102 76.5117 15.9659C76.5117 16.7215 77.127 17.3341 77.886 17.3341Z" fill="#2F2E41"/>
<path d="M80.0832 22.532C82.006 22.532 83.5648 20.9801 83.5648 19.0658C83.5648 17.1515 82.006 15.5996 80.0832 15.5996C78.1603 15.5996 76.6016 17.1515 76.6016 19.0658C76.6016 20.9801 78.1603 22.532 80.0832 22.532Z" fill="#2F2E41"/>
<path d="M80.3722 22.5318C81.9347 22.5318 83.2014 21.2707 83.2014 19.7151C83.2014 18.1595 81.9347 16.8984 80.3722 16.8984C78.8097 16.8984 77.543 18.1595 77.543 19.7151C77.543 21.2707 78.8097 22.5318 80.3722 22.5318Z" fill="#9E616A"/>
<path d="M82.2949 16.8446C81.7991 16.5437 81.2313 16.3809 80.6507 16.3733C80.0701 16.3657 79.4981 16.5135 78.9946 16.8013C78.491 17.0891 78.0744 17.5063 77.7882 18.0092C77.502 18.5122 77.3568 19.0824 77.3678 19.6604C78.8094 20.0207 80.3239 20.2965 81.8613 19.7466L82.2244 18.862L82.4384 19.7472C82.9066 19.9378 83.376 20.099 83.8454 19.7454C83.8646 19.1691 83.7315 18.5979 83.4594 18.0888C83.1873 17.5798 82.7857 17.1507 82.2949 16.8446Z" fill="#2F2E41"/>
<path d="M76.604 12.25C76.1215 12.045 75.591 11.9785 75.0725 12.058C74.554 12.1375 74.0682 12.3599 73.67 12.7C73.2806 13.0498 72.9842 13.4901 72.8071 13.9816C72.6301 14.4731 72.5779 15.0006 72.6553 15.517C72.8111 16.5675 73.4525 17.472 74.0438 18.3557C74.635 19.2395 75.2127 20.2078 75.212 21.2696C75.2115 22.0344 74.9064 22.7678 74.3636 23.3089C73.8208 23.8501 73.0846 24.1548 72.3164 24.1563C73.218 24.5427 74.159 24.9367 75.1395 24.8909C76.12 24.8451 77.1477 24.2176 77.3077 23.2534C77.4229 22.5587 77.0806 21.8812 76.795 21.237C76.3299 20.1873 75.9937 19.0856 75.7938 17.9558C75.6984 17.4165 75.6363 16.8496 75.8129 16.331C75.9535 15.9467 76.2145 15.6176 76.5572 15.3922C76.9 15.1668 77.3065 15.057 77.7167 15.079L78.0407 14.7888C78.0961 14.2695 77.9876 13.7458 77.7301 13.2907C77.4726 12.8357 77.079 12.4719 76.604 12.25Z" fill="#2F2E41"/>
<path d="M87.8541 27.3789C86.6829 28.0794 85.3418 28.4487 83.9755 28.4467H74.2772L74.2617 28.4339L75.0966 26.1136C75.2854 25.7018 75.5832 25.3488 75.9581 25.0927C76.333 24.8365 76.7709 24.6868 77.2248 24.6596L77.7559 24.6272L79.0225 23.5396C79.0225 23.5396 82.4352 23.4175 82.3845 23.3594L84.4517 24.5973L84.45 24.5896L85.2626 24.6391C85.7166 24.666 86.1546 24.8156 86.5296 25.0718C86.9045 25.328 87.2023 25.6811 87.3907 26.0931L87.8541 27.3789Z" fill="#019ACB"/>
<path d="M91.1363 76.6819H72.3839C71.8813 76.6814 71.3995 76.4824 71.0441 76.1286C70.6887 75.7748 70.4888 75.2951 70.4883 74.7948V62.5473C70.4888 62.047 70.6887 61.5673 71.0441 61.2135C71.3995 60.8597 71.8813 60.6607 72.3839 60.6602H91.1363C91.6389 60.6607 92.1207 60.8597 92.476 61.2135C92.8314 61.5673 93.0313 62.047 93.0319 62.5473V74.7948C93.0313 75.2951 92.8314 75.7748 92.476 76.1286C92.1207 76.4824 91.6389 76.6814 91.1363 76.6819Z" fill="#B1B1B1"/>
<path d="M89.8152 62.1914H73.6992C73.2416 62.1919 72.8028 62.373 72.4791 62.695C72.1555 63.0171 71.9733 63.4538 71.9727 63.9094V73.434C71.9733 73.8896 72.1554 74.3265 72.479 74.6487C72.8027 74.9709 73.2415 75.1522 73.6992 75.1528H83.9758C85.9816 75.1508 87.9046 74.3567 89.3229 72.9447C90.7412 71.5327 91.5389 69.6182 91.5409 67.6213V63.9094C91.5404 63.4539 91.3584 63.0172 91.0349 62.6951C90.7114 62.373 90.2728 62.1919 89.8152 62.1914Z" fill="white"/>
<path d="M81.745 68.2505C83.8889 68.2505 85.6268 66.5203 85.6268 64.386C85.6268 62.2517 83.8889 60.5215 81.745 60.5215C79.6012 60.5215 77.8633 62.2517 77.8633 64.386C77.8633 66.5203 79.6012 68.2505 81.745 68.2505Z" fill="#2F2E41"/>
<path d="M81.7451 68.7582C83.6602 68.7582 85.2128 67.2125 85.2128 65.3059C85.2128 63.3992 83.6602 61.8535 81.7451 61.8535C79.8299 61.8535 78.2773 63.3992 78.2773 65.3059C78.2773 67.2125 79.8299 68.7582 81.7451 68.7582Z" fill="#FFB8B8"/>
<path d="M88.6811 73.5141C87.345 74.5759 85.6857 75.1535 83.9761 75.1518H75.3281L76.1485 72.8734C76.3372 72.4614 76.6349 72.1084 77.0098 71.8521C77.3847 71.5958 77.8226 71.4459 78.2766 71.4185L78.8078 71.3861L80.0743 70.2985C80.0743 70.2985 83.487 70.1772 83.4364 70.1191L85.5035 71.357L85.5018 71.3485L86.3145 71.398C86.7684 71.4253 87.2064 71.5751 87.5813 71.8314C87.9562 72.0877 88.254 72.4409 88.4426 72.8529L88.6811 73.5141Z" fill="#019ACB"/>
<path d="M85.4033 64.0954C85.4276 63.8376 85.4388 63.5788 85.4367 63.3199C85.4509 62.8079 85.3566 62.2987 85.1601 61.8253C84.9185 61.3012 84.4876 60.8868 83.9531 60.6644C83.4233 60.4517 82.8313 60.4522 82.3019 60.6659C81.8362 60.3468 81.2964 60.1511 80.7336 60.0974C80.4517 60.0749 80.1684 60.1206 79.9081 60.2306C79.6477 60.3406 79.4179 60.5116 79.2383 60.7291C79.1614 60.8492 79.0739 60.9622 78.9771 61.067C78.7 61.3224 78.279 61.2856 77.9108 61.2334C78.0759 61.3743 78.2411 61.5152 78.4064 61.6562C78.2065 61.7082 78.0065 61.7602 77.8066 61.8122C78.0399 61.953 78.2732 62.0939 78.5065 62.2348C77.8291 62.6396 77.5213 63.523 77.6026 64.3253C77.6795 65.0849 78.0479 65.7795 78.4883 66.3969C78.6639 66.0279 78.6261 65.5863 78.6232 65.1706C78.6216 65.0358 78.6298 64.901 78.6479 64.7674C80.1361 65.1226 81.6911 65.3505 83.268 64.7864L83.5844 64.0154C83.6288 64.0199 83.6733 64.0242 83.7177 64.0289L83.901 64.7871C84.3167 64.9563 84.7332 65.1041 85.1499 64.9488C85.1702 65.0659 85.1824 65.1854 85.1918 65.3003C85.2275 65.1629 85.2585 65.0245 85.2865 64.8855C85.3416 64.8561 85.3943 64.8225 85.4443 64.7851C85.4544 64.5544 85.4406 64.3233 85.4033 64.0954Z" fill="#2F2E41"/>
<path d="M143.545 3.55515H62.664C62.5439 3.55502 62.4287 3.50746 62.3438 3.4229C62.2588 3.33834 62.2111 3.2237 62.2109 3.10412V0.451032C62.2111 0.331451 62.2588 0.216805 62.3438 0.132249C62.4287 0.0476922 62.5439 0.000130905 62.664 0H143.545C143.665 0.000130453 143.78 0.0476921 143.865 0.132249C143.95 0.216805 143.998 0.331451 143.998 0.451032V3.10412C143.998 3.2237 143.95 3.33834 143.865 3.4229C143.78 3.50746 143.665 3.55502 143.545 3.55515Z" fill="#E4E4E4"/>
<path d="M64.8424 2.28852C65.1977 2.28852 65.4856 2.00182 65.4856 1.64816C65.4856 1.29451 65.1977 1.00781 64.8424 1.00781C64.4872 1.00781 64.1992 1.29451 64.1992 1.64816C64.1992 2.00182 64.4872 2.28852 64.8424 2.28852Z" fill="white"/>
<path d="M67.2838 2.28852C67.6391 2.28852 67.927 2.00182 67.927 1.64816C67.927 1.29451 67.6391 1.00781 67.2838 1.00781C66.9286 1.00781 66.6406 1.29451 66.6406 1.64816C66.6406 2.00182 66.9286 2.28852 67.2838 2.28852Z" fill="white"/>
<path d="M69.7252 2.28852C70.0805 2.28852 70.3684 2.00182 70.3684 1.64816C70.3684 1.29451 70.0805 1.00781 69.7252 1.00781C69.37 1.00781 69.082 1.29451 69.082 1.64816C69.082 2.00182 69.37 2.28852 69.7252 2.28852Z" fill="white"/>
<path d="M141.156 1.20762H138.345C138.29 1.20762 138.237 1.18577 138.198 1.14689C138.159 1.10801 138.137 1.05528 138.137 1.00029C138.137 0.945308 138.159 0.892573 138.198 0.853692C138.237 0.814811 138.29 0.792969 138.345 0.792969H141.156C141.212 0.792969 141.265 0.814811 141.304 0.853692C141.343 0.892573 141.365 0.945308 141.365 1.00029C141.365 1.05528 141.343 1.10801 141.304 1.14689C141.265 1.18577 141.212 1.20762 141.156 1.20762Z" fill="white"/>
<path d="M141.156 1.98496H138.345C138.318 1.98496 138.291 1.9796 138.265 1.96918C138.24 1.95876 138.217 1.94349 138.198 1.92424C138.178 1.90499 138.163 1.88213 138.153 1.85698C138.142 1.83182 138.137 1.80486 138.137 1.77764C138.137 1.75041 138.142 1.72345 138.153 1.6983C138.163 1.67314 138.178 1.65029 138.198 1.63104C138.217 1.61178 138.24 1.59651 138.265 1.58609C138.291 1.57568 138.318 1.57031 138.345 1.57031H141.156C141.184 1.57031 141.211 1.57568 141.236 1.58609C141.261 1.59651 141.284 1.61178 141.304 1.63104C141.323 1.65029 141.338 1.67314 141.349 1.6983C141.359 1.72345 141.365 1.75041 141.365 1.77764C141.365 1.80486 141.359 1.83182 141.349 1.85698C141.338 1.88213 141.323 1.90499 141.304 1.92424C141.284 1.94349 141.261 1.95876 141.236 1.96918C141.211 1.9796 141.184 1.98496 141.156 1.98496Z" fill="white"/>
<path d="M141.156 2.76231H138.345C138.29 2.76231 138.237 2.74046 138.198 2.70158C138.159 2.6627 138.137 2.60997 138.137 2.55498C138.137 2.5 138.159 2.44726 138.198 2.40838C138.237 2.3695 138.29 2.34766 138.345 2.34766H141.156C141.212 2.34766 141.265 2.3695 141.304 2.40838C141.343 2.44726 141.365 2.5 141.365 2.55498C141.365 2.60997 141.343 2.6627 141.304 2.70158C141.265 2.74046 141.212 2.76231 141.156 2.76231Z" fill="white"/>
<path d="M127.034 27.2497C127.677 27.2497 128.198 26.7312 128.198 26.0917C128.198 25.4521 127.677 24.9336 127.034 24.9336C126.392 24.9336 125.871 25.4521 125.871 26.0917C125.871 26.7312 126.392 27.2497 127.034 27.2497Z" fill="#019ACB"/>
<path d="M130.812 27.2497C131.454 27.2497 131.975 26.7312 131.975 26.0917C131.975 25.4521 131.454 24.9336 130.812 24.9336C130.169 24.9336 129.648 25.4521 129.648 26.0917C129.648 26.7312 130.169 27.2497 130.812 27.2497Z" fill="#019ACB"/>
<path d="M134.589 27.2497C135.231 27.2497 135.752 26.7312 135.752 26.0917C135.752 25.4521 135.231 24.9336 134.589 24.9336C133.947 24.9336 133.426 25.4521 133.426 26.0917C133.426 26.7312 133.947 27.2497 134.589 27.2497Z" fill="#019ACB"/>
<path d="M127.034 49.8142C127.677 49.8142 128.198 49.2957 128.198 48.6561C128.198 48.0165 127.677 47.498 127.034 47.498C126.392 47.498 125.871 48.0165 125.871 48.6561C125.871 49.2957 126.392 49.8142 127.034 49.8142Z" fill="#B1B1B1"/>
<path d="M130.812 49.8142C131.454 49.8142 131.975 49.2957 131.975 48.6561C131.975 48.0165 131.454 47.498 130.812 47.498C130.169 47.498 129.648 48.0165 129.648 48.6561C129.648 49.2957 130.169 49.8142 130.812 49.8142Z" fill="#B1B1B1"/>
<path d="M134.589 49.8142C135.231 49.8142 135.752 49.2957 135.752 48.6561C135.752 48.0165 135.231 47.498 134.589 47.498C133.947 47.498 133.426 48.0165 133.426 48.6561C133.426 49.2957 133.947 49.8142 134.589 49.8142Z" fill="#B1B1B1"/>
<path d="M127.034 73.8337C127.677 73.8337 128.198 73.3152 128.198 72.6756C128.198 72.0361 127.677 71.5176 127.034 71.5176C126.392 71.5176 125.871 72.0361 125.871 72.6756C125.871 73.3152 126.392 73.8337 127.034 73.8337Z" fill="#B1B1B1"/>
<path d="M130.812 73.8337C131.454 73.8337 131.975 73.3152 131.975 72.6756C131.975 72.0361 131.454 71.5176 130.812 71.5176C130.169 71.5176 129.648 72.0361 129.648 72.6756C129.648 73.3152 130.169 73.8337 130.812 73.8337Z" fill="#B1B1B1"/>
<path d="M134.589 73.8337C135.231 73.8337 135.752 73.3152 135.752 72.6756C135.752 72.0361 135.231 71.5176 134.589 71.5176C133.947 71.5176 133.426 72.0361 133.426 72.6756C133.426 73.3152 133.947 73.8337 134.589 73.8337Z" fill="#B1B1B1"/>
<path d="M93.9263 27.0892L87.9305 23.3098C87.816 23.2376 87.6841 23.1975 87.5487 23.1937C87.4132 23.1898 87.2792 23.2224 87.1608 23.288C87.0424 23.3536 86.9439 23.4498 86.8757 23.5664C86.8076 23.683 86.7722 23.8157 86.7735 23.9506L86.8324 30.4673C86.834 30.6405 86.8957 30.8078 87.0071 30.9409C87.1184 31.074 87.2726 31.1646 87.4435 31.1974C87.6143 31.2302 87.7913 31.2032 87.9444 31.1209C88.0975 31.0386 88.2172 30.9061 88.2834 30.7459L89.0635 28.8567L91.2386 33.1259C91.3419 33.3279 91.5216 33.4808 91.738 33.5511C91.9545 33.6214 92.1902 33.6033 92.3933 33.5007C92.5963 33.3982 92.7502 33.2196 92.8212 33.0042C92.8921 32.7888 92.8743 32.5541 92.7716 32.3518L90.547 27.9855L93.398 28.4633C93.5696 28.4921 93.746 28.4608 93.8971 28.3748C94.0483 28.2888 94.1649 28.1534 94.2271 27.9916C94.2893 27.8297 94.2934 27.6514 94.2386 27.4869C94.1837 27.3224 94.0734 27.1819 93.9263 27.0892Z" fill="#3F3D56"/>
<path d="M18.0105 67.6648C18.1561 67.5071 18.2653 67.3194 18.3302 67.1151C18.3951 66.9107 18.4143 66.6947 18.3863 66.4822C18.3583 66.2697 18.2838 66.066 18.1682 65.8852C18.0525 65.7045 17.8984 65.5512 17.7168 65.4361L18.9236 60.3672L16.3696 61.2961L15.6152 65.9673C15.4413 66.2838 15.39 66.6529 15.4712 67.0045C15.5523 67.3562 15.7602 67.666 16.0555 67.8752C16.3507 68.0845 16.7128 68.1786 17.0731 68.1399C17.4334 68.1011 17.767 67.9321 18.0105 67.6648Z" fill="#FFB8B8"/>
<path d="M24.1526 46.4241L23.1276 49.0481C23.1276 49.0481 23.5669 51.6721 22.8348 52.2552C22.1027 52.8383 22.3955 52.8383 22.3955 53.2757C22.3703 53.5894 22.279 53.8943 22.1277 54.1705C21.9763 54.4468 21.7682 54.6883 21.5169 54.8792C20.9312 55.3165 18.2955 64.209 18.2955 64.209H15.6598C15.745 63.5314 15.745 62.8458 15.6598 62.1681C15.5134 61.1477 16.0991 58.5237 16.392 58.0863C16.6848 57.649 16.392 57.0659 16.392 56.1912C16.392 55.3165 16.9777 54.8792 16.9777 53.4214C16.9777 51.9637 18.7348 40.593 18.5884 39.281C18.442 37.969 20.0527 36.8027 20.0527 36.8027H21.5169L24.1526 46.4241Z" fill="#B1B1B1"/>
<path d="M18.8049 99.5922H20.702L21.6049 92.3066H18.8047L18.8049 99.5922Z" fill="#FFB6B6"/>
<path d="M18.183 98.2993L21.2141 98.1191V99.412L24.0958 101.393C24.2381 101.491 24.3453 101.632 24.4017 101.795C24.4582 101.957 24.4608 102.134 24.4093 102.298C24.3579 102.463 24.2549 102.606 24.1156 102.709C23.9763 102.811 23.8078 102.866 23.6349 102.866H20.0262L19.4042 101.587L19.1614 102.866H17.8008L18.183 98.2993Z" fill="#2F2E41"/>
<path d="M29.4611 99.5922H31.3582L32.2612 92.3066H29.4609L29.4611 99.5922Z" fill="#FFB6B6"/>
<path d="M28.8392 98.2993L31.8703 98.1191V99.412L34.752 101.393C34.8944 101.491 35.0016 101.632 35.058 101.795C35.1144 101.957 35.1171 102.134 35.0656 102.298C35.0141 102.463 34.9112 102.606 34.7719 102.709C34.6325 102.811 34.4641 102.866 34.2911 102.866H30.6825L30.0605 101.587L29.8176 102.866H28.457L28.8392 98.2993Z" fill="#2F2E41"/>
<path d="M17.9858 93.3103H18.0064L19.0588 81.4643C18.8227 81.0109 18.7029 80.5063 18.71 79.9956C18.7171 79.4849 18.851 78.9839 19.0997 78.5372L19.1519 78.443L19.0165 77.8179C18.8425 77.0148 18.9223 76.1778 19.245 75.4217L18.8978 64.3716C17.6817 56.5253 23.4773 51.4082 23.4773 51.4082H32.1591L34.023 57.7837C34.7228 64.5716 36.9113 71.7111 36.6214 78.2916C36.4009 83.2974 33.9211 87.7901 33.0763 92.6651L33.1296 92.6919C33.3215 92.7579 33.4038 93.0226 33.3135 93.2832C33.2232 93.5438 32.9943 93.7016 32.8024 93.6356L28.2174 93.4768C28.0254 93.4109 27.9431 93.1462 28.0335 92.8856C28.1238 92.625 28.3527 92.4672 28.5446 92.5331L28.8563 92.6901L31.1136 80.7459L31.1874 78.6579L31.0354 76.2892L27.4105 66.1482L24.7503 79.2501L22.033 93.4421C22.108 93.5097 22.1606 93.5983 22.1839 93.6962C22.2072 93.7941 22.2002 93.8968 22.1636 93.9907C22.1271 94.0845 22.0629 94.1652 21.9794 94.2219C21.8959 94.2787 21.7971 94.3089 21.696 94.3086H17.9858C17.9199 94.3086 17.8547 94.2957 17.7939 94.2706C17.7331 94.2455 17.6778 94.2088 17.6312 94.1624C17.5847 94.116 17.5477 94.061 17.5225 94.0005C17.4973 93.9399 17.4844 93.875 17.4844 93.8094C17.4844 93.7439 17.4973 93.679 17.5225 93.6184C17.5477 93.5578 17.5847 93.5028 17.6312 93.4565C17.6778 93.4101 17.7331 93.3733 17.7939 93.3482C17.8547 93.3232 17.9199 93.3103 17.9858 93.3103Z" fill="#2F2E41"/>
<path d="M17.263 56.737C16.978 56.737 16.8161 56.6813 16.7534 56.562C16.6614 56.3869 16.821 56.1581 17.0058 55.8931C17.143 55.72 17.2511 55.5261 17.3261 55.3187C17.4366 54.8785 18.1827 43.7596 17.7364 41.538C17.6332 41.0239 17.7221 40.365 18.0005 39.5796C18.761 37.4345 19.799 36.7752 21.867 35.462C22.0349 35.3554 22.2096 35.244 22.3914 35.1279C22.6265 34.9775 22.6134 34.4789 22.5995 33.9508C22.5842 33.3639 22.5682 32.7569 22.857 32.3775L22.8758 32.3528L22.9061 32.3458C23.6047 32.185 25.9541 31.8866 27.3455 32.348L27.3648 32.3545L27.3791 32.3687C27.7096 32.6977 27.7398 33.3351 27.7689 33.9514C27.7927 34.4575 27.8153 34.9352 28.0023 35.1428C29.4319 36.7292 31.0532 36.6983 31.0697 36.698L31.15 36.6956L31.158 36.7752C31.7798 43.0723 32.7823 52.5766 32.9953 52.9507C33.0064 52.9678 33.0127 52.9876 33.0133 53.008C33.0139 53.0284 33.0089 53.0485 32.9988 53.0663C32.6861 53.648 18.3373 56.737 17.263 56.737Z" fill="#B1B1B1"/>
<path d="M26.6033 30.5636C28.945 30.5636 30.8434 28.6737 30.8434 26.3423C30.8434 24.011 28.945 22.1211 26.6033 22.1211C24.2616 22.1211 22.3633 24.011 22.3633 26.3423C22.3633 28.6737 24.2616 30.5636 26.6033 30.5636Z" fill="#FFB8B8"/>
<path d="M14.9542 24.4567C15.6711 23.6244 16.0119 22.5201 16.585 21.575C17.1581 20.6299 18.1554 19.784 19.209 20.0039C19.9353 20.1556 20.4966 20.7936 20.7808 21.5049C21.0649 22.2163 21.1181 23.0008 21.1679 23.7693C21.1503 22.1899 22.1955 20.6589 23.6352 20.155C25.0748 19.651 26.7977 20.2131 27.7024 21.4819C28.0971 21.1177 28.6124 20.9102 29.1506 20.899C29.6888 20.8877 30.2123 21.0734 30.6221 21.4209C31.4313 22.1409 31.6104 23.5113 31.0153 24.4297C30.7165 24.8765 30.2641 25.1994 29.7431 25.3377C29.2221 25.476 28.6683 25.4203 28.1857 25.1808L27.8514 25.487C27.938 25.8143 27.9063 26.1615 27.7618 26.4679C27.6174 26.7743 27.3693 27.0203 27.0611 27.1631C26.5636 27.3631 25.8613 27.3298 25.6751 27.8496C25.5451 28.2128 25.7882 28.6004 26.0469 28.8795C26.3055 29.1585 26.6126 29.4467 26.6436 29.8329C26.6905 30.4156 26.0857 30.8237 25.5359 30.9467C24.8619 31.0808 24.163 31.0117 23.5286 30.7481C22.8943 30.4846 22.3534 30.0385 21.9751 29.4671C21.9604 29.4447 21.9444 29.4222 21.9271 29.3997C21.4984 28.8539 21.186 28.2268 21.0089 27.5567C20.8319 26.8867 20.7939 26.1877 20.8974 25.5025C20.9403 25.2333 20.897 25.0331 20.7106 24.9693C19.9048 24.6938 17.6471 25.2721 16.9638 25.7949C16.2805 26.3176 15.7334 27.0093 15.0753 27.5658C14.4171 28.1222 13.5784 28.5515 12.7427 28.3999C12.0734 28.2786 11.5041 27.7948 11.1211 27.2113C10.7599 26.6075 10.4901 25.954 10.3203 25.2718C11.8003 26.123 13.8258 25.7667 14.9542 24.4567Z" fill="#2F2E41"/>
<path d="M33.4014 67.6648C33.2557 67.5071 33.1466 67.3194 33.0816 67.1151C33.0167 66.9107 32.9976 66.6947 33.0256 66.4822C33.0536 66.2698 33.128 66.066 33.2437 65.8852C33.3593 65.7045 33.5134 65.5512 33.695 65.4361L32.4883 60.3672L35.0423 61.2961L35.7967 65.9673C35.9706 66.2838 36.0218 66.6529 35.9407 67.0045C35.8595 67.3562 35.6516 67.666 35.3564 67.8752C35.0611 68.0845 34.699 68.1786 34.3387 68.1398C33.9784 68.1011 33.6449 67.9321 33.4014 67.6648Z" fill="#FFB8B8"/>
<path d="M27.2578 46.4241L28.2828 49.0481C28.2828 49.0481 27.8435 51.6721 28.5757 52.2552C29.3078 52.8383 29.0149 52.8383 29.0149 53.2757C29.0402 53.5894 29.1314 53.8943 29.2828 54.1705C29.4342 54.4468 29.6422 54.6883 29.8935 54.8792C30.4792 55.3165 33.1149 64.209 33.1149 64.209H35.7506C35.6655 63.5314 35.6655 62.8458 35.7506 62.1681C35.8971 61.1477 35.3113 58.5237 35.0185 58.0863C34.7256 57.649 35.0185 57.0659 35.0185 56.1912C35.0185 55.3165 34.4328 54.8792 34.4328 53.4214C34.4328 51.9637 32.6756 40.593 32.8221 39.281C32.9685 37.969 31.3578 36.8027 31.3578 36.8027H29.8935L27.2578 46.4241Z" fill="#B1B1B1"/>
</g>
<defs>
<clipPath id="clip0_344_27963">
<rect width="144" height="103" fill="white"/>
</clipPath>
</defs>
</svg>
