<svg width="128" height="114" viewBox="0 0 128 114" fill="none" xmlns="http://www.w3.org/2000/svg">
<g clip-path="url(#clip0_344_28078)">
<path d="M0.717009 25.5804C0.466366 25.6506 0.253917 25.8169 0.126269 26.0428C-0.0013779 26.2687 -0.0338027 26.5358 0.0361093 26.7854L16.4539 85.1534C16.5244 85.4029 16.6915 85.6144 16.9184 85.7414C17.1453 85.8685 17.4136 85.9008 17.6644 85.8312L78.1888 68.9605C78.4394 68.8904 78.6519 68.7241 78.7795 68.4982C78.9071 68.2723 78.9396 68.0052 78.8697 67.7555L62.4519 9.38759C62.3814 9.13808 62.2143 8.9266 61.9874 8.79953C61.7605 8.67246 61.4922 8.64018 61.2414 8.70977L0.717009 25.5804Z" fill="#B1B1B1"/>
<path d="M18.4249 83.0759L76.1008 66.9992L60.4806 11.4668L2.80469 27.5435L18.4249 83.0759Z" fill="white"/>
<path d="M10.4299 34.9572C10.0451 35.0644 9.88649 35.7007 10.0763 36.3755C10.2661 37.0503 10.7336 37.5121 11.1184 37.4048L37.4236 30.0725C37.8084 29.9653 37.967 29.329 37.7772 28.6542C37.5874 27.9794 37.1199 27.5176 36.7351 27.6248L10.4299 34.9572Z" fill="#B1B1B1"/>
<path d="M12.5471 42.4884C12.1623 42.5957 12.0037 43.232 12.1935 43.9068C12.3833 44.5816 12.8508 45.0434 13.2356 44.9361L39.5407 37.6038C39.9255 37.4965 40.0842 36.8602 39.8944 36.1854C39.7046 35.5106 39.2371 35.0488 38.8523 35.1561L12.5471 42.4884Z" fill="#B1B1B1"/>
<path d="M14.6448 49.9337C14.26 50.041 14.1013 50.6773 14.2911 51.3521C14.481 52.0269 14.9485 52.4887 15.3333 52.3814L41.6384 45.0491C42.0232 44.9418 42.1819 44.3055 41.992 43.6307C41.8022 42.9559 41.3347 42.4942 40.9499 42.6014L14.6448 49.9337Z" fill="#B1B1B1"/>
<path d="M16.762 57.465C16.3772 57.5722 16.2185 58.2085 16.4083 58.8833C16.5981 59.5582 17.0657 60.0199 17.4505 59.9127L43.7556 52.5803C44.1404 52.4731 44.2991 51.8368 44.1092 51.162C43.9194 50.4872 43.4519 50.0254 43.0671 50.1327L16.762 57.465Z" fill="#B1B1B1"/>
<path d="M50.0862 23.992C49.9246 24.0369 49.7734 24.113 49.6414 24.2161C49.5093 24.3191 49.399 24.447 49.3167 24.5926C49.2343 24.7381 49.1816 24.8983 49.1615 25.0642C49.1414 25.23 49.1544 25.3981 49.1996 25.559C49.2449 25.7198 49.3215 25.8702 49.4252 26.0015C49.5288 26.1328 49.6575 26.2425 49.8038 26.3243C49.95 26.4061 50.1111 26.4584 50.2777 26.4782C50.4443 26.498 50.6132 26.4849 50.7747 26.4397L55.6923 25.069C56.0183 24.9781 56.2948 24.762 56.4608 24.4682C56.6268 24.1744 56.6688 23.827 56.5775 23.5025C56.4862 23.1779 56.2691 22.9027 55.974 22.7374C55.6788 22.5722 55.3299 22.5304 55.0038 22.6213L50.0862 23.992Z" fill="#B1B1B1"/>
<path d="M52.1643 31.3768C52.0027 31.4216 51.8516 31.4978 51.7195 31.6008C51.5875 31.7039 51.4771 31.8318 51.3948 31.9773C51.3124 32.1228 51.2597 32.2831 51.2396 32.4489C51.2196 32.6148 51.2325 32.7829 51.2778 32.9437C51.323 33.1046 51.3996 33.2549 51.5033 33.3863C51.607 33.5176 51.7356 33.6273 51.8819 33.7091C52.0282 33.7909 52.1892 33.8432 52.3558 33.863C52.5224 33.8828 52.6913 33.8697 52.8528 33.8245L57.7704 32.4537C58.0965 32.3629 58.3729 32.1468 58.5389 31.853C58.7049 31.5592 58.7469 31.2118 58.6556 30.8872C58.5643 30.5626 58.3472 30.2874 58.0521 30.1222C57.757 29.957 57.408 29.9152 57.0819 30.0061L52.1643 31.3768Z" fill="#B1B1B1"/>
<path d="M54.241 38.7616C54.0796 38.8066 53.9286 38.8828 53.7968 38.9859C53.6649 39.0889 53.5547 39.2169 53.4725 39.3623C53.3903 39.5078 53.3377 39.668 53.3177 39.8337C53.2977 39.9994 53.3107 40.1674 53.3559 40.3281C53.4011 40.4888 53.4777 40.6391 53.5812 40.7703C53.6847 40.9016 53.8132 41.0113 53.9594 41.0931C54.1055 41.1749 54.2664 41.2273 54.4328 41.2472C54.5993 41.2672 54.7681 41.2542 54.9295 41.2092L59.8471 39.8385C60.1732 39.7476 60.4496 39.5315 60.6156 39.2377C60.7816 38.944 60.8236 38.5966 60.7323 38.272C60.641 37.9474 60.4239 37.6722 60.1288 37.507C59.8337 37.3417 59.4847 37.2999 59.1586 37.3908L54.241 38.7616Z" fill="#B1B1B1"/>
<path d="M56.3178 46.1479C55.992 46.2391 55.716 46.4553 55.5503 46.7489C55.3846 47.0426 55.3428 47.3897 55.434 47.714C55.5252 48.0384 55.7421 48.3134 56.0369 48.4787C56.3317 48.644 56.6803 48.686 57.0062 48.5956L61.9238 47.2248C62.2496 47.1336 62.5256 46.9175 62.6913 46.6238C62.857 46.3302 62.8988 45.983 62.8076 45.6587C62.7164 45.3344 62.4995 45.0593 62.2047 44.894C61.9099 44.7288 61.5613 44.6867 61.2354 44.7771L56.3178 46.1479Z" fill="#B1B1B1"/>
<path d="M58.3032 58.9492C58.0973 59.0063 57.9047 59.1033 57.7364 59.2346C57.5682 59.3659 57.4276 59.529 57.3227 59.7144C57.2177 59.8998 57.1506 60.104 57.125 60.3153C57.0994 60.5266 57.1159 60.7408 57.1735 60.9458C57.2312 61.1507 57.3288 61.3423 57.4609 61.5097C57.593 61.677 57.7569 61.8168 57.9433 61.921C58.1297 62.0252 58.3349 62.0919 58.5472 62.1171C58.7595 62.1423 58.9747 62.1257 59.1805 62.068L65.4466 60.3214C65.862 60.2056 66.2143 59.9303 66.4258 59.5559C66.6373 59.1816 66.6908 58.7389 66.5744 58.3253C66.4581 57.9118 66.1815 57.5611 65.8055 57.3505C65.4294 57.14 64.9847 57.0868 64.5693 57.2026L58.3032 58.9492Z" fill="#019ACB"/>
<path d="M64.7509 52.6498L18.3828 65.5745L18.4982 65.9848L64.8664 53.06L64.7509 52.6498Z" fill="#B1B1B1"/>
<path d="M111.327 107.812L107.608 108.707L102.371 94.854L107.86 93.5332L111.327 107.812Z" fill="#A0616A"/>
<path d="M101.192 114.001L101.167 113.897C100.872 112.678 101.076 111.391 101.732 110.321C102.389 109.25 103.446 108.483 104.67 108.187L111.946 106.436L113.088 111.138L101.192 114.001Z" fill="#2F2E41"/>
<path d="M94.8647 110.335L91.0389 110.335L89.2188 95.6445L94.8653 95.6447L94.8647 110.335Z" fill="#A0616A"/>
<path d="M95.789 113.979L83.5508 113.978V113.872C83.5508 112.617 84.0516 111.414 84.9429 110.526C85.8342 109.639 87.043 109.141 88.3035 109.141H88.3037L95.7893 109.141L95.789 113.979Z" fill="#2F2E41"/>
<path d="M89.2147 104.6L85.5 60.5279L100.878 57.7062L100.938 57.6953L105.439 60.5756L103.873 76.795L111.086 102.082L104.858 103.714L97.6332 80.2614L95.9799 73.1296L95.1326 82.3969L95.7616 105.251L89.2147 104.6Z" fill="#2F2E41"/>
<path d="M85.0251 61.5277L84.9844 61.4764L90.2983 21.6473L90.3052 21.5951L90.3426 21.5578C90.4209 21.4798 92.2827 19.6483 94.1978 19.6483C94.4746 19.6483 94.7379 19.6413 94.9904 19.635C96.4558 19.597 97.6134 19.5667 98.9891 20.9365C100.391 22.3317 104.964 27.4266 104.964 34.4046C104.964 41.1586 105.582 62.1481 105.588 62.3592L105.597 62.6556L105.347 62.4939C105.286 62.4545 99.1345 58.5555 93.9757 62.1799C92.3635 63.3128 90.9152 63.7099 89.6769 63.7099C86.7946 63.7099 85.0497 61.5589 85.0251 61.5277Z" fill="#019ACB"/>
<path d="M97.0589 16.3631C100.773 14.3418 102.138 9.70574 100.108 6.00817C98.0774 2.3106 93.4203 0.951689 89.706 2.97297C85.9916 4.99424 84.6265 9.63029 86.657 13.3279C88.6874 17.0254 93.3445 18.3843 97.0589 16.3631Z" fill="#A0616A"/>
<path d="M81.6508 70.0875C82.0134 69.8078 82.31 69.4523 82.5197 69.0461C82.7294 68.6399 82.847 68.1929 82.8644 67.7365C82.8818 67.2801 82.7984 66.8255 82.6202 66.4047C82.4419 65.9839 82.1732 65.6071 81.8329 65.3008L86.1856 55.0801L80.4863 56.1243L77.2266 65.67C76.7477 66.2732 76.5077 67.0304 76.5521 67.7981C76.5965 68.5657 76.9223 69.2904 77.4676 69.835C78.0129 70.3795 78.74 70.706 79.511 70.7525C80.282 70.7991 81.0433 70.5625 81.6508 70.0875Z" fill="#A0616A"/>
<path d="M77.4453 62.1368L78.847 59.191C78.7603 59.1391 78.6889 59.0654 78.64 58.9774C77.3304 56.7182 85.2405 37.9564 85.7677 36.712C85.6874 36.0351 84.857 28.8627 85.4641 26.4451C86.1789 23.5991 87.6464 22.2727 90.3712 22.01C93.3762 21.7291 94.1869 25.7913 94.1947 25.8326L94.1974 36.2757L90.7488 48.297L82.8836 64.2692L77.4453 62.1368Z" fill="#019ACB"/>
<path d="M94.3641 12.5418C93.4452 12.6608 92.7522 11.725 92.4307 10.8599C92.1092 9.99481 91.8643 8.98769 91.0655 8.52039C89.9741 7.88197 88.5777 8.64982 87.3296 8.43918C85.9202 8.20131 85.0038 6.71433 84.9319 5.29303C84.8601 3.87173 85.4283 2.50475 85.9858 1.19433L86.1804 2.82289C86.1544 2.27093 86.2711 1.72155 86.5193 1.22731C86.7675 0.733068 87.139 0.310491 87.5981 0L87.3473 2.38966C87.5046 1.05091 88.9534 0.0135644 90.2784 0.290994L90.2389 1.71483C91.8668 1.52214 93.5089 1.32917 95.1417 1.47598C96.7744 1.62278 98.4185 2.13703 99.656 3.20745C101.507 4.80862 102.183 7.44514 101.956 9.87583C101.729 12.3065 100.721 14.59 99.6707 16.7958C99.4064 17.3508 99.0409 17.9771 98.428 18.0478C97.8773 18.1113 97.3734 17.653 97.2022 17.1281C97.031 16.6032 97.1145 16.033 97.2171 15.4906C97.3719 14.6714 97.5672 13.8339 97.4216 13.0129C97.2759 12.192 96.6826 11.3807 95.8513 11.2801C95.0199 11.1795 94.1693 12.1254 94.569 12.858L94.3641 12.5418Z" fill="#2F2E41"/>
<path d="M127.919 113.996H72.7617V113.547H128.001L127.919 113.996Z" fill="#3F3D56"/>
<path d="M26.848 72.7992C26.9468 73.168 26.9493 73.5461 26.8555 73.9335C26.7596 74.3133 26.561 74.663 26.2596 74.9825C25.9659 75.3 25.5735 75.541 25.0824 75.7055L25.3325 76.639L24.7102 76.8057L24.4601 75.8723C23.7445 75.9982 23.1163 75.9277 22.5754 75.6609C22.0325 75.3864 21.677 74.9506 21.5087 74.3534L22.6265 74.0539C22.7437 74.3683 22.9379 74.6168 23.2092 74.7994C23.4881 74.9799 23.8279 75.0495 24.2285 75.008L23.4565 72.127C22.9068 72.1343 22.4559 72.111 22.1039 72.0571C21.7518 72.0033 21.4253 71.8602 21.1243 71.628C20.8232 71.3957 20.6069 71.0337 20.4751 70.5421C20.3084 69.9198 20.3856 69.3474 20.7067 68.8249C21.0355 68.3004 21.5548 67.9183 22.2646 67.6787L22.0083 66.7223L22.6306 66.5555L22.8869 67.512C23.5543 67.3908 24.1372 67.4611 24.6355 67.7228C25.1318 67.9768 25.4889 68.3876 25.7068 68.955L24.5889 69.2545C24.4785 68.9959 24.2946 68.7858 24.0372 68.6242C23.7777 68.4549 23.4736 68.38 23.1247 68.3994L23.8781 71.2112C24.4202 71.2059 24.8672 71.2303 25.2192 71.2841C25.5769 71.3283 25.9024 71.4675 26.1958 71.7018C26.4968 71.934 26.7142 72.2999 26.848 72.7992ZM21.5314 70.1973C21.6323 70.5737 21.8209 70.832 22.0972 70.972C22.3735 71.1121 22.7443 71.1898 23.2095 71.2051L22.4962 68.543C22.107 68.6885 21.8232 68.9045 21.6447 69.1912C21.4642 69.4701 21.4264 69.8055 21.5314 70.1973ZM24.8539 74.8528C25.2564 74.6955 25.5389 74.4592 25.7015 74.144C25.8717 73.8266 25.9094 73.4912 25.8148 73.1378C25.7139 72.7614 25.5215 72.5042 25.2374 72.3662C24.9514 72.2205 24.5806 72.1428 24.1251 72.1331L24.8539 74.8528Z" fill="#464646"/>
</g>
<defs>
<clipPath id="clip0_344_28078">
<rect width="128" height="114" fill="white"/>
</clipPath>
</defs>
</svg>
