<svg width="124" height="119" viewBox="0 0 124 119" fill="none" xmlns="http://www.w3.org/2000/svg">
<g clip-path="url(#clip0_344_28103)">
<path d="M117.908 28.2528C117.969 28.1632 119.469 29.6888 120.834 29.3749C122.534 28.9838 123.778 25.7944 122.856 24.4302C122.246 23.5274 120.728 23.4849 120.76 23.3156C120.794 23.1344 122.427 23.7418 123.315 23.0164C124.394 22.1351 124.169 19.455 122.848 18.0493C122.584 17.768 122.145 17.3008 121.515 17.2638C120.277 17.1912 119.306 18.837 118.879 19.5604C117.521 21.8603 117.409 24.2733 117.242 24.2507C117.087 24.2298 117.498 22.2106 116.753 21.7971C116.59 21.7065 116.396 21.7078 116.203 21.7528C116.252 21.6254 116.287 21.4942 116.305 21.3594C116.417 20.5089 115.748 19.6049 114.957 18.847C115.78 19.3396 116.711 19.6811 117.534 19.4368C119.373 18.8911 120.597 15.4469 119.63 13.3327C118.955 11.856 117.233 11.0758 117.29 10.9913C117.35 10.9017 118.85 12.4273 120.215 12.1133C121.915 11.7222 123.159 8.53285 122.237 7.16868C121.627 6.26587 120.109 6.22343 120.141 6.0541C120.175 5.87292 121.808 6.48027 122.696 5.75486C123.775 4.87361 123.55 2.19352 122.229 0.787775C121.965 0.506503 121.526 0.0393242 120.896 0.00233107C119.659 -0.0703507 118.687 1.57548 118.26 2.29889C116.902 4.59882 116.791 7.01181 116.623 6.98921C116.468 6.96832 116.879 4.94904 116.134 4.53559C115.668 4.2767 114.95 4.75965 114.727 4.90964C112.276 6.55903 112.955 10.1455 110.691 13.9611C109.962 15.1897 109.235 15.9233 108.622 16.4782C108.342 13.0619 109.374 10.4394 107.811 8.45296C107.645 8.24113 107.108 7.55909 106.586 7.66092C105.751 7.82352 105.529 9.87284 105.375 9.84473C105.209 9.81433 105.836 7.48323 105.242 4.87342C105.055 4.05255 104.63 2.18497 103.43 1.87062C102.819 1.71057 102.259 2.01925 101.923 2.2051C100.239 3.13393 99.2102 5.61491 99.9697 6.78805C100.595 7.75375 102.334 7.68172 102.311 7.86463C102.289 8.03558 100.832 7.60577 99.9773 8.27599C98.6855 9.28871 98.9004 12.7097 100.4 13.6087C101.603 14.3304 103.495 13.3433 103.525 13.4473C103.553 13.5453 101.677 13.7543 100.586 14.9506C100.133 15.4471 99.8225 16.1075 99.6469 16.821C98.1609 16.9338 96.889 18.0093 96.8414 17.9264C96.7875 17.8327 98.7993 17.1287 99.1111 15.7505C99.4995 14.0336 97.1935 11.5186 95.5767 11.766C94.5067 11.9297 93.8108 13.2923 93.6734 13.1902C93.5264 13.0809 94.7765 11.858 94.5146 10.7349C94.1964 9.37059 91.7077 8.41351 89.881 9.00551C89.5155 9.12396 88.9084 9.32069 88.6021 9.87817C88.0005 10.9731 89.0473 12.5713 89.5075 13.2737C90.9704 15.507 93.0748 16.6548 92.982 16.7974C92.8962 16.9293 91.2731 15.6794 90.5811 16.1782C90.1477 16.4906 90.2673 17.3532 90.3045 17.6211C90.7129 20.5673 94.2071 21.5045 96.629 25.2201C98.6012 28.2458 97.7597 29.8879 99.4305 30.708C100.148 31.0601 101.061 31.1281 101.995 30.9586C101.272 35.845 101.068 44.2017 101.068 44.2017C100.864 52.5606 99.8003 59.4446 99.3345 59.4313C99.0759 59.4234 99.1712 57.3179 98.3878 53.9319C97.8379 51.558 97.5784 51.6674 96.1508 47.4317C93.8854 40.7126 92.7528 37.3541 92.7504 37.3357C92.7384 37.1897 92.7186 36.8949 92.6358 36.5966C94.3126 36.1227 95.9408 34.9087 96.5064 33.205C96.9589 31.842 96.84 29.8174 95.7394 29.088C95.0292 28.6174 93.9326 28.8341 92.9137 29.2248C93.7101 28.6892 94.4184 27.9905 94.5574 27.1353C94.8681 25.2249 92.3262 22.6176 90.0208 22.5806C88.4106 22.5547 86.9678 23.7835 86.917 23.6952C86.8632 23.6015 88.875 22.8975 89.1867 21.5193C89.5751 19.8024 87.2692 17.2874 85.6524 17.5348C84.5824 17.6985 83.8864 19.0611 83.7491 18.959C83.6021 18.8496 84.8521 17.6268 84.5902 16.5037C84.2721 15.1394 81.7833 14.1823 79.9566 14.7743C79.5911 14.8927 78.9841 15.0895 78.6778 15.6469C78.0761 16.7419 79.123 18.34 79.5831 19.0425C81.046 21.2758 83.1504 22.4236 83.0576 22.5662C82.9718 22.6981 81.3487 21.4481 80.6567 21.947C80.2234 22.2594 80.343 23.122 80.3801 23.3899C80.7885 26.3361 84.2827 27.2733 86.7046 30.9889C88.6768 34.0145 87.8353 35.6567 89.5062 36.4768C89.7953 36.6187 90.1169 36.7132 90.4582 36.7661L90.4583 36.7677C90.6053 39.0779 94.7257 45.2863 97.0191 54.1134C98.1614 58.5111 98.7864 60.9102 98.3365 64.2511C97.8921 67.5631 96.6581 69.7985 96.6805 71.2745C96.6822 71.4125 96.6941 71.5398 96.7194 71.663L103.492 70.7652C103.538 70.6326 103.573 70.4966 103.601 70.3569C104.117 67.844 102.236 64.0248 103.192 57.8653C103.902 53.2946 105.847 49.5352 106.755 47.7837C107.869 45.6297 109.186 43.6036 110.608 40.4574C111.521 40.9653 112.556 41.2349 113.583 41.1044C114.996 40.9252 116.75 39.9389 116.924 38.6209C117.035 37.7705 116.366 36.8664 115.576 36.1086C116.399 36.6011 117.33 36.9427 118.153 36.6983C119.992 36.1526 121.216 32.7085 120.249 30.5942C119.574 29.1175 117.852 28.3373 117.908 28.2528ZM90.3544 30.505C90.3495 30.4951 90.4202 30.464 90.5434 30.4135C90.4273 30.4794 90.3594 30.5149 90.3544 30.505ZM112.869 17.2053C112.76 17.1282 112.699 17.0819 112.705 17.073C112.712 17.0642 112.77 17.1151 112.869 17.2053ZM105.845 20.7315C105.966 20.6762 106.037 20.6458 106.041 20.6563C106.045 20.6668 105.972 20.6919 105.845 20.7315ZM100.279 24.7362C100.274 24.7263 100.345 24.6952 100.468 24.6447C100.352 24.7106 100.284 24.7461 100.279 24.7362ZM102.227 42.4074C102.065 42.3704 104.042 34.29 104.367 30.0001C105.306 29.3785 106.077 28.5032 106.431 27.4362C106.437 27.4177 106.443 27.3986 106.448 27.3798C106.636 27.3535 106.823 27.3178 107.008 27.2738C106.346 28.9642 105.977 30.1917 105.977 30.1917C104.258 35.9109 102.375 42.4417 102.227 42.4074ZM109.609 39.7694C109.066 40.6101 108.43 41.6437 107.554 43.2246C105.308 47.2747 104.185 49.2985 103.89 50.7415C103.813 51.1268 103.404 53.2107 102.466 55.8522C101.987 57.2 101.747 57.874 101.565 57.8466C101.049 57.7674 101.04 52.4506 102.469 46.9456C102.714 46.0085 102.909 45.4037 103.28 44.26C103.882 42.3942 107.238 32.0237 109.878 25.7324L109.878 25.7315C110.366 25.2595 110.731 24.7196 110.91 24.1513C110.967 23.9698 110.999 23.802 111.012 23.6422C111.643 23.845 112.305 23.9266 112.964 23.8429C113.333 23.7961 113.725 23.6939 114.106 23.5456C113.052 25.4325 113.069 28.2581 111.31 31.2227C109.466 34.3297 107.636 34.276 107.629 36.1524C107.624 37.3985 108.427 38.7769 109.61 39.7682L109.609 39.7694ZM113.324 34.3345C113.331 34.3257 113.389 34.3766 113.488 34.4668C113.379 34.3897 113.317 34.3434 113.324 34.3345Z" fill="#F2F2F2"/>
<path d="M42.4998 26.2545C43.5339 26.0804 44.6592 27.356 45.1292 27.8888C46.384 29.3112 46.646 30.9659 46.7473 31.6681C48.3462 42.7519 49.1456 48.2938 45.8371 50.8714C42.6928 53.3211 36.9454 52.6642 35.8252 50.4628C35.3888 49.6053 35.7537 48.7082 36.3309 46.9899C37.3976 43.8141 38.0263 40.5043 38.9602 37.2861C41.0927 29.9379 40.9137 26.5214 42.4998 26.2545Z" fill="#2F2E41"/>
<path d="M14.2835 67.623L9.25141 77.216C7.96686 79.6648 1.88848 117.387 4.59157 117.862L16.3003 118.255L21.1584 118.512L26.1519 118.585L38.5295 119L31.5768 69.8702L14.2835 67.623Z" fill="#2F2E41"/>
<path d="M26.6725 39.4824L36.6844 39.891L37.4935 43.2618L39.9045 45.2484C40.791 45.9788 41.2258 47.1304 41.0461 48.2716L39.9206 55.417C39.9206 55.417 42.0443 60.5243 36.6844 63.7929L31.3245 72.5774L12.7166 70.6366C12.7166 70.6366 10.9974 70.4324 12.2109 69.2066C13.4245 67.9809 14.9414 61.9543 14.9414 61.9543C14.9414 61.9543 14.7392 59.2986 15.4471 58.5835C16.155 57.8685 15.6621 56.0299 15.6621 56.0299L18.5415 45.2793C19.1026 43.1845 20.9845 41.7296 23.1331 41.7296H26.3262L26.6725 39.4824Z" fill="#019ACB"/>
<path d="M103.689 108.222L16.2519 84.6194C14.3838 84.115 13.0821 82.5971 12.8546 80.6576C12.6272 78.7181 13.5418 76.9349 15.2415 76.0037L50.7756 56.5388C51.6736 56.0468 52.7236 55.8681 53.7316 56.0362L112.465 65.8157C113.718 66.0245 114.805 66.7224 115.524 67.7806C116.243 68.8388 116.497 70.1137 116.24 71.3705L109.41 104.659C109.149 105.929 108.403 107.004 107.31 107.685C106.568 108.147 105.739 108.384 104.895 108.384C104.494 108.384 104.089 108.33 103.689 108.222Z" fill="white"/>
<path d="M103.689 108.222L16.2519 84.6194C14.3838 84.115 13.0821 82.5971 12.8546 80.6576C12.6272 78.7181 13.5418 76.9349 15.2415 76.0037L50.7756 56.5388C51.6736 56.0468 52.7236 55.8681 53.7316 56.0362L112.465 65.8157C113.718 66.0245 114.805 66.7224 115.524 67.7806C116.243 68.8388 116.497 70.1137 116.24 71.3705L109.41 104.659C109.149 105.929 108.403 107.004 107.31 107.685C106.568 108.147 105.739 108.384 104.895 108.384C104.494 108.384 104.089 108.33 103.689 108.222ZM112.386 66.2968L53.653 56.5171C52.7503 56.3665 51.81 56.5265 51.0056 56.9672L15.4716 76.4321C13.9493 77.266 13.1301 78.8631 13.3338 80.6001C13.5375 82.3372 14.7034 83.6968 16.3765 84.1485L103.814 107.751C104.925 108.051 106.077 107.881 107.057 107.271C108.036 106.661 108.704 105.698 108.937 104.56L115.767 71.2715C115.998 70.1461 115.77 69.0041 115.126 68.0563C114.482 67.1086 113.509 66.4836 112.386 66.2968Z" fill="#797979"/>
<path d="M99.6851 75.4599L91.8875 95.3337C91.1315 97.2604 89.0092 98.2462 87.0689 97.5719L29.7547 77.654C26.5901 76.5542 26.2365 72.1762 29.1829 70.5729L47.6276 60.5362C48.4301 60.0995 49.3603 59.9655 50.2517 60.158L96.9187 70.239C99.241 70.7407 100.56 73.23 99.6851 75.4599Z" fill="#F2F2F2"/>
<path d="M84.6698 78.7569C86.457 78.7569 87.9059 78.0252 87.9059 77.1226C87.9059 76.22 86.457 75.4883 84.6698 75.4883C82.8825 75.4883 81.4336 76.22 81.4336 77.1226C81.4336 78.0252 82.8825 78.7569 84.6698 78.7569Z" fill="#FF6884"/>
<path d="M81.6346 83.7628C83.4219 83.7628 84.8708 83.0311 84.8708 82.1285C84.8708 81.2259 83.4219 80.4941 81.6346 80.4941C79.8473 80.4941 78.3984 81.2259 78.3984 82.1285C78.3984 83.0311 79.8473 83.7628 81.6346 83.7628Z" fill="#3F3D56"/>
<path d="M64.2436 79.83C69.1028 79.83 73.042 77.8406 73.042 75.3867C73.042 72.9327 69.1028 70.9434 64.2436 70.9434C59.3845 70.9434 55.4453 72.9327 55.4453 75.3867C55.4453 77.8406 59.3845 79.83 64.2436 79.83Z" fill="#019ACB"/>
<path d="M48.9698 75.1828C49.0946 75.1828 49.2116 75.1043 49.2558 74.9786C49.3117 74.8191 49.229 74.6439 49.0711 74.5874L42.6509 72.2891C42.4934 72.2327 42.3197 72.316 42.2636 72.4756C42.2077 72.6351 42.2903 72.8103 42.4482 72.8669L48.8684 75.1651C48.9019 75.1771 48.9361 75.1828 48.9698 75.1828Z" fill="#3F3D56"/>
<path d="M50.3877 74.0578C50.5126 74.0578 50.6296 73.9793 50.6737 73.8536C50.7296 73.6941 50.647 73.5189 50.4891 73.4624L44.0689 71.1641C43.9114 71.1077 43.7376 71.191 43.6815 71.3506C43.6256 71.5101 43.7083 71.6853 43.8662 71.7419L50.2864 74.0401C50.3199 74.0521 50.3541 74.0578 50.3877 74.0578Z" fill="#3F3D56"/>
<path d="M51.8018 72.9347C51.9266 72.9347 52.0437 72.8562 52.0878 72.7305C52.1437 72.571 52.061 72.3958 51.9031 72.3393L45.4829 70.041C45.3253 69.9848 45.1516 70.0679 45.0956 70.2275C45.0397 70.3871 45.1224 70.5622 45.2803 70.6188L51.7005 72.917C51.7339 72.929 51.7681 72.9347 51.8018 72.9347Z" fill="#3F3D56"/>
<path d="M53.2198 71.8117C53.3446 71.8117 53.4616 71.7332 53.5058 71.6075C53.5617 71.448 53.479 71.2728 53.3211 71.2163L46.9009 68.918C46.7434 68.8616 46.5696 68.9449 46.5136 69.1045C46.4577 69.264 46.5403 69.4392 46.6982 69.4958L53.1184 71.794C53.1519 71.806 53.1861 71.8117 53.2198 71.8117Z" fill="#3F3D56"/>
<path d="M54.6338 70.6886C54.7587 70.6886 54.8757 70.6101 54.9198 70.4844C54.9757 70.3249 54.8931 70.1498 54.7352 70.0932L48.315 67.795C48.1574 67.7386 47.9837 67.8219 47.9276 67.9815C47.8717 68.141 47.9544 68.3162 48.1123 68.3727L54.5325 70.671C54.566 70.683 54.6001 70.6886 54.6338 70.6886Z" fill="#3F3D56"/>
<path d="M56.0518 69.5636C56.1766 69.5636 56.2937 69.4851 56.3378 69.3594C56.3937 69.1999 56.311 69.0247 56.1531 68.9682L49.7329 66.6699C49.5753 66.6137 49.4017 66.6969 49.3456 66.8565C49.2897 67.016 49.3724 67.1911 49.5303 67.2477L55.9505 69.5459C55.9839 69.5579 56.0181 69.5636 56.0518 69.5636Z" fill="#3F3D56"/>
<path d="M57.4659 68.4406C57.5907 68.4406 57.7077 68.3621 57.7519 68.2364C57.8078 68.0769 57.7251 67.9017 57.5672 67.8452L51.147 65.5469C50.9894 65.4906 50.8158 65.5738 50.7597 65.7334C50.7038 65.893 50.7864 66.0681 50.9443 66.1247L57.3645 68.4229C57.398 68.4349 57.4322 68.4406 57.4659 68.4406Z" fill="#3F3D56"/>
<path d="M35.8239 42.8026C40.4039 42.8026 44.1166 39.0525 44.1166 34.4267C44.1166 29.8008 40.4039 26.0508 35.8239 26.0508C31.244 26.0508 27.5312 29.8008 27.5312 34.4267C27.5312 39.0525 31.244 42.8026 35.8239 42.8026Z" fill="#A0616A"/>
<path d="M37.5432 21.9643C35.2084 21.5799 33.9546 21.3735 32.689 21.6579C30.1536 22.2276 28.6829 24.5171 27.6325 26.1523C25.1206 30.0626 26.2562 31.7061 23.7895 37.1839C22.02 41.1135 21.1279 40.9511 20.9579 43.0062C20.601 47.32 24.2342 51.6353 28.1381 53.3228C28.3988 53.4356 32.456 55.1503 33.5992 53.7314C34.4372 52.6913 32.9568 50.9009 31.172 46.0706C28.0338 37.5772 29.5167 34.7385 29.9585 34.0174C30.2376 33.5619 31.0337 32.4295 31.4754 32.5874C31.875 32.7303 31.5291 33.7666 31.8799 34.6303C32.8199 36.9442 38.533 37.458 43.0043 35.6518C44.3229 35.1191 45.132 34.7922 45.7348 33.9153C47.7801 30.9398 45.3384 24.7043 41.4873 22.8836C40.6112 22.4695 39.5886 22.3011 37.5432 21.9643Z" fill="#2F2E41"/>
<path d="M31.6148 71.8675C33.6317 72.9007 34.7387 74.7894 34.0875 76.0857C33.4362 77.382 31.2736 77.595 29.2561 76.5611C28.4446 76.1593 27.7402 75.567 27.2018 74.8338L18.7109 70.3468L20.8806 66.3672L29.0207 71.2131C29.9247 71.2188 30.8143 71.4432 31.6148 71.8675Z" fill="#A0616A"/>
<path d="M71.3273 66.0943C73.4519 66.877 74.7742 68.6186 74.2808 69.9842C73.7875 71.3498 71.6655 71.822 69.5402 71.0388C68.687 70.7377 67.9176 70.2345 67.2964 69.5715L58.3359 66.1405L60.0197 61.9277L68.6743 65.7574C69.5726 65.6541 70.4823 65.7696 71.3273 66.0943Z" fill="#A0616A"/>
<path d="M21.9695 43.8228C21.9695 43.8228 20.2503 40.2477 16.3062 43.0056C12.3621 45.7635 2.95702 57.2037 2.95702 57.2037C2.95702 57.2037 -1.89723 61.4938 0.833287 63.026C3.5638 64.5582 23.1831 73.4448 23.1831 73.4448L28.1385 69.9719L10.5418 60.881L20.6496 53.2201L21.9695 43.8228Z" fill="#019ACB"/>
<path d="M39.1615 45.969C39.1615 45.969 40.3647 44.2326 42.4936 45.969C44.6225 47.7055 50.7497 57.7041 50.7497 57.7041L65.8599 63.9465L63.635 68.5431L45.5327 62.0058L37.6445 51.1784L39.1615 45.969Z" fill="#019ACB"/>
<path d="M38.2026 42.854C35.9092 44.0369 36.9644 45.8529 36.8879 46.2248C36.1426 49.846 38.8672 53.5967 39.9218 53.375C40.5405 53.2449 40.8657 51.6885 40.7308 50.5149C40.556 48.9935 42.0046 46.5854 41.8433 45.5098C41.4475 42.8711 43.8355 42.8217 43.3602 41.8326C43.0817 41.2529 39.5693 42.1492 38.2026 42.854Z" fill="#2F2E41"/>
<path d="M64.7869 80.0655C64.7964 80.0655 64.806 80.065 64.8156 80.0637C64.9479 80.048 65.0425 79.9268 65.0269 79.7931L64.4829 75.1543C64.4754 75.0901 64.4429 75.0315 64.3925 74.9916C64.3421 74.9516 64.2784 74.9336 64.2145 74.9411L55.5758 75.9904C55.4435 76.0064 55.3491 76.1278 55.365 76.2614C55.381 76.3951 55.5012 76.4911 55.6334 76.4743L64.0321 75.4542L64.5476 79.8505C64.5622 79.9744 64.6664 80.0655 64.7869 80.0655Z" fill="white"/>
<path d="M20.3005 84.5449C22.7878 84.5449 24.8041 82.5083 24.8041 79.9961C24.8041 77.4838 22.7878 75.4473 20.3005 75.4473C17.8132 75.4473 15.7969 77.4838 15.7969 79.9961C15.7969 82.5083 17.8132 84.5449 20.3005 84.5449Z" fill="#019ACB"/>
<path d="M18.2562 79.2861L19.7037 81.8573C19.7898 82.0103 20.0372 82.0214 20.1204 81.8573C20.6857 80.7423 21.4842 79.7551 22.4684 78.9901C22.5724 78.9092 22.6252 78.7814 22.5549 78.6567C22.4967 78.5534 22.3279 78.4891 22.2248 78.5692C21.1736 79.3863 20.3091 80.4174 19.7037 81.6113H20.1204L18.6728 79.0401C18.5193 78.7675 18.1023 79.0128 18.2562 79.2861Z" fill="white"/>
</g>
<defs>
<clipPath id="clip0_344_28103">
<rect width="124" height="119" fill="white"/>
</clipPath>
</defs>
</svg>
