<svg width="10" height="10" viewBox="0 0 10 10" fill="none" xmlns="http://www.w3.org/2000/svg">
<path d="M5.21207 8.33663L7.63685 9.93433C7.9468 10.1386 8.33162 9.83481 8.23965 9.45854L7.53908 6.59241C7.51935 6.51259 7.52168 6.42859 7.54582 6.35008C7.56995 6.27157 7.6149 6.20174 7.6755 6.14862L9.84989 4.26645C10.1356 4.01914 9.98813 3.52601 9.62106 3.50123L6.78145 3.30957C6.70496 3.30389 6.6316 3.27572 6.56991 3.22836C6.50822 3.181 6.46074 3.11638 6.43299 3.04204L5.37393 0.268389C5.34515 0.189481 5.29396 0.121548 5.22717 0.0736107C5.16038 0.0256733 5.08115 0 5 0C4.91885 0 4.83962 0.0256733 4.77283 0.0736107C4.70604 0.121548 4.65485 0.189481 4.62607 0.268389L3.56701 3.04204C3.53926 3.11638 3.49178 3.181 3.43009 3.22836C3.3684 3.27572 3.29504 3.30389 3.21855 3.30957L0.378944 3.50123C0.0118731 3.52601 -0.135591 4.01914 0.150114 4.26645L2.3245 6.14862C2.3851 6.20174 2.43005 6.27157 2.45418 6.35008C2.47832 6.42859 2.48065 6.51259 2.46092 6.59241L1.81122 9.25042C1.70085 9.70195 2.16264 10.0664 2.53458 9.82137L4.78793 8.33663C4.85131 8.29468 4.92487 8.27239 5 8.27239C5.07513 8.27239 5.14869 8.29468 5.21207 8.33663Z" fill="#FD8E1F"/>
</svg>
