<svg width="20" height="20" viewBox="0 0 20 20" fill="none" xmlns="http://www.w3.org/2000/svg">
<path d="M18.3332 10.0003C18.3332 14.6027 14.6022 18.3337 9.99984 18.3337C5.39746 18.3337 1.6665 14.6027 1.6665 10.0003C1.6665 5.39795 5.39746 1.66699 9.99984 1.66699C14.6022 1.66699 18.3332 5.39795 18.3332 10.0003Z" stroke="#141414" stroke-width="1.3" stroke-linejoin="round"/>
<path d="M10 5.41699V6.66699M10 6.66699C8.73433 6.66699 7.70833 7.44087 7.70833 8.39541C7.70833 9.34999 8.33333 9.87691 10 9.87691C11.6667 9.87691 12.5 10.3707 12.5 11.6053C12.5 12.8399 11.3807 13.3337 10 13.3337M10 6.66699C11.2657 6.66699 12.2917 7.44087 12.2917 8.39541M10 13.3337V14.5837M10 13.3337C8.61925 13.3337 7.5 12.5599 7.5 11.6053" stroke="#141414" stroke-width="1.3" stroke-linecap="round" stroke-linejoin="round"/>
</svg>
