<svg width="44" height="44" viewBox="0 0 44 44" fill="none" xmlns="http://www.w3.org/2000/svg">
<rect width="44" height="44" rx="22" fill="#48CB01" fill-opacity="0.1"/>
<path d="M21.9998 30.3327C26.6022 30.3327 30.3332 26.6017 30.3332 21.9993C30.3332 17.397 26.6022 13.666 21.9998 13.666C17.3975 13.666 13.6665 17.397 13.6665 21.9993C13.6665 26.6017 17.3975 30.3327 21.9998 30.3327Z" stroke="#141414" stroke-width="1.3"/>
<path d="M22.0063 20.7563C21.316 20.7563 20.7563 21.316 20.7563 22.0063C20.7563 22.6967 21.316 23.2563 22.0063 23.2563C22.6967 23.2563 23.2563 22.6967 23.2563 22.0063C23.2563 21.316 22.6967 20.7563 22.0063 20.7563ZM22.0063 20.7563V17.832M24.5121 24.516L22.8883 22.8922" stroke="#141414" stroke-width="1.3" stroke-linecap="round" stroke-linejoin="round"/>
</svg>
