<svg width="44" height="44" viewBox="0 0 44 44" fill="none" xmlns="http://www.w3.org/2000/svg">
<rect width="44" height="44" rx="22" fill="#CB0104" fill-opacity="0.1"/>
<path d="M14.5 14.5H27.8333C28.7538 14.5 29.5 15.2462 29.5 16.1667V23.25C29.5 24.1705 28.7538 24.9167 27.8333 24.9167H20.75" stroke="#141414" stroke-width="1.3" stroke-linecap="round" stroke-linejoin="round"/>
<path d="M21.1665 17.834H26.9998" stroke="#141414" stroke-width="1.3" stroke-linecap="round" stroke-linejoin="round"/>
<path d="M17.8333 18.6667C17.8333 19.5871 17.0871 20.3333 16.1667 20.3333C15.2462 20.3333 14.5 19.5871 14.5 18.6667C14.5 17.7462 15.2462 17 16.1667 17C17.0871 17 17.8333 17.7462 17.8333 18.6667Z" stroke="#141414" stroke-width="1.3" stroke-linecap="round" stroke-linejoin="round"/>
<path d="M22.4167 22.416H17.8251M17.8251 22.416H15.3335C14.8733 22.416 14.5002 22.7891 14.5002 23.2493L14.5 26.166M17.8251 22.416L17.8333 26.166M14.5 29.4993V26.166M14.5 26.166H17.8333M17.8333 26.166V29.4993" stroke="#141414" stroke-width="1.3" stroke-linecap="round" stroke-linejoin="round"/>
</svg>
