<svg width="21" height="20" viewBox="0 0 21 20" fill="none" xmlns="http://www.w3.org/2000/svg">
<path d="M12.9019 1.6665V4.1665M5.40186 1.6665V4.1665M9.15189 1.6665V4.1665" stroke="#141414" stroke-width="1.3" stroke-linecap="round" stroke-linejoin="round"/>
<path d="M15.8187 9.99984V4.58317C15.8187 3.6627 15.0725 2.9165 14.1521 2.9165H4.15202C3.23154 2.9165 2.48535 3.6627 2.48535 4.58317V16.6665C2.48535 17.587 3.23154 18.3332 4.15202 18.3332H9.15205" stroke="#141414" stroke-width="1.3" stroke-linecap="round" stroke-linejoin="round"/>
<path d="M5.81885 12.4998H9.15221M5.81885 9.1665H12.4855" stroke="#141414" stroke-width="1.3" stroke-linecap="round" stroke-linejoin="round"/>
<path d="M13.3244 17.9988L11.6519 18.3333L11.9864 16.6607C12.0158 16.5137 12.088 16.3787 12.1939 16.2727L15.7444 12.7223C16.0409 12.4259 16.5215 12.4259 16.818 12.7223L17.2628 13.1671C17.5593 13.4636 17.5593 13.9443 17.2628 14.2407L13.7124 17.7911C13.6064 17.8971 13.4714 17.9694 13.3244 17.9988Z" stroke="#141414" stroke-width="1.3" stroke-linecap="round" stroke-linejoin="round"/>
</svg>
