<svg width="20" height="20" viewBox="0 0 20 20" fill="none" xmlns="http://www.w3.org/2000/svg">
<path d="M14.9998 14.5833V5.41667C14.9998 4.49619 14.2537 3.75 13.3332 3.75H3.33317C2.4127 3.75 1.6665 4.49619 1.6665 5.41667V14.5833C1.6665 15.5038 2.4127 16.25 3.33317 16.25H13.3332C14.2537 16.25 14.9998 15.5038 14.9998 14.5833Z" stroke="#141414" stroke-width="1.3" stroke-linecap="round" stroke-linejoin="round"/>
<path d="M12.5 7.5C12.5 8.19036 11.9403 8.75 11.25 8.75C10.5597 8.75 10 8.19036 10 7.5C10 6.80964 10.5597 6.25 11.25 6.25C11.9403 6.25 12.5 6.80964 12.5 7.5Z" stroke="#141414" stroke-width="1.3" stroke-linecap="round" stroke-linejoin="round"/>
<path d="M15 12.4998L18.3333 14.5832V5.4165L15 7.49984" stroke="#141414" stroke-width="1.3" stroke-linecap="round" stroke-linejoin="round"/>
</svg>
