<svg width="20" height="20" viewBox="0 0 20 20" fill="none" xmlns="http://www.w3.org/2000/svg">
<path d="M9.99984 18.3337C14.6022 18.3337 18.3332 14.6027 18.3332 10.0003C18.3332 5.39795 14.6022 1.66699 9.99984 1.66699C5.39746 1.66699 1.6665 5.39795 1.6665 10.0003C1.6665 14.6027 5.39746 18.3337 9.99984 18.3337Z" stroke="#141414" stroke-width="1.3"/>
<path d="M10.0063 8.75635C9.31601 8.75635 8.75635 9.31601 8.75635 10.0063C8.75635 10.6967 9.31601 11.2563 10.0063 11.2563C10.6967 11.2563 11.2563 10.6967 11.2563 10.0063C11.2563 9.31601 10.6967 8.75635 10.0063 8.75635ZM10.0063 8.75635V5.83203M12.5121 12.516L10.8883 10.8922" stroke="#141414" stroke-width="1.3" stroke-linecap="round" stroke-linejoin="round"/>
</svg>
