<svg width="20" height="20" viewBox="0 0 20 20" fill="none" xmlns="http://www.w3.org/2000/svg">
<path d="M17.9166 3.74992V16.2499C17.9166 17.1704 17.1704 17.9166 16.2499 17.9166H3.74992C2.82944 17.9166 2.08325 17.1704 2.08325 16.2499V3.74992C2.08325 2.82944 2.82944 2.08325 3.74992 2.08325H16.2499C17.1704 2.08325 17.9166 2.82944 17.9166 3.74992Z" stroke="#515B6F" stroke-width="1.3" stroke-linecap="round" stroke-linejoin="round"/>
<path d="M13.75 10C13.75 12.0711 12.0711 13.75 10 13.75C7.92893 13.75 6.25 12.0711 6.25 10C6.25 7.92893 7.92893 6.25 10 6.25C12.0711 6.25 13.75 7.92893 13.75 10Z" stroke="#515B6F" stroke-width="1.3" stroke-linecap="round"/>
<path d="M14.5898 5.41675H14.5823" stroke="#515B6F" stroke-width="1.3" stroke-linecap="round" stroke-linejoin="round"/>
</svg>
