<svg width="20" height="20" viewBox="0 0 20 20" fill="none" xmlns="http://www.w3.org/2000/svg">
<path d="M17.4998 9.5835V6.25016C17.4998 5.32969 16.7537 4.5835 15.8332 4.5835H3.33317C2.4127 4.5835 1.6665 5.32969 1.6665 6.25016V15.8335C1.6665 16.754 2.4127 17.5002 3.33317 17.5002H9.58317" stroke="#141414" stroke-width="1.3" stroke-linecap="round" stroke-linejoin="round"/>
<path d="M12.9167 4.58317L12.256 2.2709C12.1538 1.91315 11.8268 1.6665 11.4547 1.6665H7.71192C7.33985 1.6665 7.01287 1.91315 6.91065 2.2709L6.25 4.58317" stroke="#141414" stroke-width="1.3" stroke-linejoin="round"/>
<path d="M16.6806 16.6859L18.3332 18.3332M17.544 14.6053C17.544 12.9823 16.2283 11.6665 14.6053 11.6665C12.9822 11.6665 11.6665 12.9823 11.6665 14.6053C11.6665 16.2283 12.9822 17.5441 14.6053 17.5441C16.2283 17.5441 17.544 16.2283 17.544 14.6053Z" stroke="#141414" stroke-width="1.3" stroke-linecap="round" stroke-linejoin="round"/>
</svg>
