<svg width="24" height="25" viewBox="0 0 24 25" fill="none" xmlns="http://www.w3.org/2000/svg">
<path d="M12 14.5C13.1046 14.5 14 13.6046 14 12.5C14 11.3954 13.1046 10.5 12 10.5C10.8954 10.5 10 11.3954 10 12.5C10 13.6046 10.8954 14.5 12 14.5Z" stroke="#595959" stroke-width="1.5"/>
<path d="M7.5 8.5C6.5 9.5 6 11 6 12.5C6 14 6.5 15.5 7.5 16.5" stroke="#595959" stroke-width="1.5" stroke-linecap="round" stroke-linejoin="round"/>
<path d="M4.5 6.5C3 8 2 10 2 12.5C2 15 3 17 4.5 18.5" stroke="#595959" stroke-width="1.5" stroke-linecap="round" stroke-linejoin="round"/>
<path d="M16.5 16.5C17.5 15.5 18 14 18 12.5C18 11 17.5 9.5 16.5 8.5" stroke="#595959" stroke-width="1.5" stroke-linecap="round" stroke-linejoin="round"/>
<path d="M19.5 18.5C21 17 22 15 22 12.5C22 10 21 8 19.5 6.5" stroke="#595959" stroke-width="1.5" stroke-linecap="round" stroke-linejoin="round"/>
</svg>
