<svg width="24" height="24" viewBox="0 0 24 24" fill="none" xmlns="http://www.w3.org/2000/svg">
<path d="M11.2549 3.25195C11.6679 2.4495 12.8321 2.4495 13.2451 3.25195L15.4512 7.54004C15.5835 7.79716 15.8309 7.97303 16.1133 8.01758L20.9092 8.77441C21.8145 8.91721 22.1578 10.0028 21.5244 10.6318L18.0908 14.041C17.9121 14.2186 17.8166 14.4626 17.8262 14.7129L17.8369 14.8203L18.5938 19.5781C18.7326 20.4511 17.807 21.141 16.9834 20.7256L12.6572 18.543C12.4331 18.4299 12.1734 18.4161 11.9404 18.501L11.8428 18.543L7.5166 20.7256C6.69295 21.141 5.76741 20.4511 5.90625 19.5781L6.66309 14.8193C6.70281 14.5688 6.6349 14.3161 6.48047 14.1211L6.40918 14.041L2.97559 10.6318C2.3422 10.0028 2.68547 8.91721 3.59082 8.77441L8.38672 8.01758C8.66925 7.97301 8.9165 7.79704 9.04883 7.54004L11.2549 3.25195Z" fill="#FD8E1F" stroke="#FD8E1F" stroke-width="1.3"/>
</svg>
