<svg width="20" height="20" viewBox="0 0 20 20" fill="none" xmlns="http://www.w3.org/2000/svg">
<path d="M15.2227 15.5846L14.1668 15.0003V13.556M17.5002 15.0003C17.5002 16.8412 16.0077 18.3337 14.1668 18.3337C12.3259 18.3337 10.8335 16.8412 10.8335 15.0003C10.8335 13.1594 12.3259 11.667 14.1668 11.667C16.0077 11.667 17.5002 13.1594 17.5002 15.0003Z" stroke="#141414" stroke-width="1.3" stroke-linecap="round" stroke-linejoin="round"/>
<path d="M13.75 1.66699V5.00033M6.25 1.66699V5.00033" stroke="#141414" stroke-width="1.3" stroke-linecap="round" stroke-linejoin="round"/>
<path d="M17.5 9.99967V4.99967C17.5 4.0792 16.7538 3.33301 15.8333 3.33301H4.16667C3.24619 3.33301 2.5 4.0792 2.5 4.99967V16.6663C2.5 17.5868 3.24619 18.333 4.16667 18.333H9.16667" stroke="#141414" stroke-width="1.3" stroke-linecap="round" stroke-linejoin="round"/>
<path d="M2.5 8.33301H17.5" stroke="#141414" stroke-width="1.3" stroke-linecap="round" stroke-linejoin="round"/>
</svg>
