<svg width="22" height="21" viewBox="0 0 22 21" fill="none" xmlns="http://www.w3.org/2000/svg">
<path d="M10.1089 2.24809C10.4799 1.52017 11.5199 1.52017 11.8909 2.24809L14.0784 6.5405C14.2236 6.82541 14.4963 7.0237 14.8121 7.074L19.567 7.83127C20.3729 7.95963 20.694 8.9472 20.1177 9.525L16.7137 12.9381C16.4882 13.1642 16.3843 13.4844 16.434 13.7999L17.1842 18.5633C17.3113 19.37 16.4702 19.9806 15.7425 19.61L11.4538 17.4252C11.1686 17.2799 10.8312 17.2799 10.546 17.4252L6.25731 19.61C5.52965 19.9806 4.68851 19.37 4.81557 18.5633L5.56586 13.7999C5.61554 13.4844 5.51159 13.1642 5.28609 12.9381L1.88209 9.525C1.30582 8.9472 1.62695 7.95963 2.43286 7.83127L7.18774 7.074C7.50354 7.0237 7.77624 6.82541 7.92143 6.5405L10.1089 2.24809Z" stroke="#FD8E1F" stroke-width="1.5" stroke-linejoin="round"/>
</svg>
