<svg width="20" height="20" viewBox="0 0 20 20" fill="none" xmlns="http://www.w3.org/2000/svg">
<path d="M3.75 17.5L4.84992 6.50083C4.93512 5.64883 5.65206 5 6.50832 5H13.4917C14.3479 5 15.0649 5.64883 15.1501 6.50083L16.25 17.5L14.1667 16.6667L12.0833 18.3333L10 16.6667L7.91667 18.3333L5.83333 16.6667L3.75 17.5Z" stroke="#141414" stroke-width="1.3" stroke-linecap="round" stroke-linejoin="round"/>
<path d="M9.58333 8.3335H7.5" stroke="#141414" stroke-width="1.3" stroke-linecap="round" stroke-linejoin="round"/>
<path d="M12.0833 11.6665H7.5" stroke="#141414" stroke-width="1.3" stroke-linecap="round" stroke-linejoin="round"/>
<path d="M2.49984 7.9165C1.6665 7.9165 1.6665 6.86674 1.6665 6.24984V3.33317C1.6665 2.4127 2.4127 1.6665 3.33317 1.6665H16.6665C17.587 1.6665 18.3332 2.4127 18.3332 3.33317V6.24984C18.3332 6.86674 18.3332 7.9165 17.4998 7.9165" stroke="#141414" stroke-width="1.3" stroke-linecap="round" stroke-linejoin="round"/>
</svg>
