<svg width="20" height="20" viewBox="0 0 20 20" fill="none" xmlns="http://www.w3.org/2000/svg">
<path d="M15.8332 4.16602L9.99984 1.66602L4.1665 4.16602L7.08317 5.41602V7.08268C7.08317 7.08268 8.0554 6.66602 9.99984 6.66602C11.9443 6.66602 12.9165 7.08268 12.9165 7.08268V5.41602L15.8332 4.16602ZM15.8332 4.16602V7.49935" stroke="#141414" stroke-width="1.3" stroke-linecap="round" stroke-linejoin="round"/>
<path d="M14.0627 18.3327H5.93766C5.18978 18.3327 4.5835 17.7264 4.5835 16.9785C4.5835 14.7348 6.40234 12.916 8.646 12.916H11.3543C13.598 12.916 15.4168 14.7348 15.4168 16.9785C15.4168 17.7264 14.8106 18.3327 14.0627 18.3327Z" stroke="#141414" stroke-width="1.3" stroke-linecap="round" stroke-linejoin="round"/>
<path d="M12.9168 7.08398V7.91732C12.9168 9.52815 11.611 10.834 10.0002 10.834C8.38933 10.834 7.0835 9.52815 7.0835 7.91732V7.08398" stroke="#141414" stroke-width="1.3" stroke-linecap="round" stroke-linejoin="round"/>
</svg>
