<svg width="18" height="18" viewBox="0 0 18 18" fill="none" xmlns="http://www.w3.org/2000/svg">
<path d="M2.25 2.25H14.25C15.0784 2.25 15.75 2.92157 15.75 3.75V10.125C15.75 10.9534 15.0784 11.625 14.25 11.625H7.875" stroke="#141414" stroke-linecap="round" stroke-linejoin="round"/>
<path d="M8.25 5.25H13.5" stroke="#141414" stroke-linecap="round" stroke-linejoin="round"/>
<path d="M5.25 6C5.25 6.82843 4.57843 7.5 3.75 7.5C2.92157 7.5 2.25 6.82843 2.25 6C2.25 5.17157 2.92157 4.5 3.75 4.5C4.57843 4.5 5.25 5.17157 5.25 6Z" stroke="#141414" stroke-linecap="round" stroke-linejoin="round"/>
<path d="M9.375 9.375H5.24261M5.24261 9.375H3.00013C2.58593 9.375 2.25015 9.71077 2.25014 10.1249L2.25 12.75M5.24261 9.375L5.25 12.75M2.25 15.75V12.75M2.25 12.75H5.25M5.25 12.75V15.75" stroke="#141414" stroke-linecap="round" stroke-linejoin="round"/>
</svg>
