<svg width="44" height="44" viewBox="0 0 44 44" fill="none" xmlns="http://www.w3.org/2000/svg">
<rect width="44" height="44" rx="22" fill="#CB7701" fill-opacity="0.1"/>
<path d="M27.8332 16.166L21.9998 13.666L16.1665 16.166L19.0832 17.416V19.0827C19.0832 19.0827 20.0554 18.666 21.9998 18.666C23.9443 18.666 24.9165 19.0827 24.9165 19.0827V17.416L27.8332 16.166ZM27.8332 16.166V19.4993" stroke="#141414" stroke-width="1.3" stroke-linecap="round" stroke-linejoin="round"/>
<path d="M26.0627 30.3327H17.9377C17.1898 30.3327 16.5835 29.7264 16.5835 28.9785C16.5835 26.7348 18.4023 24.916 20.646 24.916H23.3543C25.598 24.916 27.4168 26.7348 27.4168 28.9785C27.4168 29.7264 26.8106 30.3327 26.0627 30.3327Z" stroke="#141414" stroke-width="1.3" stroke-linecap="round" stroke-linejoin="round"/>
<path d="M24.9168 19.084V19.9173C24.9168 21.5282 23.611 22.834 22.0002 22.834C20.3893 22.834 19.0835 21.5282 19.0835 19.9173V19.084" stroke="#141414" stroke-width="1.3" stroke-linecap="round" stroke-linejoin="round"/>
</svg>
