<svg width="24" height="24" viewBox="0 0 24 24" fill="none" xmlns="http://www.w3.org/2000/svg">
<path d="M11.1092 3.74809C11.4802 3.02017 12.5202 3.02017 12.8912 3.74809L15.0787 8.0405C15.2239 8.32541 15.4966 8.5237 15.8124 8.574L20.5673 9.33127C21.3732 9.45963 21.6943 10.4472 21.118 11.025L17.714 14.4381C17.4885 14.6642 17.3846 14.9844 17.4343 15.2999L18.1845 20.0633C18.3116 20.87 17.4705 21.4806 16.7428 21.11L12.4541 18.9252C12.1689 18.7799 11.8315 18.7799 11.5463 18.9252L7.25756 21.11C6.5299 21.4806 5.68876 20.87 5.81582 20.0633L6.56611 15.2999C6.61579 14.9844 6.51184 14.6642 6.28634 14.4381L2.88234 11.025C2.30607 10.4472 2.6272 9.45963 3.43311 9.33127L8.18799 8.574C8.50379 8.5237 8.77649 8.32541 8.92168 8.0405L11.1092 3.74809Z" stroke="#141414" stroke-width="1.5" stroke-linejoin="round"/>
</svg>
