<svg width="18" height="18" viewBox="0 0 18 18" fill="none" xmlns="http://www.w3.org/2000/svg">
<path d="M14.25 3.75L9 1.5L3.75 3.75L6.375 4.875V6.375C6.375 6.375 7.25 6 9 6C10.75 6 11.625 6.375 11.625 6.375V4.875L14.25 3.75ZM14.25 3.75V6.75" stroke="#141414" stroke-linecap="round" stroke-linejoin="round"/>
<path d="M12.6562 16.5H5.34375C4.67066 16.5 4.125 15.9544 4.125 15.2812C4.125 13.262 5.76196 11.625 7.78125 11.625H10.2188C12.238 11.625 13.875 13.262 13.875 15.2812C13.875 15.9544 13.3294 16.5 12.6562 16.5Z" stroke="#141414" stroke-linecap="round" stroke-linejoin="round"/>
<path d="M11.625 6.375V7.125C11.625 8.57475 10.4497 9.75 9 9.75C7.55025 9.75 6.375 8.57475 6.375 7.125V6.375" stroke="#141414" stroke-linecap="round" stroke-linejoin="round"/>
</svg>
