<svg width="24" height="25" viewBox="0 0 24 25" fill="none" xmlns="http://www.w3.org/2000/svg">
<path d="M19 5.5L12 2.5L5 5.5L8.5 7V9C8.5 9 9.66667 8.5 12 8.5C14.3333 8.5 15.5 9 15.5 9V7L19 5.5ZM19 5.5V9.5" stroke="#595959" stroke-width="1.5" stroke-linecap="round" stroke-linejoin="round"/>
<path d="M16.875 22.5H7.125C6.22754 22.5 5.5 21.7725 5.5 20.875C5.5 18.1826 7.68261 16 10.375 16H13.625C16.3174 16 18.5 18.1826 18.5 20.875C18.5 21.7725 17.7725 22.5 16.875 22.5Z" stroke="#595959" stroke-width="1.5" stroke-linecap="round" stroke-linejoin="round"/>
<path d="M15.5 9V10C15.5 11.933 13.933 13.5 12 13.5C10.067 13.5 8.5 11.933 8.5 10V9" stroke="#595959" stroke-width="1.5" stroke-linecap="round" stroke-linejoin="round"/>
</svg>
