<svg width="20" height="21" viewBox="0 0 20 21" fill="none" xmlns="http://www.w3.org/2000/svg">
<path d="M9.99984 18.8327C14.6022 18.8327 18.3332 15.1017 18.3332 10.4993C18.3332 5.89697 14.6022 2.16602 9.99984 2.16602C5.39746 2.16602 1.6665 5.89697 1.6665 10.4993C1.6665 15.1017 5.39746 18.8327 9.99984 18.8327Z" stroke="#141414" stroke-width="1.3"/>
<path d="M10.0063 9.25635C9.31601 9.25635 8.75635 9.81601 8.75635 10.5063C8.75635 11.1967 9.31601 11.7563 10.0063 11.7563C10.6967 11.7563 11.2563 11.1967 11.2563 10.5063C11.2563 9.81601 10.6967 9.25635 10.0063 9.25635ZM10.0063 9.25635V6.33203M12.5121 13.016L10.8883 11.3922" stroke="#141414" stroke-width="1.3" stroke-linecap="round" stroke-linejoin="round"/>
</svg>
