<svg width="150" height="150" viewBox="0 0 150 150" fill="none" xmlns="http://www.w3.org/2000/svg">
<g filter="url(#filter0_d_379_26008)">
<circle cx="75" cy="65" r="35" fill="#D8587E"/>
</g>
<path fill-rule="evenodd" clip-rule="evenodd" d="M74.739 55C80.109 55 84.477 59.368 84.477 64.738C84.477 67.2715 83.5047 69.5823 81.9136 71.3165L85.0444 74.4407C85.3374 74.7337 85.3384 75.2077 85.0454 75.5007C84.8994 75.6487 84.7064 75.7217 84.5144 75.7217C84.3234 75.7217 84.1314 75.6487 83.9844 75.5027L80.8159 72.343C79.1491 73.6778 77.0357 74.477 74.739 74.477C69.369 74.477 65 70.108 65 64.738C65 59.368 69.369 55 74.739 55ZM74.739 56.5C70.196 56.5 66.5 60.195 66.5 64.738C66.5 69.281 70.196 72.977 74.739 72.977C79.281 72.977 82.977 69.281 82.977 64.738C82.977 60.195 79.281 56.5 74.739 56.5Z" fill="white"/>
<defs>
<filter id="filter0_d_379_26008" x="0" y="0" width="150" height="150" filterUnits="userSpaceOnUse" color-interpolation-filters="sRGB">
<feFlood flood-opacity="0" result="BackgroundImageFix"/>
<feColorMatrix in="SourceAlpha" type="matrix" values="0 0 0 0 0 0 0 0 0 0 0 0 0 0 0 0 0 0 127 0" result="hardAlpha"/>
<feOffset dy="10"/>
<feGaussianBlur stdDeviation="20"/>
<feColorMatrix type="matrix" values="0 0 0 0 0.212 0 0 0 0 0.238778 0 0 0 0 0.533333 0 0 0 0.06 0"/>
<feBlend mode="normal" in2="BackgroundImageFix" result="effect1_dropShadow_379_26008"/>
<feBlend mode="normal" in="SourceGraphic" in2="effect1_dropShadow_379_26008" result="shape"/>
</filter>
</defs>
</svg>
