<svg width="135" height="131" viewBox="0 0 135 131" fill="none" xmlns="http://www.w3.org/2000/svg">
<g clip-path="url(#clip0_344_28187)">
<path d="M94.7407 130.558C94.5994 130.707 94.4526 130.853 94.304 131H77.3514C77.212 130.857 77.0746 130.71 76.937 130.558C76.9315 130.552 76.9258 130.545 76.9203 130.539C75.0786 128.499 73.919 125.534 73.196 122.408C73.1496 122.218 73.1087 122.027 73.0678 121.834C72.8782 120.955 72.724 120.067 72.5977 119.186C72.5753 119.034 72.553 118.881 72.5344 118.729C72.3634 117.464 72.2482 116.219 72.1739 115.051C72.1646 114.9 72.1553 114.753 72.146 114.607C72.0099 112.28 72.0086 109.948 72.1423 107.621C72.1423 107.621 72.1646 107.621 72.2074 107.623C72.3319 107.629 72.6311 107.642 73.0715 107.668C74.285 107.742 76.5747 107.928 79.2675 108.366C79.4143 108.39 79.563 108.416 79.7117 108.442C81.9893 108.818 84.2361 109.362 86.4336 110.07C86.5711 110.116 86.7068 110.163 86.8443 110.209L86.8462 110.218L88.5317 118.673L89.2305 111.147C89.7862 111.398 90.327 111.666 90.8455 111.952C90.9904 112.032 91.1317 112.111 91.2711 112.193C92.4564 112.865 93.5324 113.713 94.462 114.709C99.9908 120.834 98.8069 126.309 94.7407 130.558Z" fill="#F2F2F2"/>
<path d="M87.6576 119.836L87.9515 120.162C91.3486 123.963 93.376 127.491 94.0006 130.699C94.0105 130.746 94.0173 130.793 94.0272 130.839L93.8099 130.88L93.6004 130.917C92.963 127.419 90.5896 123.803 87.6275 120.487C87.533 120.379 87.4371 120.269 87.3381 120.163C86.0717 118.77 84.7102 117.434 83.3335 116.185C83.2278 116.087 83.1191 115.99 83.0103 115.892C81.1847 114.252 79.3479 112.769 77.7099 111.519C77.5946 111.43 77.4776 111.343 77.362 111.257C74.5809 109.152 72.4229 107.757 71.942 107.451C71.884 107.413 71.8512 107.392 71.8438 107.387L71.9576 107.206L71.9577 107.203L72.0732 107.02C72.0806 107.025 72.191 107.092 72.3903 107.222C73.139 107.704 75.1512 109.032 77.6545 110.92C77.7669 111.005 77.8839 111.093 77.9993 111.182C79.3296 112.195 80.7846 113.356 82.254 114.627C82.6236 114.945 82.984 115.263 83.3352 115.581C83.4456 115.677 83.5544 115.775 83.6601 115.873C85.1485 117.223 86.481 118.544 87.6576 119.836Z" fill="white"/>
<path d="M79.4278 108.006C79.3776 108.127 79.3237 108.247 79.2679 108.366C78.8434 109.285 78.3005 110.143 77.6529 110.921C77.5582 111.032 77.4616 111.146 77.3612 111.257C77.0899 111.556 76.8012 111.845 76.4951 112.125C75.243 113.258 73.7591 114.105 72.1465 114.607C72.0944 114.623 72.0443 114.64 71.9922 114.655C72.0014 114.802 72.0108 114.947 72.02 115.097C72.0721 115.082 72.1223 115.068 72.1743 115.051C73.8854 114.535 75.4603 113.645 76.7851 112.446C77.109 112.153 77.4173 111.844 77.7087 111.519C77.809 111.409 77.9057 111.296 77.9987 111.183C78.6911 110.351 79.2675 109.429 79.7121 108.442C79.7642 108.324 79.8162 108.205 79.8663 108.084C79.7177 108.058 79.5709 108.032 79.4278 108.006Z" fill="white"/>
<path d="M86.5116 109.74C86.4893 109.85 86.4633 109.959 86.4354 110.069C85.9316 112.158 84.8586 114.066 83.3356 115.581C83.2296 115.687 83.1218 115.791 83.0104 115.892C82.9787 115.923 82.9434 115.957 82.9101 115.986C81.5246 117.237 79.8603 118.138 78.0558 118.615C76.2513 119.092 74.3589 119.131 72.5363 118.728C72.4935 118.721 72.449 118.71 72.4062 118.701C72.4285 118.853 72.449 119.007 72.4731 119.159C72.5159 119.169 72.5568 119.178 72.5995 119.185C74.4684 119.572 76.402 119.513 78.2437 119.013C80.0854 118.513 81.7833 117.586 83.1999 116.308C83.2445 116.267 83.291 116.228 83.3337 116.185C83.4453 116.081 83.5531 115.977 83.6609 115.873C85.2194 114.314 86.3216 112.358 86.848 110.218C86.8759 110.106 86.9019 109.995 86.9261 109.883C86.7885 109.835 86.651 109.787 86.5116 109.74Z" fill="white"/>
<path d="M90.8464 111.637C90.8482 111.741 90.8482 111.847 90.8464 111.951C90.8154 114.887 89.6764 117.703 87.6574 119.835C87.5533 119.947 87.4455 120.055 87.3378 120.162C87.2206 120.276 87.1035 120.389 86.9828 120.497C85.1132 122.181 82.7516 123.22 80.2463 123.461C77.7411 123.701 75.2248 123.131 73.0687 121.833C73.0318 121.813 72.9958 121.792 72.9609 121.769C73.0056 121.966 73.0501 122.16 73.0985 122.353C73.1319 122.371 73.1635 122.39 73.197 122.407C75.4155 123.643 77.9654 124.155 80.4894 123.871C83.0135 123.586 85.3853 122.519 87.2727 120.82C87.3935 120.71 87.5143 120.601 87.6276 120.486C87.7391 120.38 87.845 120.272 87.951 120.16C89.9985 118.002 91.1805 115.166 91.272 112.192C91.2757 112.092 91.2776 111.992 91.2776 111.891C91.1364 111.804 90.9914 111.72 90.8464 111.637Z" fill="white"/>
<path d="M53.2758 30.7618H20.6074C20.3356 30.7615 20.0749 30.6534 19.8827 30.4613C19.6905 30.2691 19.5823 30.0085 19.582 29.7368V4.93923C19.5823 4.66745 19.6905 4.40688 19.8827 4.21469C20.0749 4.0225 20.3356 3.91439 20.6074 3.91406H60.7062C60.9781 3.91439 61.2388 4.0225 61.431 4.21469C61.6232 4.40688 61.7313 4.66745 61.7316 4.93923V22.3087C61.7291 24.5498 60.8374 26.6984 59.2522 28.2832C57.667 29.8679 55.5177 30.7593 53.2758 30.7618Z" fill="white"/>
<path d="M53.275 30.8539H20.6066C20.3101 30.8535 20.0259 30.7356 19.8162 30.526C19.6066 30.3164 19.4886 30.0323 19.4883 29.7359V4.93837C19.4886 4.64196 19.6065 4.35779 19.8162 4.14818C20.0258 3.93858 20.3101 3.82067 20.6066 3.82031H60.7054C61.0019 3.82065 61.2862 3.93856 61.4958 4.14817C61.7055 4.35777 61.8234 4.64196 61.8237 4.93837V22.3078C61.8212 24.5736 60.9197 26.7458 59.317 28.3479C57.7144 29.9501 55.5415 30.8513 53.275 30.8539ZM20.6066 4.19188C20.4086 4.19212 20.2189 4.27085 20.0789 4.4108C19.9389 4.55074 19.8602 4.74047 19.86 4.93837V29.7359C19.8602 29.9338 19.9389 30.1235 20.0789 30.2634C20.2189 30.4034 20.4086 30.4821 20.6066 30.4823H53.275C55.4429 30.4798 57.5214 29.6178 59.0543 28.0853C60.5873 26.5529 61.4496 24.4751 61.452 22.3078V4.93837C61.4518 4.74047 61.3731 4.55074 61.2331 4.4108C61.0932 4.27085 60.9034 4.19212 60.7054 4.19188H20.6066Z" fill="#797979"/>
<path d="M52.7804 12.2894H28.5346C28.312 12.2894 28.0985 12.201 27.9411 12.0436C27.7837 11.8863 27.6953 11.6729 27.6953 11.4503C27.6953 11.2278 27.7837 11.0144 27.9411 10.8571C28.0985 10.6997 28.312 10.6113 28.5346 10.6113H52.7804C53.0027 10.6117 53.2159 10.7002 53.373 10.8575C53.5302 11.0148 53.6184 11.228 53.6184 11.4503C53.6184 11.6726 53.5302 11.8859 53.373 12.0432C53.2159 12.2005 53.0027 12.289 52.7804 12.2894Z" fill="#797979"/>
<path d="M52.7804 18.0687H28.5346C28.312 18.0687 28.0985 17.9803 27.9411 17.8229C27.7837 17.6656 27.6953 17.4522 27.6953 17.2296C27.6953 17.0071 27.7837 16.7937 27.9411 16.6364C28.0985 16.479 28.312 16.3906 28.5346 16.3906H52.7804C53.003 16.3906 53.2164 16.479 53.3738 16.6364C53.5312 16.7937 53.6196 17.0071 53.6196 17.2296C53.6196 17.4522 53.5312 17.6656 53.3738 17.8229C53.2164 17.9803 53.003 18.0687 52.7804 18.0687Z" fill="#797979"/>
<path d="M52.7804 24.014H28.5346C28.312 24.014 28.0985 23.9256 27.9411 23.7682C27.7837 23.6109 27.6953 23.3975 27.6953 23.175C27.6953 22.9524 27.7837 22.739 27.9411 22.5817C28.0985 22.4243 28.312 22.3359 28.5346 22.3359H52.7804C53.003 22.3359 53.2164 22.4243 53.3738 22.5817C53.5312 22.739 53.6196 22.9524 53.6196 23.175C53.6196 23.3975 53.5312 23.6109 53.3738 23.7682C53.2164 23.9256 53.003 24.014 52.7804 24.014Z" fill="#797979"/>
<path d="M60.4025 10.0206C63.1705 10.0206 65.4144 7.77744 65.4144 5.01031C65.4144 2.24319 63.1705 0 60.4025 0C57.6345 0 55.3906 2.24319 55.3906 5.01031C55.3906 7.77744 57.6345 10.0206 60.4025 10.0206Z" fill="#019ACB"/>
<path d="M59.7216 7.61771C59.6351 7.61771 59.5497 7.59756 59.4723 7.55886C59.3949 7.52015 59.3276 7.46396 59.2757 7.39473L57.9084 5.57218C57.8644 5.51363 57.8325 5.447 57.8143 5.3761C57.7961 5.30521 57.7921 5.23142 57.8025 5.15897C57.8128 5.08652 57.8374 5.01682 57.8747 4.95384C57.912 4.89087 57.9613 4.83585 58.0199 4.79194C58.0785 4.74803 58.1451 4.71608 58.216 4.69792C58.287 4.67976 58.3608 4.67574 58.4332 4.68609C58.5057 4.69645 58.5754 4.72097 58.6384 4.75826C58.7014 4.79555 58.7564 4.84488 58.8004 4.90343L59.6949 6.0957L61.9924 2.65053C62.0745 2.52754 62.202 2.44216 62.347 2.41317C62.492 2.38418 62.6426 2.41396 62.7656 2.49595C62.8886 2.57794 62.974 2.70544 63.003 2.85038C63.032 2.99533 63.0022 3.14585 62.9202 3.26884L60.1856 7.36951C60.1361 7.44367 60.0696 7.5049 59.9915 7.54805C59.9135 7.59121 59.8263 7.61504 59.7372 7.61753C59.732 7.61763 59.7268 7.61771 59.7216 7.61771Z" fill="white"/>
<path d="M41.218 52.299H8.54957C6.30772 52.2965 4.15842 51.4051 2.5732 49.8204C0.98797 48.2356 0.0962792 46.087 0.09375 43.8459V26.4763C0.0940692 26.2045 0.202215 25.944 0.394462 25.7518C0.586709 25.5596 0.847361 25.4515 1.11924 25.4512H41.218C41.4898 25.4515 41.7505 25.5596 41.9427 25.7518C42.135 25.944 42.2431 26.2045 42.2435 26.4763V51.2739C42.2431 51.5457 42.135 51.8062 41.9427 51.9984C41.7505 52.1906 41.4898 52.2987 41.218 52.299Z" fill="white"/>
<path d="M41.2171 52.393H8.54874C6.28227 52.3904 4.10936 51.4892 2.50671 49.8871C0.904073 48.285 0.00257692 46.1127 0 43.847V26.4774C0.00033595 26.181 0.118277 25.8968 0.327946 25.6872C0.537616 25.4776 0.821893 25.3597 1.11841 25.3594H41.2171C41.5136 25.3597 41.7979 25.4776 42.0076 25.6872C42.2173 25.8968 42.3352 26.181 42.3355 26.4774V51.275C42.3352 51.5714 42.2173 51.8556 42.0076 52.0652C41.7979 52.2748 41.5136 52.3927 41.2171 52.393ZM1.11841 25.7309C0.92044 25.7312 0.730646 25.8099 0.590659 25.9498C0.450673 26.0898 0.371923 26.2795 0.371684 26.4774V43.847C0.374133 46.0142 1.23643 48.092 2.76939 49.6245C4.30236 51.157 6.3808 52.019 8.54874 52.0215H41.2171C41.4151 52.0212 41.6049 51.9425 41.7449 51.8026C41.8849 51.6626 41.9636 51.4729 41.9639 51.275V26.4774C41.9636 26.2795 41.8849 26.0898 41.7449 25.9498C41.6049 25.8099 41.4151 25.7312 41.2171 25.7309H1.11841Z" fill="#797979"/>
<path d="M33.2921 33.8265H9.04631C8.82372 33.8265 8.61024 33.7381 8.45285 33.5807C8.29545 33.4234 8.20703 33.21 8.20703 32.9875C8.20703 32.7649 8.29545 32.5515 8.45285 32.3942C8.61024 32.2368 8.82372 32.1484 9.04631 32.1484H33.2921C33.5147 32.1484 33.7282 32.2368 33.8855 32.3942C34.0429 32.5515 34.1314 32.7649 34.1314 32.9875C34.1314 33.21 34.0429 33.4234 33.8855 33.5807C33.7282 33.7381 33.5147 33.8265 33.2921 33.8265Z" fill="#797979"/>
<path d="M33.2921 39.6058H9.04631C8.82372 39.6058 8.61024 39.5174 8.45285 39.36C8.29545 39.2027 8.20703 38.9893 8.20703 38.7667C8.20703 38.5442 8.29545 38.3308 8.45285 38.1735C8.61024 38.0161 8.82372 37.9277 9.04631 37.9277H33.2921C33.5147 37.9277 33.7282 38.0161 33.8856 38.1735C34.0429 38.3308 34.1314 38.5442 34.1314 38.7667C34.1314 38.9893 34.0429 39.2027 33.8856 39.36C33.7282 39.5174 33.5147 39.6058 33.2921 39.6058Z" fill="#797979"/>
<path d="M33.2921 45.5511H9.04631C8.82372 45.5511 8.61024 45.4627 8.45285 45.3053C8.29545 45.148 8.20703 44.9346 8.20703 44.7121C8.20703 44.4895 8.29545 44.2761 8.45285 44.1188C8.61024 43.9614 8.82372 43.873 9.04631 43.873H33.2921C33.5147 43.873 33.7282 43.9614 33.8856 44.1188C34.0429 44.2761 34.1314 44.4895 34.1314 44.7121C34.1314 44.9346 34.0429 45.148 33.8856 45.3053C33.7282 45.4627 33.5147 45.5511 33.2921 45.5511Z" fill="#797979"/>
<path d="M41.2619 31.757C44.0299 31.757 46.2738 29.5138 46.2738 26.7466C46.2738 23.9795 44.0299 21.7363 41.2619 21.7363C38.4939 21.7363 36.25 23.9795 36.25 26.7466C36.25 29.5138 38.4939 31.757 41.2619 31.757Z" fill="#019ACB"/>
<path d="M40.5771 29.354C40.4906 29.354 40.4052 29.3339 40.3278 29.2952C40.2504 29.2565 40.1831 29.2003 40.1312 29.1311L38.7638 27.3085C38.7199 27.25 38.688 27.1833 38.6698 27.1124C38.6516 27.0415 38.6476 26.9678 38.6579 26.8953C38.6683 26.8228 38.6928 26.7531 38.7301 26.6902C38.7674 26.6272 38.8168 26.5722 38.8754 26.5283C38.9339 26.4844 39.0006 26.4524 39.0715 26.4343C39.1424 26.4161 39.2162 26.4121 39.2887 26.4224C39.3612 26.4328 39.4309 26.4573 39.4939 26.4946C39.5569 26.5319 39.6119 26.5812 39.6558 26.6398L40.5504 27.832L42.8479 24.3869C42.9299 24.2639 43.0575 24.1785 43.2025 24.1495C43.3474 24.1205 43.498 24.1503 43.621 24.2323C43.7441 24.3143 43.8295 24.4418 43.8585 24.5867C43.8875 24.7317 43.8577 24.8822 43.7757 25.0052L41.041 29.1058C40.9916 29.18 40.925 29.2412 40.847 29.2844C40.769 29.3275 40.6818 29.3514 40.5926 29.3539C40.5875 29.354 40.5823 29.354 40.5771 29.354Z" fill="white"/>
<path d="M81.9202 75.4142H36.2097C33.9679 75.4117 31.8186 74.5203 30.2334 72.9356C28.6481 71.3508 27.7564 69.2022 27.7539 66.9611V41.4132C27.7543 41.0629 27.8937 40.727 28.1415 40.4793C28.3893 40.2316 28.7253 40.0922 29.0758 40.0918H81.9202C82.2706 40.0922 82.6066 40.2316 82.8544 40.4793C83.1022 40.727 83.2416 41.0629 83.242 41.4132V74.0927C83.2416 74.443 83.1022 74.7789 82.8544 75.0267C82.6066 75.2744 82.2706 75.4138 81.9202 75.4142Z" fill="white"/>
<path d="M81.9194 75.5063H36.2089C33.9424 75.5037 31.7695 74.6025 30.1669 73.0003C28.5642 71.3982 27.6627 69.226 27.6602 66.9602V41.4124C27.6606 41.0374 27.8098 40.6779 28.075 40.4128C28.3402 40.1476 28.6998 39.9985 29.0749 39.998H81.9194C82.2944 39.9985 82.654 40.1476 82.9192 40.4128C83.1845 40.6779 83.3336 41.0374 83.3341 41.4124V74.0918C83.3337 74.4668 83.1845 74.8263 82.9193 75.0915C82.6541 75.3567 82.2945 75.5058 81.9194 75.5063ZM29.0749 40.3696C28.7984 40.3699 28.5333 40.4799 28.3377 40.6754C28.1422 40.8709 28.0322 41.1359 28.0318 41.4124V66.9602C28.0343 69.1275 28.8966 71.2053 30.4295 72.7377C31.9625 74.2702 34.041 75.1322 36.2089 75.1347H81.9194C82.1959 75.1343 82.461 75.0244 82.6566 74.8289C82.8521 74.6334 82.9621 74.3683 82.9624 74.0918V41.4124C82.9621 41.1359 82.8521 40.8709 82.6566 40.6754C82.461 40.4799 82.1959 40.3699 81.9194 40.3696H29.0749Z" fill="#797979"/>
<path d="M71.474 51.0981H39.5215C39.3762 51.0983 39.2322 51.0698 39.0978 51.0144C38.9635 50.9589 38.8414 50.8775 38.7385 50.7748C38.6357 50.6721 38.5541 50.5501 38.4984 50.4159C38.4427 50.2816 38.4141 50.1377 38.4141 49.9924C38.4141 49.8471 38.4427 49.7032 38.4984 49.569C38.5541 49.4347 38.6357 49.3128 38.7385 49.2101C38.8414 49.1074 38.9635 49.026 39.0978 48.9705C39.2322 48.915 39.3762 48.8865 39.5215 48.8867H71.474C71.6194 48.8865 71.7633 48.915 71.8977 48.9705C72.0321 49.026 72.1541 49.1074 72.257 49.2101C72.3599 49.3128 72.4415 49.4347 72.4971 49.569C72.5528 49.7032 72.5815 49.8471 72.5815 49.9924C72.5815 50.1377 72.5528 50.2816 72.4971 50.4159C72.4415 50.5501 72.3599 50.6721 72.257 50.7748C72.1541 50.8775 72.0321 50.9589 71.8977 51.0144C71.7633 51.0698 71.6194 51.0983 71.474 51.0981Z" fill="#797979"/>
<path d="M71.474 58.7153H39.5215C39.3762 58.7155 39.2322 58.687 39.0978 58.6315C38.9635 58.5761 38.8414 58.4947 38.7385 58.392C38.6357 58.2893 38.5541 58.1673 38.4984 58.0331C38.4427 57.8988 38.4141 57.7549 38.4141 57.6096C38.4141 57.4643 38.4427 57.3204 38.4984 57.1861C38.5541 57.0519 38.6357 56.9299 38.7385 56.8272C38.8414 56.7246 38.9635 56.6431 39.0978 56.5877C39.2322 56.5322 39.3762 56.5037 39.5215 56.5039H71.474C71.7673 56.5039 72.0487 56.6204 72.2561 56.8278C72.4635 57.0351 72.58 57.3164 72.58 57.6096C72.58 57.9029 72.4635 58.1841 72.2561 58.3915C72.0487 58.5988 71.7673 58.7153 71.474 58.7153Z" fill="#797979"/>
<path d="M71.4765 66.5493H39.524C39.2307 66.5493 38.9493 66.4328 38.7419 66.2254C38.5345 66.0181 38.418 65.7368 38.418 65.4436C38.418 65.1503 38.5345 64.8691 38.7419 64.6617C38.9493 64.4544 39.2307 64.3379 39.524 64.3379H71.4765C71.6218 64.3377 71.7658 64.3662 71.9002 64.4216C72.0345 64.4771 72.1566 64.5585 72.2595 64.6612C72.3623 64.7639 72.4439 64.8859 72.4996 65.0201C72.5553 65.1544 72.5839 65.2983 72.5839 65.4436C72.5839 65.5889 72.5553 65.7328 72.4996 65.8671C72.4439 66.0013 72.3623 66.1233 72.2595 66.2259C72.1566 66.3286 72.0345 66.4101 71.9002 66.4655C71.7658 66.521 71.6218 66.5495 71.4765 66.5493Z" fill="#797979"/>
<path d="M82.0866 48.4329C85.5906 48.4329 88.4311 45.5933 88.4311 42.0905C88.4311 38.5877 85.5906 35.748 82.0866 35.748C78.5827 35.748 75.7422 38.5877 75.7422 42.0905C75.7422 45.5933 78.5827 48.4329 82.0866 48.4329Z" fill="#019ACB"/>
<path d="M81.2217 45.3923C81.1121 45.3923 81.0041 45.3668 80.9061 45.3178C80.8081 45.2688 80.7229 45.1977 80.6571 45.11L78.9263 42.8029C78.8707 42.7288 78.8302 42.6444 78.8072 42.5547C78.7842 42.4649 78.7791 42.3715 78.7923 42.2798C78.8054 42.1881 78.8364 42.0999 78.8836 42.0202C78.9309 41.9404 78.9933 41.8708 79.0675 41.8152C79.1416 41.7596 79.226 41.7192 79.3157 41.6962C79.4055 41.6732 79.499 41.6681 79.5907 41.6812C79.6824 41.6943 79.7707 41.7254 79.8505 41.7726C79.9302 41.8198 79.9999 41.8822 80.0555 41.9563L81.1878 43.4656L84.0962 39.1044C84.2002 38.949 84.3616 38.8412 84.545 38.8046C84.7284 38.7681 84.9188 38.8058 85.0744 38.9095C85.23 39.0132 85.3381 39.1744 85.3749 39.3577C85.4117 39.541 85.3742 39.7315 85.2707 39.8871L81.8089 45.0781C81.7463 45.172 81.6621 45.2495 81.5633 45.3041C81.4646 45.3587 81.3541 45.3889 81.2413 45.392C81.2348 45.3922 81.2282 45.3923 81.2217 45.3923Z" fill="white"/>
<path d="M98.5221 125.936L95.941 126.799L91.3828 117.256L95.1926 115.982L98.5221 125.936Z" fill="#FFB6B6"/>
<path d="M100.017 128.217L91.6938 130.442L91.6586 130.337C91.3692 129.472 91.4341 129.103 91.8414 128.287C92.0406 127.885 92.3175 127.526 92.6562 127.232C92.9949 126.938 93.3886 126.714 93.8146 126.573L93.8148 126.573L94.9493 124.911L98.1716 125.116L98.8982 124.873L100.017 128.217Z" fill="#2F2E41"/>
<path d="M104.899 128.362H102.178L100.883 117.867L104.9 117.867L104.899 128.362Z" fill="#FFB6B6"/>
<path d="M105.596 130.442L96.8203 130.442V130.331C96.8204 129.419 97.1757 129.119 97.821 128.474C98.1374 128.156 98.5138 127.904 98.9284 127.732C99.343 127.56 99.7875 127.472 100.236 127.474H100.236L101.84 126.258L104.83 127.474L105.597 127.474L105.596 130.442Z" fill="#2F2E41"/>
<path d="M84.1846 44.2749C84.2406 44.56 84.3585 44.8293 84.53 45.0639C84.7014 45.2984 84.9222 45.4926 85.1768 45.6327C85.4314 45.7727 85.7136 45.8553 86.0036 45.8745C86.2935 45.8937 86.5842 45.8492 86.8551 45.7439L89.9972 49.0234L92.4565 47.6006L87.9541 43.0317C87.7471 42.5885 87.3847 42.2366 86.9355 42.0426C86.4863 41.8487 85.9816 41.8263 85.517 41.9795C85.0523 42.1327 84.6601 42.4511 84.4145 42.8741C84.1689 43.2972 84.0871 43.7956 84.1846 44.2749Z" fill="#FFB6B6"/>
<path d="M104.522 60.7641L105.938 59.299L97.7467 51.7147L89.5022 44.3555L87.2188 47.581L95.8584 55.643L104.522 60.7641Z" fill="#E4E4E4"/>
<path d="M99.4889 110.537C99.4889 108.696 99.5254 107.382 99.5547 106.327C99.6404 103.239 99.6634 102.408 98.4812 97.09L98.1775 95.7242L96.387 101.094C95.8151 102.807 95.5229 104.601 95.5215 106.407L98.2823 122.966H92.6397L88.5071 105.064L88.5052 99.5877C88.141 99.2111 87.9375 98.7077 87.9375 98.1839C87.9375 97.6601 88.141 97.1568 88.5052 96.7801L89.8781 88.5761L91.2678 77.5195H106.49C106.49 77.5195 109.176 83.086 106.506 88.6076L106.506 110.544L105.127 125.711H100.869L99.4889 110.537Z" fill="#2F2E41"/>
<path d="M105.558 78.857L91.32 77.6709L91.2461 77.6648L92.3823 57.2186C92.4491 55.9331 92.9004 54.6971 93.6776 53.6708C94.4549 52.6445 95.5224 51.875 96.742 51.4619V50.0311C96.7424 49.6769 96.8833 49.3374 97.1338 49.087C97.3843 48.8366 97.7239 48.6957 98.0782 48.6953H100.158C100.407 48.6945 100.65 48.7632 100.862 48.8937C101.073 49.0242 101.243 49.2113 101.354 49.4337L102.371 51.4676L106.218 54.544C108.117 56.0634 106.588 71.2973 106.506 72.1011L107.436 76.7514C107.488 77.0072 107.481 77.2712 107.418 77.5243C107.355 77.7775 107.237 78.0135 107.072 78.2154C106.906 78.4174 106.699 78.5802 106.463 78.6923C106.227 78.8043 105.97 78.8628 105.709 78.8634C105.659 78.8633 105.609 78.8611 105.558 78.857Z" fill="#E4E4E4"/>
<path d="M90.4798 84.2553C90.7048 84.0715 90.8869 83.8407 91.0131 83.579C91.1393 83.3173 91.2065 83.0311 91.2101 82.7406C91.2137 82.4501 91.1535 82.1623 91.0338 81.8976C90.9142 81.6329 90.7379 81.3976 90.5174 81.2084L91.93 76.8924L89.5158 75.3945L87.6065 81.5175C87.313 81.9088 87.1733 82.3942 87.2139 82.8817C87.2545 83.3691 87.4725 83.8247 87.8267 84.1622C88.1809 84.4996 88.6466 84.6955 89.1355 84.7127C89.6245 84.7298 90.1028 84.5671 90.4798 84.2553Z" fill="#FFB6B6"/>
<path d="M95.4456 54.9149L93.4855 54.2617L90.6544 66.8891L88.0469 79.447L91.9687 80.0238L95.01 66.6713L95.4456 54.9149Z" fill="#E4E4E4"/>
<path d="M97.5863 47.3885C100.169 47.3885 102.263 45.2956 102.263 42.7138C102.263 40.132 100.169 38.0391 97.5863 38.0391C95.0038 38.0391 92.9102 40.132 92.9102 42.7138C92.9102 45.2956 95.0038 47.3885 97.5863 47.3885Z" fill="#FFB6B6"/>
<path d="M91.2959 40.4255C91.339 39.9824 91.466 39.5516 91.6701 39.156C91.8888 39.6312 92.5706 39.7137 93.0373 39.4772C93.504 39.2407 93.8168 38.7915 94.1502 38.3884C95.0303 37.325 96.2406 36.4623 97.6122 36.3052C98.9839 36.1481 100.496 36.8403 101.014 38.1195C101.247 37.7967 101.743 37.7608 102.094 37.9484C102.433 38.1622 102.698 38.4755 102.851 38.8455C103.197 39.5536 103.392 40.3253 103.424 41.1123C103.457 41.8993 103.327 42.6846 103.042 43.4189C102.464 44.88 101.038 46.8486 99.5661 47.4001C98.6727 47.7349 97.7703 47.3064 96.8201 47.4001C96.8699 46.3635 97.0709 45.0844 97.1207 44.0477C97.1479 43.48 97.1519 42.8449 96.764 42.4293C96.6451 42.3164 96.5027 42.231 96.347 42.1791C96.1914 42.1273 96.0262 42.1103 95.8633 42.1293C95.7003 42.1483 95.5435 42.2029 95.404 42.2892C95.2645 42.3755 95.1456 42.4914 95.0559 42.6287C95.0078 42.3063 94.899 41.9961 94.735 41.7144C94.6509 41.5747 94.5295 41.4613 94.3843 41.387C94.2392 41.3127 94.0762 41.2804 93.9137 41.2938C93.5169 41.3588 93.2719 41.7659 92.9078 41.9364C92.701 42.0192 92.4738 42.037 92.2567 41.9872C92.0396 41.9374 91.8428 41.8225 91.6929 41.6578C91.5471 41.4897 91.4368 41.2939 91.3686 41.0821C91.3004 40.8704 91.2757 40.647 91.2959 40.4255Z" fill="#2F2E41"/>
<path opacity="0.1" d="M98.191 66.6152L92.6992 77.5954H96.8182L98.191 66.6152Z" fill="black"/>
<path d="M134.999 130.78C134.999 130.809 134.993 130.838 134.982 130.864C134.971 130.891 134.955 130.916 134.934 130.936C134.914 130.957 134.889 130.973 134.862 130.984C134.835 130.995 134.807 131.001 134.778 131.001H29.9087C29.85 131.001 29.7937 130.977 29.7523 130.936C29.7108 130.895 29.6875 130.838 29.6875 130.78C29.6875 130.721 29.7108 130.665 29.7523 130.623C29.7937 130.582 29.85 130.559 29.9087 130.559H134.778C134.807 130.559 134.835 130.564 134.862 130.575C134.889 130.586 134.914 130.603 134.934 130.623C134.955 130.644 134.971 130.668 134.982 130.695C134.993 130.722 134.999 130.751 134.999 130.78Z" fill="#CACACA"/>
</g>
<defs>
<clipPath id="clip0_344_28187">
<rect width="135" height="131" fill="white"/>
</clipPath>
</defs>
</svg>
