<svg width="158" height="117" viewBox="0 0 158 117" fill="none" xmlns="http://www.w3.org/2000/svg">
<g clip-path="url(#clip0_344_28132)">
<path d="M112.148 85.8131H27.0627C26.3045 85.8122 25.5777 85.5101 25.0416 84.9731C24.5056 84.4361 24.204 83.708 24.2031 82.9486V13.548C24.204 12.7886 24.5056 12.0605 25.0416 11.5235C25.5777 10.9865 26.3045 10.6845 27.0627 10.6836H112.148C112.906 10.6845 113.633 10.9865 114.169 11.5235C114.705 12.0605 115.006 12.7886 115.007 13.548V82.9486C115.006 83.708 114.705 84.4361 114.169 84.9731C113.633 85.5101 112.906 85.8122 112.148 85.8131Z" fill="#B1B1B1"/>
<path d="M28.9927 12.7227C28.2624 12.7235 27.5623 13.0145 27.0459 13.5318C26.5296 14.0491 26.2391 14.7504 26.2383 15.4819V81.0168C26.2391 81.7483 26.5296 82.4496 27.046 82.9669C27.5624 83.4841 28.2625 83.775 28.9927 83.7759H87.2302C94.0556 83.7681 100.599 81.0487 105.425 76.2141C110.252 71.3795 112.967 64.8246 112.974 57.9875V15.4819C112.974 14.7504 112.683 14.0491 112.167 13.5318C111.65 13.0145 110.95 12.7235 110.22 12.7227L28.9927 12.7227Z" fill="white"/>
<path d="M96.6338 42.1957H81.2058C80.8841 42.1954 80.5756 42.0672 80.348 41.8393C80.1205 41.6114 79.9925 41.3023 79.9922 40.98V33.288C79.9925 32.9657 80.1205 32.6567 80.348 32.4287C80.5756 32.2008 80.8841 32.0726 81.2058 32.0723H96.6338C96.9556 32.0726 97.264 32.2008 97.4916 32.4287C97.7191 32.6567 97.8471 32.9657 97.8474 33.288C98.8021 36.01 98.9377 38.5965 97.8474 40.98C97.8471 41.3023 97.7191 41.6114 97.4916 41.8393C97.264 42.0672 96.9556 42.1954 96.6338 42.1957Z" fill="#B1B1B1"/>
<path d="M94.8067 41.4527H81.6991C81.4257 41.4524 81.1636 41.3435 80.9703 41.1499C80.777 40.9562 80.6683 40.6937 80.668 40.4198V33.8847C80.6683 33.6109 80.777 33.3483 80.9703 33.1547C81.1636 32.961 81.4257 32.8521 81.6991 32.8518H94.8067C95.0801 32.8521 95.3422 32.961 95.5355 33.1547C95.7288 33.3483 95.8375 33.6109 95.8378 33.8847C96.7224 36.2121 96.8648 38.4145 95.8378 40.4198C95.8375 40.6937 95.7288 40.9562 95.5355 41.1499C95.3422 41.3435 95.0801 41.4524 94.8067 41.4527Z" fill="white"/>
<path d="M94.0984 46.2261H83.7055C83.3998 46.2266 83.1064 46.1053 82.8899 45.8892C82.6733 45.673 82.5514 45.3795 82.5508 45.0732C82.5502 44.767 82.6711 44.473 82.8868 44.256C83.1026 44.039 83.3955 43.9167 83.7012 43.916H94.0984C94.4039 43.9166 94.6966 44.0385 94.9124 44.2551C95.1281 44.4716 95.2493 44.7651 95.2493 45.0711C95.2493 45.377 95.1281 45.6705 94.9124 45.887C94.6966 46.1036 94.4039 46.2255 94.0984 46.2261Z" fill="#B1B1B1"/>
<path d="M87.111 34.6172C86.9915 34.6176 86.8769 34.6654 86.7925 34.7502C86.708 34.8349 86.6604 34.9497 86.6602 35.0695V39.9654C86.6601 40.0445 86.6809 40.1222 86.7202 40.1907C86.7596 40.2592 86.8162 40.3162 86.8845 40.3559C86.9527 40.3956 87.0302 40.4167 87.1091 40.417C87.188 40.4173 87.2656 40.3969 87.3342 40.3577L91.6482 37.8937C91.7175 37.8542 91.7751 37.7969 91.8151 37.7278C91.8551 37.6586 91.8761 37.5801 91.8759 37.5002C91.8756 37.4203 91.8543 37.3418 91.8139 37.2729C91.7735 37.204 91.7156 37.1471 91.646 37.1079L87.3323 34.6758C87.2648 34.6375 87.1886 34.6173 87.111 34.6172Z" fill="#B1B1B1"/>
<path d="M150.05 107.633C149.812 107.33 149.489 107.105 149.122 106.988C148.756 106.871 148.362 106.866 147.993 106.975L147.912 106.999L147.188 109.832C147.079 109.409 146.847 108.456 146.701 107.523L146.688 107.446L146.616 107.478C145.859 107.813 145.147 108.243 144.497 108.757C143.347 109.682 142.411 110.847 141.754 112.17C141.098 113.494 140.738 114.945 140.698 116.423L140.697 116.477L140.695 116.511L140.791 116.477L142.849 115.74C143.761 115.82 144.678 115.696 145.535 115.376C146.393 115.056 147.168 114.548 147.804 113.889C148.635 113.011 149.206 111.881 149.757 110.787C149.919 110.469 150.084 110.14 150.253 109.824C150.442 109.48 150.523 109.088 150.487 108.697C150.451 108.307 150.299 107.936 150.05 107.633Z" fill="#F2F2F2"/>
<path d="M97.49 35.3919C97.5313 35.6063 97.619 35.8091 97.747 35.9859C97.875 36.1627 98.0402 36.3092 98.2308 36.4152C98.4214 36.5212 98.633 36.584 98.8505 36.5992C99.068 36.6144 99.2861 36.5816 99.4896 36.5032L105.641 43.6714L106.42 41.0252L100.321 34.4671C100.167 34.1334 99.8962 33.8679 99.5597 33.7209C99.2232 33.5739 98.8446 33.5557 98.4956 33.6697C98.1465 33.7837 97.8514 34.022 97.6661 34.3394C97.4807 34.6568 97.4181 35.0313 97.49 35.3919Z" fill="#FFB8B8"/>
<path d="M122.281 114.762H120.246L119.277 106.896H122.282L122.281 114.762Z" fill="#FFB6B6"/>
<path d="M122.225 114.097L120.052 113.211L119.989 113.186L118.789 114.097C118.112 114.097 117.462 114.367 116.983 114.846C116.504 115.326 116.234 115.977 116.234 116.656V116.739H122.798V114.097H122.225Z" fill="#2F2E41"/>
<path d="M136.801 114.762H134.765L133.797 106.896H136.801L136.801 114.762Z" fill="#FFB6B6"/>
<path d="M136.748 114.097L134.575 113.211L134.513 113.186L133.313 114.097C132.635 114.097 131.985 114.367 131.506 114.846C131.027 115.326 130.758 115.977 130.758 116.656V116.739H137.321V114.097H136.748Z" fill="#2F2E41"/>
<path d="M131.999 67.793C131.999 67.793 134.552 70.4539 134.552 72.6402C134.552 74.8266 133.914 77.8286 134.552 78.4856C135.19 79.1427 135.988 79.942 135.031 80.9011C134.073 81.8602 133.595 82.3398 134.233 82.9792C134.871 83.6186 134.552 94.8085 134.552 94.8085L137.903 109.835H133.681L128.329 94.8085L126.892 82.3398L122.247 94.3289L122.76 109.964L118.347 109.835L116.52 93.2099C116.52 93.2099 119.232 77.3956 118.754 76.9903C118.275 76.585 118.754 75.7668 118.754 75.7668L120.03 69.7112L131.999 67.793Z" fill="#2F2E41"/>
<path d="M127 48.9271C127 48.9271 127.868 45.5001 123.868 44.5176C119.869 43.535 108.435 42.2727 108.435 42.2727L102.657 36.1309L100.699 38.9791L107.177 47.0423L122.524 50.2002L127 48.9271Z" fill="#3F3D56"/>
<path d="M101.649 38.7694C101.828 38.5365 101.968 38.2759 102.064 37.9979L102.893 35.9582L102.678 35.9492C102.38 35.8931 102.074 35.9007 101.78 35.9714C101.485 36.0421 101.209 36.1743 100.969 36.3594C100.729 36.5446 100.531 36.7784 100.387 37.0456C100.244 37.3128 100.158 37.6074 100.136 37.91C100.109 38.1717 100.156 38.4359 100.272 38.6722C100.331 38.7893 100.416 38.8908 100.522 38.9684C100.628 39.0459 100.75 39.0974 100.879 39.1184C101.026 39.1263 101.173 39.0987 101.306 39.0379C101.44 38.9772 101.558 38.8851 101.649 38.7694Z" fill="#B1B1B1"/>
<path d="M119.213 70.5282L118.734 74.0046C118.734 74.0046 119.692 75.0347 120.171 74.9059C120.649 74.7771 122.405 74.0276 122.405 74.0276C122.405 74.0276 124.479 75.1634 125.596 75.2922C126.713 75.4209 132.618 74.6484 132.777 74.2621C132.937 73.8759 134.792 72.3638 134.792 72.3638L134.054 67.9531L119.213 70.5282Z" fill="#B1B1B1"/>
<path d="M134.761 58.3672C134.761 58.3672 134.356 61.7194 134.675 62.0279C134.994 62.3348 134.356 64.2771 133.718 65.5559C133.079 66.8348 134.197 66.9946 134.197 67.9537C134.197 68.9129 134.675 72.4297 134.675 72.4297C134.675 72.4297 129.728 72.7494 128.93 71.9501C128.132 71.1508 126.856 71.7903 125.1 73.5487C123.345 75.3071 119.533 73.8684 118.735 73.0691C117.937 72.2698 119.356 69.3924 119.834 68.8345C120.313 68.2766 119.373 68.9225 118.894 67.1545C118.416 65.3865 119.356 65.5559 120.153 64.7566C120.951 63.9574 120.153 62.5187 119.515 61.08C118.877 59.6413 119.356 48.931 119.356 46.3733C119.356 43.8156 122.866 43.4959 122.866 43.4959L124.256 41.7455L125.278 40.4587L127.279 40.3788L127.331 40.3772L129.267 40.2988L130.207 41.3954L132.282 43.8156L134.675 44.2952C136.59 44.9346 136.111 48.931 136.111 48.931L134.761 58.3672Z" fill="#3F3D56"/>
<path d="M127.18 39.685C129.446 39.685 131.282 37.8453 131.282 35.5759C131.282 33.3065 129.446 31.4668 127.18 31.4668C124.915 31.4668 123.078 33.3065 123.078 35.5759C123.078 37.8453 124.915 39.685 127.18 39.685Z" fill="#FFB6B6"/>
<path d="M131.937 34.1939C130.809 33.5008 130.953 31.6885 129.866 31.0556C129.326 30.7436 128.718 30.567 128.095 30.5408C127.472 30.5146 126.852 30.6395 126.287 30.9051C125.522 30.5769 124.604 30.8388 123.992 31.4313C123.379 32.0239 123.048 32.898 122.95 33.7772C122.879 34.6604 122.943 35.5493 123.138 36.4136C123.198 36.0663 123.259 35.7191 123.32 35.3718L126.554 34.6639C126.268 34.9215 125.981 35.1792 125.695 35.4368C127.16 35.7708 128.696 35.5301 129.989 34.7641C131.397 35.3963 131.142 36.8161 129.906 38.7003C130.385 39.4996 133.222 34.9837 131.937 34.1939Z" fill="#2F2E41"/>
<path d="M130.209 41.3946C130.199 41.402 130.19 41.409 130.18 41.4154C129.842 41.6173 129.455 41.7224 129.061 41.7191C128.546 41.7621 128.035 41.6015 127.636 41.2715C127.427 41.0733 126.596 41.4921 126.05 41.7239C125.477 41.9615 124.836 41.969 124.258 41.7447L125.279 40.4578L126.962 40.084H127.383L129.269 40.298L130.209 41.3946Z" fill="#B1B1B1"/>
<path d="M157.75 116.935L100.65 117C100.617 117 100.585 116.993 100.554 116.981C100.524 116.968 100.496 116.95 100.473 116.927C100.449 116.904 100.431 116.876 100.418 116.846C100.405 116.816 100.399 116.783 100.398 116.75C100.398 116.717 100.405 116.685 100.417 116.654C100.429 116.624 100.448 116.596 100.471 116.573C100.494 116.549 100.521 116.531 100.552 116.518C100.582 116.505 100.614 116.498 100.647 116.498H100.65L157.75 116.434C157.816 116.434 157.88 116.46 157.926 116.507C157.973 116.554 157.999 116.618 157.999 116.684C157.999 116.75 157.973 116.814 157.926 116.861C157.88 116.908 157.816 116.934 157.75 116.935Z" fill="#CACACA"/>
<path d="M89.3812 32.77H88.9609V2.66211H105.488V3.08307H89.3812V32.77Z" fill="#3F3D56"/>
<path d="M118.341 0H107.204C106.48 0 105.785 0.288285 105.273 0.801433C104.76 1.31458 104.473 2.01056 104.473 2.73626C104.473 3.46196 104.76 4.15794 105.273 4.67109C105.785 5.18424 106.48 5.47252 107.204 5.47252H118.341C119.065 5.47252 119.76 5.18424 120.272 4.67109C120.784 4.15794 121.072 3.46196 121.072 2.73626C121.072 2.01056 120.784 1.31458 120.272 0.801433C119.76 0.288285 119.065 0 118.341 0Z" fill="#019ACB"/>
<path d="M88.928 35.5249C90.3143 35.5249 91.4381 34.3991 91.4381 33.0105C91.4381 31.6218 90.3143 30.4961 88.928 30.4961C87.5418 30.4961 86.418 31.6218 86.418 33.0105C86.418 34.3991 87.5418 35.5249 88.928 35.5249Z" fill="#019ACB"/>
<path d="M58.6803 42.459L69.6919 39.9064L72.8527 39.1737C73.248 39.0821 73.0838 38.4724 72.6882 38.564L61.6766 41.1166L58.5159 41.8493C58.1205 41.9409 58.2848 42.5507 58.6803 42.459Z" fill="#F2F2F2"/>
<path d="M70.053 35.812L75.9479 38.5283C76.1491 38.598 76.3375 38.7002 76.5057 38.8309C76.6684 38.9905 76.55 39.1441 76.4172 39.2831C76.0205 39.6543 75.6015 40.0007 75.1625 40.3205L72.651 42.3658C72.3358 42.6226 72.7806 43.0706 73.093 42.8163L75.2803 41.0349L76.374 40.1442C76.6839 39.8918 77.0611 39.6343 77.1856 39.2323C77.4472 38.3877 76.4148 38.0519 75.841 37.7876L73.2739 36.6046L70.374 35.2684C70.0085 35.0999 69.6847 35.6423 70.053 35.812Z" fill="#F2F2F2"/>
<path d="M151.401 56.4901C150.351 55.7769 149.075 55.5119 147.828 55.422C146.41 55.3447 144.99 55.3464 143.573 55.427C142.1 55.4854 140.631 55.5921 139.165 55.7471C137.701 55.9023 136.243 56.1057 134.791 56.3573C133.491 56.56 132.205 56.842 130.939 57.2018C129.741 57.5339 128.613 58.0797 127.608 58.813C126.727 59.4773 126.049 60.3761 125.651 61.4072C125.261 62.3742 125.195 63.4419 125.462 64.4499C125.605 64.9395 125.849 65.3936 126.178 65.7824C126.559 66.2089 127.01 66.5668 127.512 66.8403C128.554 67.4362 129.734 67.7945 130.676 68.5574C130.925 68.7569 131.151 68.9825 131.352 69.2303C131.488 69.4219 131.677 69.5704 131.895 69.6579C132.101 69.7302 132.325 69.7397 132.537 69.685C132.749 69.6303 132.94 69.514 133.086 69.3507C133.275 69.0921 133.432 68.8118 133.555 68.5159L134.052 67.5552C134.085 67.4712 134.126 67.3907 134.176 67.3151C134.213 67.2706 134.147 67.316 134.159 67.3043C134.166 67.2978 134.181 67.298 134.189 67.2929C134.23 67.2724 134.273 67.2559 134.317 67.2436C134.777 67.068 135.239 66.8979 135.703 66.7333C137.415 66.122 139.148 65.5585 140.908 65.1021C141.814 64.8587 142.733 64.6662 143.66 64.5254C144.861 64.3541 146.08 64.374 147.287 64.2569C148.585 64.1307 149.926 63.8674 151.04 63.1509C151.961 62.5902 152.67 61.7395 153.057 60.7319C153.225 60.2517 153.282 59.7397 153.225 59.2342C153.081 58.0903 152.335 57.1243 151.401 56.4901Z" fill="#B1B1B1"/>
<path d="M149.25 57.1318C148.301 56.4872 147.148 56.2478 146.021 56.1665C144.74 56.0967 143.457 56.0982 142.176 56.171C140.845 56.2238 139.518 56.3202 138.193 56.4603C136.87 56.6006 135.552 56.7844 134.24 57.0117C133.065 57.1949 131.903 57.4498 130.759 57.7749C129.677 58.075 128.657 58.5682 127.749 59.2309C126.953 59.8312 126.34 60.6434 125.981 61.5752C125.628 62.449 125.568 63.4139 125.81 64.3248C125.939 64.7672 126.159 65.1775 126.457 65.5289C126.801 65.9143 127.209 66.2377 127.662 66.4849C128.604 67.0234 129.67 67.3472 130.522 68.0366C130.746 68.2169 130.951 68.4208 131.132 68.6447C131.256 68.8179 131.426 68.952 131.623 69.0311C131.81 69.0965 132.011 69.105 132.203 69.0556C132.395 69.0062 132.567 68.9011 132.699 68.7535C132.87 68.5198 133.012 68.2665 133.123 67.9991L133.572 67.131C133.602 67.055 133.64 66.9823 133.684 66.914C133.718 66.8738 133.658 66.9148 133.669 66.9042C133.676 66.8984 133.689 66.8986 133.696 66.8939C133.733 66.8754 133.772 66.8605 133.812 66.8494C134.227 66.6907 134.645 66.537 135.064 66.3882C136.611 65.8358 138.177 65.3266 139.768 64.9142C140.587 64.6942 141.417 64.5202 142.255 64.393C143.34 64.2382 144.442 64.2562 145.532 64.1503C146.706 64.0363 147.917 63.7984 148.924 63.1509C149.756 62.6442 150.397 61.8755 150.747 60.9649C150.898 60.5309 150.95 60.0683 150.899 59.6115C150.768 58.5778 150.094 57.7048 149.25 57.1318Z" fill="white"/>
<path d="M147.262 58.297L131.797 61.1542C131.753 61.1627 131.707 61.1623 131.663 61.1531C131.619 61.144 131.577 61.1262 131.54 61.1007C131.503 61.0753 131.471 61.0428 131.446 61.0051C131.422 60.9673 131.405 60.9251 131.396 60.8807C131.388 60.8364 131.389 60.7909 131.398 60.7468C131.407 60.7026 131.425 60.6608 131.451 60.6236C131.476 60.5864 131.509 60.5546 131.546 60.5301C131.584 60.5055 131.626 60.4887 131.671 60.4805L131.673 60.4801L147.138 57.6229C147.182 57.6147 147.227 57.6153 147.271 57.6247C147.315 57.6341 147.357 57.6521 147.394 57.6776C147.431 57.7032 147.463 57.7357 147.487 57.7735C147.511 57.8113 147.528 57.8535 147.536 57.8978C147.545 57.942 147.544 57.9875 147.535 58.0315C147.525 58.0755 147.507 58.1172 147.482 58.1543C147.456 58.1914 147.424 58.2231 147.386 58.2476C147.348 58.272 147.306 58.2888 147.262 58.297Z" fill="#B1B1B1"/>
<path d="M147.645 60.3654L132.18 63.2226C132.135 63.231 132.09 63.2307 132.046 63.2215C132.002 63.2123 131.96 63.1945 131.923 63.1691C131.886 63.1437 131.854 63.1112 131.829 63.0734C131.805 63.0357 131.788 62.9934 131.779 62.9491C131.771 62.9048 131.772 62.8592 131.781 62.8151C131.79 62.771 131.808 62.7291 131.833 62.692C131.859 62.6548 131.892 62.623 131.929 62.5984C131.967 62.5739 132.009 62.557 132.054 62.5488L132.056 62.5485L147.521 59.6912C147.565 59.6831 147.61 59.6837 147.654 59.6931C147.698 59.7025 147.74 59.7205 147.777 59.746C147.814 59.7715 147.845 59.8041 147.87 59.8419C147.894 59.8796 147.911 59.9219 147.919 59.9661C147.927 60.0104 147.927 60.0558 147.917 60.0998C147.908 60.1439 147.89 60.1856 147.864 60.2227C147.839 60.2597 147.806 60.2914 147.769 60.3159C147.731 60.3404 147.689 60.3572 147.645 60.3654Z" fill="#B1B1B1"/>
<path d="M134.361 64.9589L132.559 65.2919C132.47 65.308 132.378 65.2881 132.304 65.2366C132.229 65.185 132.178 65.106 132.162 65.0168C132.146 64.9276 132.165 64.8355 132.216 64.7608C132.267 64.686 132.346 64.6346 132.435 64.6178L134.237 64.2848C134.327 64.2686 134.418 64.2884 134.493 64.34C134.568 64.3916 134.619 64.4706 134.635 64.5599C134.651 64.6491 134.632 64.7413 134.581 64.8161C134.529 64.8909 134.451 64.9423 134.361 64.9589Z" fill="#B1B1B1"/>
<path d="M133.055 73.56C133.845 73.4141 134.367 72.6544 134.222 71.8632C134.076 71.0719 133.318 70.5488 132.528 70.6948C131.738 70.8407 131.216 71.6004 131.361 72.3916C131.507 73.1828 132.266 73.706 133.055 73.56Z" fill="#D1D3D4"/>
<path d="M53.0224 41.8058H39.813C39.1997 41.8051 38.6119 41.5608 38.1782 41.1264C37.7446 40.6921 37.5007 40.1032 37.5 39.4889V30.7681C37.5007 30.1538 37.7446 29.5649 38.1782 29.1306C38.6119 28.6962 39.1997 28.4519 39.813 28.4512H53.0224C53.6356 28.4519 54.2235 28.6962 54.6571 29.1306C55.0907 29.5649 55.3347 30.1538 55.3354 30.7681V39.4889C55.3347 40.1032 55.0907 40.6921 54.6571 41.1264C54.2235 41.5608 53.6356 41.8051 53.0224 41.8058Z" fill="#B1B1B1"/>
<path d="M51.5719 41.3357H40.0755C39.5418 41.3351 39.0302 41.1224 38.6528 40.7444C38.2754 40.3664 38.0631 39.8538 38.0625 39.3192V31.7294C38.0631 31.1948 38.2754 30.6822 38.6528 30.3042C39.0302 29.9262 39.5418 29.7135 40.0755 29.7129H51.5719C52.1056 29.7135 52.6173 29.9262 52.9946 30.3042C53.372 30.6822 53.5843 31.1948 53.5849 31.7294V39.3192C53.5843 39.8538 53.372 40.3664 52.9946 40.7444C52.6173 41.1224 52.1056 41.3351 51.5719 41.3357Z" fill="white"/>
<path d="M54.8831 49.6634H37.9336C37.8289 49.6632 37.7285 49.6213 37.6546 49.5471C37.5806 49.4728 37.5391 49.3722 37.5391 49.2673C37.5391 49.1623 37.5806 49.0617 37.6546 48.9875C37.7285 48.9132 37.8289 48.8713 37.9336 48.8711H54.8831C54.9879 48.8713 55.0882 48.9132 55.1622 48.9875C55.2362 49.0617 55.2777 49.1623 55.2777 49.2673C55.2777 49.3722 55.2362 49.4728 55.1622 49.5471C55.0882 49.6213 54.9879 49.6632 54.8831 49.6634Z" fill="#B1B1B1"/>
<path d="M54.8831 47.3998H37.9336C37.8289 47.3995 37.7285 47.3577 37.6546 47.2834C37.5806 47.2091 37.5391 47.1085 37.5391 47.0036C37.5391 46.8987 37.5806 46.7981 37.6546 46.7238C37.7285 46.6495 37.8289 46.6077 37.9336 46.6074H54.8831C54.9879 46.6077 55.0882 46.6495 55.1622 46.7238C55.2362 46.7981 55.2777 46.8987 55.2777 47.0036C55.2777 47.1085 55.2362 47.2091 55.1622 47.2834C55.0882 47.3577 54.9879 47.3995 54.8831 47.3998Z" fill="#B1B1B1"/>
<path d="M54.884 51.9271H37.9346C37.8297 51.9271 37.7291 51.8854 37.6549 51.8111C37.5807 51.7368 37.5391 51.636 37.5391 51.5309C37.5391 51.4259 37.5807 51.3251 37.6549 51.2508C37.7291 51.1765 37.8297 51.1348 37.9346 51.1348H54.884C54.9889 51.1348 55.0895 51.1765 55.1637 51.2508C55.2379 51.3251 55.2795 51.4259 55.2795 51.5309C55.2795 51.636 55.2379 51.7368 55.1637 51.8111C55.0895 51.8854 54.9889 51.9271 54.884 51.9271Z" fill="#B1B1B1"/>
<path d="M54.884 54.1908H37.9346C37.8297 54.1908 37.7291 54.149 37.6549 54.0747C37.5807 54.0004 37.5391 53.8997 37.5391 53.7946C37.5391 53.6895 37.5807 53.5888 37.6549 53.5145C37.7291 53.4402 37.8297 53.3984 37.9346 53.3984H54.884C54.9889 53.3984 55.0895 53.4402 55.1637 53.5145C55.2379 53.5888 55.2795 53.6895 55.2795 53.7946C55.2795 53.8997 55.2379 54.0004 55.1637 54.0747C55.0895 54.149 54.9889 54.1908 54.884 54.1908Z" fill="#B1B1B1"/>
<path d="M54.884 56.4544H37.9346C37.8297 56.4544 37.7291 56.4127 37.6549 56.3384C37.5807 56.2641 37.5391 56.1633 37.5391 56.0583C37.5391 55.9532 37.5807 55.8524 37.6549 55.7781C37.7291 55.7039 37.8297 55.6621 37.9346 55.6621H54.884C54.9889 55.6621 55.0895 55.7039 55.1637 55.7781C55.2379 55.8524 55.2795 55.9532 55.2795 56.0583C55.2795 56.1633 55.2379 56.2641 55.1637 56.3384C55.0895 56.4127 54.9889 56.4544 54.884 56.4544Z" fill="#B1B1B1"/>
<path d="M54.8831 58.7181H37.9336C37.8289 58.7179 37.7285 58.676 37.6546 58.6018C37.5806 58.5275 37.5391 58.4269 37.5391 58.322C37.5391 58.217 37.5806 58.1164 37.6546 58.0421C37.7285 57.9679 37.8289 57.926 37.9336 57.9258H54.8831C54.9879 57.926 55.0882 57.9679 55.1622 58.0421C55.2362 58.1164 55.2777 58.217 55.2777 58.322C55.2777 58.4269 55.2362 58.5275 55.1622 58.6018C55.0882 58.676 54.9879 58.7179 54.8831 58.7181Z" fill="#B1B1B1"/>
<path d="M45.5611 53.5273H45.9813V69.7435H15.5859V69.3225H45.5611V53.5273Z" fill="#3F3D56"/>
<path d="M2.73156 72.4061H13.8679C14.5924 72.4061 15.2872 72.1178 15.7994 71.6047C16.3117 71.0915 16.5995 70.3956 16.5995 69.6699C16.5995 68.9442 16.3117 68.2482 15.7994 67.735C15.2872 67.2219 14.5924 66.9336 13.8679 66.9336H2.73156C2.00711 66.9336 1.31232 67.2219 0.800057 67.735C0.28779 68.2482 0 68.9442 0 69.6699C0 70.3956 0.28779 71.0915 0.800057 71.6047C1.31232 72.1178 2.00711 72.4061 2.73156 72.4061Z" fill="#019ACB"/>
<path d="M46.0648 54.7495C47.451 54.7495 48.5748 53.6238 48.5748 52.2351C48.5748 50.8464 47.451 49.7207 46.0648 49.7207C44.6785 49.7207 43.5547 50.8464 43.5547 52.2351C43.5547 53.6238 44.6785 54.7495 46.0648 54.7495Z" fill="#019ACB"/>
<path d="M59.0381 52.9327C62.7233 53.7173 61.7859 53.8704 65.4711 54.655L68.6445 55.3306C69.0414 55.4151 69.1501 54.793 68.753 54.7085C65.0678 53.9239 66.0052 53.7708 62.32 52.9862L59.1466 52.3106C58.7497 52.2261 58.641 52.8482 59.0381 52.9327Z" fill="#F2F2F2"/>
<path d="M67.5258 51.0979L71.72 56.0573C71.8728 56.2057 72.0004 56.3782 72.0977 56.5679C72.1777 56.7815 72.0055 56.8704 71.8265 56.9401C71.3102 57.1083 70.7842 57.2446 70.2514 57.3484L67.112 58.1373C66.7179 58.2364 66.9318 58.8309 67.3222 58.7327L70.0565 58.0456L71.4237 57.702C71.811 57.6047 72.2615 57.5312 72.5441 57.2197C73.1379 56.5653 72.3442 55.8235 71.936 55.3408L70.1095 53.1811L68.0463 50.7413C67.7862 50.4338 67.2638 50.788 67.5258 51.0979Z" fill="#F2F2F2"/>
<path d="M80.8215 72.7158C84.0453 72.7158 86.6587 70.098 86.6587 66.8687C86.6587 63.6394 84.0453 61.0215 80.8215 61.0215C77.5978 61.0215 74.9844 63.6394 74.9844 66.8687C74.9844 70.098 77.5978 72.7158 80.8215 72.7158Z" fill="#B1B1B1"/>
<path d="M80.254 71.9705C82.7048 71.9705 84.6916 69.9803 84.6916 67.5253C84.6916 65.0703 82.7048 63.0801 80.254 63.0801C77.8032 63.0801 75.8164 65.0703 75.8164 67.5253C75.8164 69.9803 77.8032 71.9705 80.254 71.9705Z" fill="white"/>
<path d="M79.4567 70.5696C79.3559 70.5696 79.2565 70.5461 79.1664 70.5009C79.0762 70.4558 78.9978 70.3902 78.9374 70.3094L77.3449 68.1824C77.2937 68.1141 77.2564 68.0364 77.2352 67.9536C77.214 67.8709 77.2093 67.7848 77.2213 67.7003C77.2333 67.6157 77.2619 67.5343 77.3053 67.4608C77.3487 67.3873 77.4061 67.3231 77.4743 67.2718C77.5425 67.2205 77.6201 67.1832 77.7027 67.162C77.7853 67.1407 77.8712 67.136 77.9556 67.148C78.0401 67.1601 78.1213 67.1886 78.1947 67.2321C78.2681 67.2756 78.3322 67.3331 78.3834 67.4014L78.3838 67.402L79.4256 68.7934L82.1015 64.7728C82.1487 64.7016 82.2095 64.6404 82.2803 64.5928C82.3512 64.5451 82.4308 64.512 82.5144 64.4951C82.5981 64.4783 82.6843 64.4782 82.768 64.4947C82.8517 64.5113 82.9313 64.5442 83.0024 64.5917C83.0734 64.6391 83.1343 64.7001 83.1818 64.7711C83.2293 64.8422 83.2623 64.9219 83.279 65.0057C83.2957 65.0895 83.2957 65.1759 83.279 65.2597C83.2624 65.3436 83.2294 65.4233 83.182 65.4944L79.9971 70.28C79.9394 70.3665 79.862 70.438 79.7711 70.4883C79.6802 70.5387 79.5786 70.5665 79.4748 70.5694C79.4688 70.5695 79.4628 70.5696 79.4567 70.5696Z" fill="#B1B1B1"/>
<path d="M135.326 72.8932C135.514 72.7825 135.676 72.6319 135.799 72.452C135.923 72.272 136.005 72.0671 136.041 71.8517C136.077 71.6363 136.066 71.4156 136.007 71.2052C135.949 70.9948 135.845 70.7997 135.703 70.6338L140.39 62.4297L137.64 62.5794L133.51 70.5296C133.247 70.7867 133.088 71.1313 133.062 71.4981C133.037 71.8649 133.146 72.2284 133.37 72.5198C133.594 72.8111 133.917 73.0101 134.277 73.0789C134.638 73.1477 135.011 73.0817 135.326 72.8932Z" fill="#FFB8B8"/>
<path d="M130.051 44.135C130.051 44.135 135.015 42.5364 136.291 46.3729C137.568 50.2095 141.86 60.6 141.86 60.6L137.249 70.0315L135.174 67.7935L137.391 61.2394L131.008 51.6482L130.051 44.135Z" fill="#3F3D56"/>
<path d="M137.404 69.0689C137.255 68.8157 137.065 68.5885 136.843 68.3962L135.259 66.8691L135.171 67.0659C135.008 67.3221 134.902 67.6097 134.858 67.9099C134.815 68.2101 134.835 68.5162 134.918 68.8081C135 69.0999 135.144 69.371 135.338 69.6035C135.533 69.836 135.774 70.0247 136.047 70.1572C136.279 70.2795 136.542 70.3338 136.803 70.3138C136.934 70.3024 137.06 70.2603 137.171 70.1908C137.282 70.1213 137.375 70.0265 137.442 69.9141C137.504 69.7804 137.533 69.6339 137.526 69.4868C137.519 69.3397 137.478 69.1964 137.404 69.0689Z" fill="#B1B1B1"/>
<path d="M80.7718 74.7344H80.3516V90.9505H94.5677V90.5295H80.7718V74.7344Z" fill="#3F3D56"/>
<path d="M110.154 90.8788C110.153 90.1533 109.865 89.4578 109.353 88.9448C108.841 88.4318 108.147 88.1433 107.423 88.1426H96.2862C95.5618 88.1426 94.867 88.4309 94.3547 88.944C93.8425 89.4572 93.5547 90.1531 93.5547 90.8788C93.5547 91.6045 93.8425 92.3005 94.3547 92.8137C94.867 93.3268 95.5618 93.6151 96.2862 93.6151H107.423C108.147 93.6144 108.841 93.3259 109.353 92.8129C109.865 92.2999 110.153 91.6043 110.154 90.8788Z" fill="#019ACB"/>
<path d="M80.2718 75.9565C81.6581 75.9565 82.7819 74.8308 82.7819 73.4421C82.7819 72.0535 81.6581 70.9277 80.2718 70.9277C78.8855 70.9277 77.7617 72.0535 77.7617 73.4421C77.7617 74.8308 78.8855 75.9565 80.2718 75.9565Z" fill="#019ACB"/>
</g>
<defs>
<clipPath id="clip0_344_28132">
<rect width="158" height="117" fill="white"/>
</clipPath>
</defs>
</svg>
