<svg width="129" height="132" viewBox="0 0 129 132" fill="none" xmlns="http://www.w3.org/2000/svg">
<g clip-path="url(#clip0_344_28037)">
<path d="M81.0847 125.105L77.1797 131.865H84.9895L81.0847 125.105L77.1797 131.865H84.9895L81.0847 125.105Z" fill="#F2F2F2"/>
<path d="M71.102 33.9629V52.505C71.1011 53.0078 70.9008 53.4898 70.545 53.8453C70.1893 54.2009 69.707 54.401 69.2039 54.4019H54.9727L55.1036 54.2345C62.5907 49.239 67.8963 42.5741 70.9345 34.1753L71.102 33.9629Z" fill="#F2F2F2"/>
<path d="M85.5227 15.4941H4.87186C3.58024 15.4957 2.34197 16.0092 1.42865 16.9219C0.515339 17.8347 0.00155748 19.0722 0 20.363V68.7772C0.00155748 70.068 0.515339 71.3055 1.42865 72.2183C2.34197 73.1311 3.58024 73.6445 4.87186 73.6461H85.5227C86.8143 73.6445 88.0526 73.1311 88.9659 72.2183C89.8792 71.3055 90.393 70.068 90.3945 68.7772V20.363C90.393 19.0722 89.8792 17.8347 88.9659 16.9219C88.0526 16.0092 86.8143 15.4957 85.5227 15.4941ZM89.9651 68.7772C89.9652 69.3603 89.8504 69.9376 89.6272 70.4763C89.404 71.015 89.0768 71.5045 88.6642 71.9168C88.2517 72.3291 87.7619 72.6561 87.2229 72.8792C86.6838 73.1023 86.1061 73.217 85.5227 73.2169H4.87186C4.28844 73.217 3.71071 73.1023 3.17168 72.8792C2.63264 72.6561 2.14287 72.3291 1.73032 71.9168C1.31778 71.5045 0.990561 71.015 0.767349 70.4763C0.544137 69.9376 0.429312 69.3603 0.429428 68.7772V49.3296C0.429428 48.1966 0.484535 47.0772 0.594755 45.9713C1.42373 37.7326 5.28635 30.0956 11.4327 24.543C17.5791 18.9904 25.5707 15.9184 33.8561 15.9233H85.5227C86.7008 15.9234 87.8307 16.3912 88.6638 17.2238C89.4969 18.0564 89.965 19.1856 89.9651 20.363V68.7772Z" fill="#B1B1B1"/>
<path d="M59.764 38.0723H17.8153C17.4717 38.0723 17.1421 38.2087 16.8991 38.4516C16.6561 38.6944 16.5195 39.0238 16.5195 39.3673C16.5195 39.7107 16.6561 40.0401 16.8991 40.283C17.1421 40.5258 17.4717 40.6623 17.8153 40.6623H59.764C60.1076 40.6623 60.4372 40.5258 60.6802 40.283C60.9233 40.0401 61.0598 39.7107 61.0598 39.3673C61.0598 39.0238 60.9233 38.6944 60.6802 38.4516C60.4372 38.2087 60.1076 38.0723 59.764 38.0723Z" fill="#B1B1B1"/>
<path d="M30.8216 30.8086H17.8164C17.4724 30.8086 17.1426 30.9451 16.8994 31.1882C16.6562 31.4313 16.5195 31.7609 16.5195 32.1047C16.5195 32.4484 16.6562 32.7781 16.8994 33.0211C17.1426 33.2642 17.4724 33.4008 17.8164 33.4008H30.8216C31.1656 33.4008 31.4954 33.2642 31.7387 33.0211C31.9819 32.7781 32.1185 32.4484 32.1185 32.1047C32.1185 31.7609 31.9819 31.4313 31.7387 31.1882C31.4954 30.9451 31.1656 30.8086 30.8216 30.8086Z" fill="#B1B1B1"/>
<path d="M17.8153 38.0723H24.246C23.4344 39.0014 22.5529 39.8673 21.6093 40.6623H17.8153C17.4717 40.6623 17.1421 40.5258 16.8991 40.283C16.6561 40.0401 16.5195 39.7107 16.5195 39.3673C16.5195 39.0238 16.6561 38.6944 16.8991 38.4516C17.1421 38.2087 17.4717 38.0723 17.8153 38.0723Z" fill="#019ACB"/>
<path d="M17.8164 30.8086H28.6702C28.3237 31.6958 27.9244 32.5614 27.4742 33.4008H17.8164C17.4725 33.4008 17.1426 33.2642 16.8994 33.0211C16.6562 32.7781 16.5195 32.4484 16.5195 32.1047C16.5195 31.7609 16.6562 31.4313 16.8994 31.1882C17.1426 30.9451 17.4725 30.8086 17.8164 30.8086Z" fill="#019ACB"/>
<path d="M29.7121 16.1787C22.2013 17.1184 15.2317 20.5769 9.94267 25.9886C4.65364 31.4003 1.35807 38.4451 0.594755 45.9713C0.395071 45.9327 0.197537 45.8877 0 45.8404V20.363C0.00155748 19.0722 0.515339 17.8347 1.42865 16.9219C2.34197 16.0092 3.58024 15.4957 4.87186 15.4941H29.5403C29.6026 15.7194 29.6584 15.9491 29.7121 16.1787Z" fill="#019ACB"/>
<path d="M29.4694 19.9574C31.7092 19.9574 33.5248 18.1428 33.5248 15.9045C33.5248 13.6661 31.7092 11.8516 29.4694 11.8516C27.2297 11.8516 25.4141 13.6661 25.4141 15.9045C25.4141 18.1428 27.2297 19.9574 29.4694 19.9574Z" fill="white"/>
<path d="M29.4693 20.1736C28.6247 20.1736 27.7992 19.9233 27.097 19.4544C26.3948 18.9855 25.8475 18.319 25.5243 17.5392C25.2011 16.7594 25.1165 15.9014 25.2813 15.0736C25.446 14.2458 25.8527 13.4854 26.4499 12.8886C27.0471 12.2918 27.8079 11.8853 28.6362 11.7207C29.4645 11.556 30.3231 11.6405 31.1034 11.9635C31.8836 12.2865 32.5505 12.8335 33.0197 13.5353C33.4889 14.237 33.7393 15.0621 33.7393 15.9061C33.7381 17.0375 33.2878 18.1222 32.4873 18.9223C31.6867 19.7223 30.6014 20.1723 29.4693 20.1736ZM29.4693 12.0678C28.7097 12.0678 27.9671 12.293 27.3355 12.7147C26.7039 13.1365 26.2117 13.7359 25.921 14.4373C25.6303 15.1386 25.5543 15.9104 25.7024 16.6549C25.8506 17.3995 26.2164 18.0834 26.7535 18.6202C27.2907 19.157 27.975 19.5226 28.72 19.6707C29.465 19.8188 30.2372 19.7428 30.939 19.4522C31.6408 19.1617 32.2406 18.6698 32.6627 18.0386C33.0847 17.4074 33.3099 16.6653 33.3099 15.9061C33.3088 14.8885 32.9038 13.9129 32.1838 13.1933C31.4638 12.4737 30.4875 12.069 29.4693 12.0678Z" fill="#3F3D56"/>
<path d="M28.9168 18.0151C28.8468 18.0151 28.7777 17.9988 28.7151 17.9675C28.6524 17.9362 28.598 17.8907 28.556 17.8347L27.4496 16.3604C27.414 16.3131 27.3882 16.2592 27.3735 16.2018C27.3588 16.1445 27.3555 16.0848 27.3639 16.0262C27.3723 15.9676 27.3921 15.9112 27.4223 15.8603C27.4525 15.8093 27.4924 15.7648 27.5398 15.7293C27.5872 15.6938 27.6411 15.6679 27.6985 15.6532C27.7559 15.6386 27.8156 15.6353 27.8743 15.6437C27.9329 15.652 27.9893 15.6719 28.0403 15.702C28.0913 15.7322 28.1358 15.7721 28.1714 15.8195L28.8952 16.7839L30.7542 13.9971C30.8207 13.8978 30.9238 13.8289 31.0411 13.8056C31.1583 13.7822 31.28 13.8063 31.3794 13.8726C31.4789 13.9389 31.548 14.0419 31.5715 14.159C31.595 14.2761 31.5711 14.3978 31.5049 14.4972L29.2922 17.8143C29.2522 17.8743 29.1983 17.9238 29.1352 17.9587C29.0721 17.9936 29.0015 18.0129 28.9294 18.0149L28.9168 18.0151Z" fill="#019ACB"/>
<path d="M61.4616 48.4984C63.7013 48.4984 65.517 46.6838 65.517 44.4455C65.517 42.2071 63.7013 40.3926 61.4616 40.3926C59.2219 40.3926 57.4062 42.2071 57.4062 44.4455C57.4062 46.6838 59.2219 48.4984 61.4616 48.4984Z" fill="white"/>
<path d="M61.4615 48.7126C60.6169 48.7126 59.7914 48.4624 59.0892 47.9934C58.3869 47.5245 57.8396 46.858 57.5164 46.0783C57.1933 45.2985 57.1087 44.4405 57.2735 43.6127C57.4382 42.7848 57.8449 42.0245 58.4421 41.4276C59.0393 40.8308 59.8001 40.4244 60.6284 40.2597C61.4567 40.0951 62.3153 40.1796 63.0956 40.5026C63.8758 40.8256 64.5427 41.3725 65.0119 42.0743C65.4811 42.7761 65.7315 43.6012 65.7315 44.4452C65.7302 45.5766 65.28 46.6613 64.4794 47.4613C63.6789 48.2613 62.5936 48.7114 61.4615 48.7126ZM61.4615 40.6069C60.7019 40.6069 59.9593 40.832 59.3277 41.2538C58.6961 41.6755 58.2039 42.275 57.9132 42.9763C57.6225 43.6777 57.5464 44.4494 57.6946 45.194C57.8428 45.9386 58.2086 46.6225 58.7457 47.1593C59.2829 47.6961 59.9672 48.0616 60.7122 48.2097C61.4572 48.3578 62.2294 48.2818 62.9312 47.9913C63.633 47.7008 64.2328 47.2088 64.6548 46.5776C65.0768 45.9464 65.3021 45.2043 65.3021 44.4452C65.301 43.4276 64.896 42.4519 64.1759 41.7324C63.4559 41.0128 62.4797 40.608 61.4615 40.6069Z" fill="#B1B1B1"/>
<path d="M60.909 46.5542C60.839 46.5542 60.7699 46.5379 60.7073 46.5065C60.6446 46.4752 60.5901 46.4298 60.5481 46.3738L59.4418 44.8995C59.4062 44.8521 59.3804 44.7982 59.3657 44.7409C59.351 44.6835 59.3477 44.6239 59.3561 44.5653C59.373 44.4469 59.4363 44.3401 59.532 44.2684C59.6277 44.1966 59.748 44.1658 59.8665 44.1827C59.9849 44.1996 60.0918 44.2629 60.1635 44.3585L60.8874 45.323L62.7464 42.5361C62.8129 42.4369 62.916 42.368 63.0332 42.3446C63.1505 42.3213 63.2722 42.3454 63.3716 42.4117C63.4711 42.4779 63.5402 42.5809 63.5637 42.698C63.5872 42.8152 63.5633 42.9368 63.4971 43.0363L61.2844 46.3534C61.2443 46.4134 61.1905 46.4629 61.1274 46.4978C61.0643 46.5327 60.9937 46.552 60.9215 46.554L60.909 46.5542Z" fill="#B1B1B1"/>
<path d="M50.5387 2.00391C48.7482 0.696022 46.5865 -0.00605878 44.3687 3.93919e-05C42.6904 0.0196534 41.0425 0.450291 39.5694 1.25422C38.0963 2.05816 36.8429 3.21085 35.9191 4.61133C35.7619 4.85134 36.1057 5.14338 36.2646 4.90082C37.3901 3.18834 39.0177 1.86531 40.9246 1.11279C42.4581 0.522259 44.1155 0.326004 45.7447 0.542023C47.3738 0.758043 48.9227 1.37942 50.2491 2.34917C50.482 2.52036 50.7731 2.17611 50.5387 2.00391Z" fill="#B1B1B1"/>
<path d="M33.388 3.04224L32.3824 6.77666C32.3763 6.81076 32.3782 6.84578 32.3879 6.87903C32.3975 6.91228 32.4146 6.94289 32.438 6.96848C32.4613 6.99408 32.4902 7.014 32.5224 7.02669C32.5546 7.03939 32.5893 7.04453 32.6239 7.04173L36.8325 6.36817C37.1174 6.32259 37.0802 5.87339 36.7931 5.91933L32.5844 6.59289L32.8259 6.85796L33.8316 3.12353C33.9071 2.8431 33.463 2.76405 33.388 3.04224Z" fill="#B1B1B1"/>
<path d="M35.6802 52.99C37.4707 54.2979 39.6325 55 41.8502 54.9939C43.5286 54.9742 45.1765 54.5436 46.6496 53.7397C48.1227 52.9357 49.3761 51.783 50.2999 50.3826C50.4571 50.1426 50.1133 49.8505 49.9544 50.0931C48.8288 51.8056 47.2012 53.1286 45.2944 53.8811C43.7608 54.4716 42.1035 54.6679 40.4743 54.4519C38.8451 54.2359 37.2963 53.6145 35.9699 52.6447C35.737 52.4735 35.4459 52.8178 35.6802 52.99Z" fill="#B1B1B1"/>
<path d="M52.8316 51.9514L53.8373 48.217C53.8433 48.1829 53.8414 48.1479 53.8318 48.1146C53.8221 48.0814 53.805 48.0508 53.7817 48.0252C53.7584 47.9996 53.7295 47.9796 53.6972 47.967C53.665 47.9543 53.6303 47.9491 53.5958 47.9519L49.3871 48.6255C49.1023 48.6711 49.1395 49.1203 49.4266 49.0743L53.6352 48.4008L53.3937 48.1357L52.388 51.8701C52.3125 52.1506 52.7567 52.2296 52.8316 51.9514Z" fill="#B1B1B1"/>
<path d="M88.5435 10.82H72.461C71.944 10.82 71.4482 10.6148 71.0827 10.2494C70.7171 9.88411 70.5117 9.3886 70.5117 8.87193C70.5117 8.35526 70.7171 7.85976 71.0827 7.49442C71.4482 7.12908 71.944 6.92383 72.461 6.92383H88.5435C89.0605 6.92383 89.5563 7.12908 89.9219 7.49442C90.2874 7.85976 90.4928 8.35526 90.4928 8.87193C90.4928 9.3886 90.2874 9.88411 89.9219 10.2494C89.5563 10.6148 89.0605 10.82 88.5435 10.82Z" fill="#F2F2F2"/>
<path d="M88.1754 8.87244L88.9429 8.10538C88.9647 8.08379 88.982 8.0581 88.9939 8.0298C89.0057 8.0015 89.0118 7.97114 89.0119 7.94047C89.012 7.90979 89.006 7.87941 88.9943 7.85105C88.9826 7.8227 88.9654 7.79694 88.9437 7.77525C88.922 7.75356 88.8962 7.73636 88.8678 7.72466C88.8394 7.71295 88.809 7.70696 88.7783 7.70703C88.7476 7.7071 88.7173 7.71323 88.6889 7.72506C88.6606 7.7369 88.6349 7.75421 88.6133 7.77599L87.8458 8.54305L87.0783 7.77599C87.0567 7.75421 87.031 7.7369 87.0027 7.72506C86.9743 7.71323 86.944 7.7071 86.9133 7.70703C86.8826 7.70696 86.8522 7.71295 86.8238 7.72466C86.7954 7.73636 86.7697 7.75356 86.748 7.77525C86.7262 7.79694 86.709 7.8227 86.6973 7.85105C86.6856 7.87941 86.6796 7.90979 86.6797 7.94047C86.6798 7.97114 86.6859 8.0015 86.6977 8.0298C86.7096 8.0581 86.7269 8.08379 86.7487 8.10538L87.5162 8.87244L86.7542 9.63404C86.7323 9.65563 86.715 9.68131 86.7032 9.70961C86.6913 9.73791 86.6852 9.76827 86.6852 9.79895C86.6851 9.82962 86.6911 9.86001 86.7028 9.88836C86.7145 9.91672 86.7317 9.94248 86.7534 9.96417C86.7751 9.98586 86.8009 10.0031 86.8293 10.0148C86.8576 10.0265 86.888 10.0325 86.9187 10.0324C86.9494 10.0323 86.9798 10.0262 87.0081 10.0144C87.0364 10.0025 87.0621 9.98521 87.0837 9.96342L87.8458 9.20183L88.6079 9.96342C88.6516 10.0068 88.7108 10.031 88.7724 10.0309C88.8341 10.0308 88.8931 10.0062 88.9367 9.96268C88.9803 9.91913 89.0048 9.8601 89.005 9.79851C89.0051 9.73692 88.9808 9.67779 88.9374 9.63404L88.1754 8.87244Z" fill="white"/>
<path d="M62.9985 69.7933C62.9699 69.7933 62.9416 69.7876 62.9152 69.7765C62.8889 69.7654 62.865 69.7492 62.845 69.7287L61.6198 68.4771C61.5806 68.437 61.5586 68.3831 61.5586 68.327C61.5586 68.2709 61.5806 68.2171 61.6198 68.177L62.845 66.9254C62.8647 66.9049 62.8882 66.8886 62.9142 66.8772C62.9402 66.8659 62.9682 66.8599 62.9966 66.8594C63.0249 66.859 63.0531 66.8641 63.0795 66.8746C63.1058 66.8851 63.1298 66.9007 63.1501 66.9206C63.1704 66.9404 63.1865 66.964 63.1976 66.9901C63.2087 67.0162 63.2145 67.0443 63.2147 67.0726C63.2148 67.101 63.2094 67.1291 63.1986 67.1553C63.1879 67.1816 63.172 67.2054 63.152 67.2255L62.0737 68.327L63.152 69.4286C63.1815 69.4588 63.2015 69.4971 63.2094 69.5386C63.2173 69.58 63.2128 69.6229 63.1964 69.6619C63.18 69.7008 63.1525 69.734 63.1173 69.7574C63.0821 69.7808 63.0408 69.7933 62.9985 69.7933Z" fill="#3F3D56"/>
<path d="M65.0545 69.7942C65.0123 69.7942 64.971 69.7817 64.9358 69.7583C64.9006 69.735 64.873 69.7017 64.8566 69.6628C64.8403 69.6239 64.8357 69.581 64.8436 69.5395C64.8515 69.498 64.8715 69.4597 64.9011 69.4295L65.9792 68.3279L64.9011 67.2264C64.8619 67.1856 64.8404 67.131 64.8413 67.0744C64.8422 67.0179 64.8654 66.964 64.9059 66.9245C64.9463 66.8849 65.0008 66.8629 65.0573 66.8633C65.1139 66.8636 65.1681 66.8863 65.208 66.9263L66.4331 68.1779C66.4724 68.218 66.4943 68.2718 66.4943 68.3279C66.4943 68.384 66.4724 68.4379 66.4331 68.478L65.208 69.7296C65.1881 69.7501 65.1642 69.7663 65.1378 69.7774C65.1115 69.7885 65.0831 69.7942 65.0545 69.7942Z" fill="#3F3D56"/>
<path d="M69.1833 47.2258C69.298 46.9113 69.4802 46.6257 69.7172 46.3892C69.9543 46.1527 70.2403 45.971 70.5552 45.8569C70.8701 45.7428 71.2062 45.6991 71.5398 45.7289C71.8734 45.7586 72.1964 45.8611 72.4861 46.0291L92.7404 40.7246L93.0728 44.8947L73.254 49.3124C72.9393 49.7801 72.4639 50.1161 71.9178 50.2569C71.3718 50.3976 70.793 50.3333 70.2913 50.0761C69.7895 49.8189 69.3996 49.3867 69.1954 48.8613C68.9912 48.336 68.9869 47.7541 69.1833 47.2258Z" fill="#A0616A"/>
<path d="M99.7198 39.8825C99.2379 39.1889 98.5645 38.6503 97.7818 38.3323C96.999 38.0143 96.1406 37.9306 95.3111 38.0914L87.8633 39.5354C87.8633 39.5354 90.4273 48.1134 93.6742 47.9239C95.0427 47.844 96.7744 47.0406 98.3202 46.1377C98.8414 45.8356 99.2943 45.429 99.6505 44.9434C100.007 44.4579 100.258 43.9039 100.39 43.3163C100.521 42.7287 100.53 42.1203 100.414 41.5293C100.299 40.9384 100.063 40.3777 99.7198 39.8825Z" fill="#3F3D56"/>
<path d="M92.2612 127.501L90.2877 127.484L89.4141 119.699L92.3267 119.724L92.2612 127.501Z" fill="#A0616A"/>
<path d="M93.1498 131.489L92.7826 126.59L92.2673 126.556L90.1653 126.412L89.4889 126.367L89.476 127.777L86.324 129.914C86.1859 130.008 86.0772 130.139 86.0106 130.292C85.9441 130.445 85.9223 130.614 85.948 130.779C85.9736 130.944 86.0455 131.098 86.1554 131.224C86.2653 131.35 86.4087 131.442 86.5688 131.489C86.6481 131.514 86.7306 131.526 86.8136 131.526L90.7364 131.558L90.7708 131.489L91.4235 130.167L91.6618 131.489L91.6747 131.567L93.1562 131.579L93.1498 131.489Z" fill="#2F2E41"/>
<path d="M113.039 126.059L111.153 126.638L107.969 119.48L110.753 118.625L113.039 126.059Z" fill="#A0616A"/>
<path d="M113.262 125.035L112.76 125.157L110.713 125.653H110.711L110.054 125.814L110.469 127.164L108.109 130.151C108.007 130.281 107.944 130.437 107.927 130.602C107.909 130.766 107.938 130.932 108.011 131.081C108.083 131.23 108.195 131.355 108.335 131.444C108.475 131.532 108.637 131.579 108.802 131.58C108.89 131.58 108.977 131.567 109.06 131.541L109.228 131.49L112.811 130.389L113.045 128.855L113.709 130.112L115.124 129.677L113.262 125.035Z" fill="#2F2E41"/>
<path d="M88.2922 62.041L84.5261 72.9791L84.4017 73.8544C83.4528 74.7549 84.6449 75.0515 84.1979 75.289C83.7509 75.5265 83.4503 76.1921 84.0527 76.3111C84.655 76.43 86.5971 119.093 89.1587 120.75C91.7203 122.406 93.2793 123.604 92.8088 121.179C92.6193 120.201 92.8874 114.962 93.2752 109.053C93.3191 108.383 94.0135 107.675 93.4112 107.024C92.8088 106.373 93.4854 105.944 93.5232 105.404C94.0635 97.6881 94.6873 90.0706 94.6873 90.0706C94.6873 90.0706 98.6798 103.773 99.7165 102.712C100.753 101.652 100.343 104.263 100.66 105.044C100.924 105.696 99.7949 106.977 101.455 106.997C103.115 107.016 107.014 120.335 107.409 120.32C108.193 120.291 110.396 120.375 111.704 120.106C112.35 119.973 109.482 109.889 107.088 101.181C106.897 100.487 105.858 100.471 106.526 99.1299C107.195 97.7892 103.869 89.1144 104.155 88.7132C104.912 87.6483 105.201 87.1855 104.454 87.1157C103.707 87.046 103.486 87.4555 103.446 86.4225C103.405 85.3895 103.276 82.8421 103.276 82.8421C103.276 82.8421 102.735 72.7677 98.9465 67.2017L98.6234 63.8946L88.2922 62.041Z" fill="#2F2E41"/>
<path d="M88.461 62.2748C85.1972 62.7485 79.8596 65.6407 83.5708 59.2706L87.4728 49.5442C84.6134 47.3255 87.0158 43.2258 89.4119 39.1286L94.9755 33.5684H99.8087L101.087 38.4267C102.667 41.8267 102.868 45.706 101.649 49.2513C100.854 51.5609 102.809 56.5732 102.417 56.9473C101.559 57.7685 100.056 56.7683 101.559 58.3413C103.062 59.9144 103.363 60.4177 102.783 61.0244C102.203 61.631 100.914 63.5623 100.914 63.5623L98.9437 67.2014L88.461 62.2748Z" fill="#3F3D56"/>
<path d="M98.5524 32.4281C101.388 31.3261 102.792 28.1358 101.69 25.3023C100.587 22.4687 97.3948 21.065 94.5595 22.1669C91.7242 23.2688 90.3196 26.4591 91.4222 29.2927C92.5248 32.1262 95.7171 33.53 98.5524 32.4281Z" fill="#A0616A"/>
<path d="M103.967 34.4494C104.716 35.5207 105.217 36.7452 105.434 38.034C104.83 38.42 104.128 38.6227 103.411 38.6176C103.387 38.5238 103.362 38.43 103.335 38.3362C103.127 37.61 102.818 36.9166 102.417 36.2765C102.472 36.9668 102.378 37.6608 102.142 38.3119C101.764 38.1399 101.358 38.0353 100.943 38.0028C100.606 38.0028 100.272 38.0812 99.9702 38.232C99.6192 37.0684 99.2959 35.9986 99.0665 35.231C99.0596 37.1553 96.2374 38.8329 93.158 38.5898C93.0468 38.5203 94.1625 35.356 94.0548 35.2831C93.808 35.1198 93.5682 34.9427 93.3283 34.769C94.3363 33.2129 95.4311 31.5456 95.2434 31.2955C95.2573 31.6047 94.1521 33.0913 92.9495 34.4946C92.2822 34.0048 96.0741 26.0367 94.2007 25.3907C94.1694 25.672 93.7558 25.672 93.2519 25.613C93.119 25.1488 92.9212 24.7056 92.6645 24.2965C92.6979 24.7086 92.6483 25.1232 92.5185 25.5157C92.0209 25.5158 91.5246 25.5682 91.038 25.672C90.9254 25.4949 90.8011 25.3255 90.6661 25.1649C90.6794 25.3607 90.6736 25.5573 90.6487 25.7519C90.1517 25.8596 89.7416 25.9846 89.6825 26.0854C89.2932 25.9429 89.957 25.3004 89.7138 24.9669C89.0951 24.1333 90.0127 22.9176 90.5931 22.0561C91.7852 20.2916 94.4023 19.6803 96.2548 20.7397C96.3382 20.4514 96.7657 20.2604 97.3149 20.1319C97.5475 20.0806 97.7857 20.0584 98.0239 20.0659C100.387 20.1075 103.668 22.0561 103.797 24.4146C103.807 24.6508 103.825 24.9079 103.842 25.1823C104.009 27.8221 103.804 30.257 105.608 32.1882C106.261 32.8864 106.268 36.1931 106.018 37.8951C105.368 37.2108 104.905 34.5502 103.967 34.4494Z" fill="#2F2E41"/>
<path d="M117.351 128.28C117.451 128.285 117.55 128.259 117.634 128.205C117.719 128.152 117.785 128.074 117.823 127.982C117.862 127.89 117.871 127.788 117.85 127.69C117.829 127.593 117.778 127.504 117.704 127.436L117.671 127.304C117.675 127.293 117.68 127.282 117.684 127.272C117.785 127.034 117.953 126.832 118.169 126.69C118.384 126.548 118.636 126.473 118.894 126.474C119.152 126.475 119.404 126.552 119.618 126.695C119.832 126.839 119.999 127.043 120.098 127.281C120.493 128.231 120.995 129.183 121.119 130.187C121.174 130.632 121.151 131.082 121.051 131.518C121.978 129.497 122.46 127.3 122.463 125.076C122.463 124.518 122.432 123.96 122.37 123.406C122.319 122.951 122.248 122.5 122.157 122.052C121.66 119.62 120.593 117.341 119.043 115.402C118.293 114.993 117.687 114.364 117.305 113.6C117.167 113.326 117.07 113.032 117.016 112.73C117.1 112.741 117.335 111.453 117.271 111.374C117.389 111.196 117.6 111.107 117.728 110.932C118.369 110.065 119.251 110.216 119.712 111.395C120.695 111.891 120.705 112.714 120.101 113.506C119.717 114.01 119.664 114.691 119.327 115.23C119.362 115.274 119.398 115.317 119.433 115.362C120.067 116.176 120.619 117.051 121.082 117.973C120.969 116.94 121.104 115.895 121.474 114.924C121.85 114.019 122.553 113.257 123.173 112.474C123.337 112.264 123.559 112.107 123.812 112.024C124.065 111.94 124.337 111.933 124.594 112.004C124.851 112.074 125.082 112.22 125.256 112.421C125.43 112.623 125.541 112.872 125.574 113.136C125.575 113.148 125.577 113.159 125.578 113.171C125.486 113.222 125.396 113.278 125.308 113.336C125.197 113.41 125.111 113.515 125.061 113.639C125.012 113.762 125.001 113.898 125.029 114.028C125.058 114.158 125.126 114.276 125.223 114.367C125.32 114.458 125.442 114.518 125.574 114.538L125.587 114.54C125.555 114.871 125.497 115.2 125.414 115.523C126.209 118.594 124.493 119.713 122.043 119.764C121.989 119.791 121.936 119.819 121.882 119.845C122.347 121.163 122.639 122.536 122.75 123.928C122.813 124.75 122.809 125.576 122.739 126.397L122.743 126.368C122.921 125.455 123.408 124.631 124.123 124.035C125.185 123.163 126.685 122.842 127.831 122.142C127.952 122.063 128.094 122.022 128.239 122.021C128.383 122.021 128.525 122.062 128.647 122.14C128.769 122.217 128.867 122.328 128.928 122.459C128.989 122.59 129.012 122.736 128.993 122.879L128.988 122.91C128.817 122.979 128.651 123.059 128.49 123.15C128.398 123.201 128.308 123.256 128.22 123.315C128.109 123.389 128.023 123.494 127.974 123.618C127.924 123.741 127.913 123.877 127.942 124.007C127.971 124.137 128.038 124.255 128.135 124.346C128.232 124.437 128.355 124.496 128.486 124.517L128.5 124.519C128.509 124.52 128.518 124.522 128.527 124.523C128.236 125.219 127.826 125.86 127.317 126.418C126.82 129.099 124.685 129.354 122.402 128.573H122.401C122.15 129.661 121.787 130.72 121.317 131.733H117.448C117.434 131.69 117.422 131.645 117.409 131.602C117.768 131.625 118.127 131.604 118.48 131.539C118.193 131.187 117.906 130.832 117.619 130.48C117.612 130.473 117.606 130.466 117.601 130.459C117.455 130.279 117.308 130.1 117.163 129.92L117.163 129.92C117.155 129.367 117.218 128.816 117.351 128.28Z" fill="#F2F2F2"/>
<path d="M74.0742 131.746C74.0741 131.779 74.0807 131.812 74.0935 131.843C74.1063 131.874 74.1251 131.903 74.1488 131.926C74.1726 131.95 74.2008 131.969 74.2318 131.982C74.2629 131.995 74.2962 132.001 74.3297 132.001H128.715C128.782 132.001 128.847 131.974 128.895 131.926C128.943 131.878 128.97 131.813 128.97 131.746C128.97 131.678 128.943 131.613 128.895 131.565C128.847 131.517 128.782 131.49 128.715 131.49H74.3297C74.2962 131.49 74.2629 131.497 74.2318 131.509C74.2008 131.522 74.1726 131.541 74.1488 131.565C74.1251 131.589 74.1063 131.617 74.0935 131.648C74.0807 131.679 74.0741 131.712 74.0742 131.746Z" fill="#797979"/>
<path d="M100.002 76.6502L88.7399 87.0936L74.0593 82.5682L70.6406 67.5996L81.9024 57.1562L96.583 61.6816L100.002 76.6502Z" fill="#F2F2F2"/>
<path d="M81.278 68.8989C81.1129 68.6076 81.0138 68.2838 80.9875 67.95C80.9613 67.6163 81.0085 67.2809 81.126 66.9675C81.2435 66.654 81.4283 66.3701 81.6675 66.1357C81.9066 65.9013 82.1943 65.7222 82.5102 65.611L91.6152 46.7676L95.0057 49.2209L85.5081 67.1577C85.66 67.7005 85.6073 68.28 85.3601 68.7866C85.1129 69.2931 84.6884 69.6914 84.1669 69.9061C83.6455 70.1207 83.0634 70.1367 82.531 69.9511C81.9985 69.7655 81.5527 69.3911 81.278 68.8989Z" fill="#A0616A"/>
<path d="M95.5013 40.914C94.6604 40.8304 93.8134 40.9928 93.0634 41.3817C92.3133 41.7705 91.6926 42.3689 91.2767 43.104L87.543 49.7043C87.543 49.7043 95.7374 53.3211 97.7002 50.7292C98.5274 49.6369 99.0395 47.7987 99.3552 46.0374C99.4634 45.4451 99.4478 44.8368 99.3092 44.2508C99.1707 43.6649 98.9123 43.1139 98.5503 42.6327C98.1883 42.1514 97.7305 41.7502 97.2057 41.4545C96.681 41.1587 96.1007 40.9747 95.5013 40.914Z" fill="#3F3D56"/>
<path d="M72.1762 38.4688V57.0109C72.1753 57.5137 71.975 57.9956 71.6193 58.3512C71.2635 58.7067 70.7812 58.9069 70.2781 58.9078H56.0469L56.1778 58.7404C63.6649 53.7449 68.9705 47.08 72.0087 38.6812L72.1762 38.4688Z" fill="#019ACB"/>
<path d="M12.1628 52.0408L8.25781 58.8001H16.0676L12.1628 52.0408L8.25781 58.8001H16.0676L12.1628 52.0408Z" fill="#F2F2F2"/>
<path d="M41.7187 83.8845C48.8725 83.8845 54.6718 78.0888 54.6718 70.9393C54.6718 63.7899 48.8725 57.9941 41.7187 57.9941C34.5649 57.9941 28.7656 63.7899 28.7656 70.9393C28.7656 78.0888 34.5649 83.8845 41.7187 83.8845Z" fill="#F2F2F2"/>
</g>
<defs>
<clipPath id="clip0_344_28037">
<rect width="129" height="132" fill="white"/>
</clipPath>
</defs>
</svg>
