<svg width="65" height="65" viewBox="0 0 65 65" fill="none" xmlns="http://www.w3.org/2000/svg">
<path d="M59.4 10.1191C59.5177 10.2185 59.591 10.3479 59.6123 10.5137C60.1344 13.9002 60.7796 17.3332 61.5477 20.8027C61.7898 21.8957 62.3959 22.1795 63.3587 21.6507L63.4663 21.5894C64.1212 21.2311 64.4985 20.4532 64.3847 19.7011C63.5632 14.2287 62.6659 8.85737 61.6948 3.58293C61.5319 2.69753 61.3413 1.82451 61.1209 0.968044C60.9784 0.404113 60.6596 0.272576 60.1681 0.565056C54.9713 3.65213 49.7441 6.95171 44.4845 10.468C43.856 10.8888 43.5776 11.7273 43.827 12.436C44.2141 13.5252 44.7613 13.9229 45.8778 13.2483C49.3681 11.1384 52.504 8.87553 55.9771 7.38694C56.1813 7.29962 56.3832 7.4831 56.3268 7.71388C56.2413 8.08233 56.1204 8.44961 55.9679 8.80737C53.3549 14.9756 50.8454 20.3055 48.4412 24.7927C46.5271 28.3676 43.9761 31.8308 40.7937 35.1798C37.4541 38.6932 34.1213 41.7213 30.7951 44.2642C28.4029 46.0888 24.8223 48.7109 21.8442 50.5732C15.4096 54.5911 8.6664 57.9637 1.61469 60.691C1.25263 60.8316 0.986579 61.1824 0.927354 61.5932C0.861098 62.0812 0.897872 62.7022 1.03389 63.4444C1.35003 65.1756 3.26875 64.2256 4.28067 63.8402C16.7321 59.116 28.045 52.2874 38.2248 43.3518C45.2176 37.2145 50.6182 29.7508 54.4247 20.9549C55.9521 17.4236 57.4626 13.8594 58.9487 10.2588C59.0552 9.9957 59.2056 9.94911 59.4 10.1191Z" fill="#2F383F"/>
</svg>
