<svg width="82" height="18" viewBox="0 0 82 18" fill="none" xmlns="http://www.w3.org/2000/svg">
<path d="M1.13754 13.4779C0.818231 12.7063 0.598706 11.9146 0.478965 11.1031C0.412442 10.6374 0.352571 10.1717 0.299353 9.70608C0.259439 9.22712 0.306005 8.7548 0.439051 8.28914C0.505574 7.99644 0.592053 7.71705 0.69849 7.45096C0.804927 7.17156 0.911363 6.89216 1.0178 6.61277C1.09763 6.39989 1.15085 6.18702 1.17745 5.97415C1.21737 5.76128 1.27059 5.54175 1.33711 5.31557C1.47016 4.83661 1.66972 4.42417 1.93582 4.07825C2.20191 3.71902 2.55448 3.42632 2.99353 3.20015C3.40597 2.97397 3.83172 2.79436 4.27077 2.66131C4.70982 2.52826 5.15552 2.42183 5.60788 2.342C6.02032 2.26217 6.43276 2.2023 6.8452 2.16239C7.27095 2.12248 7.69669 2.12913 8.12244 2.18235C8.34862 2.20895 8.53488 2.28878 8.68123 2.42183C8.84089 2.55487 8.92072 2.73449 8.92072 2.96066C8.92072 3.16023 8.84089 3.35315 8.68123 3.53941C8.53488 3.71237 8.34862 3.78555 8.12244 3.75894C8.08253 3.75894 8.04261 3.75894 8.0027 3.75894C7.96279 3.74563 7.92287 3.73898 7.88296 3.73898C7.48382 3.71237 7.07803 3.72568 6.66559 3.77889C6.26645 3.81881 5.87397 3.88533 5.48814 3.97846C5.26196 4.04499 5.03578 4.11151 4.8096 4.17803C4.58342 4.23125 4.3639 4.30442 4.15103 4.39756C4.00468 4.46408 3.85833 4.53725 3.71198 4.61708C3.60554 4.6703 3.53236 4.71687 3.49245 4.75678C3.23966 4.96965 3.07336 5.16922 2.99353 5.35549C2.9137 5.54175 2.84718 5.74132 2.79396 5.95419C2.75405 6.15376 2.71413 6.35998 2.67422 6.57285C2.63431 6.78573 2.58109 6.9853 2.51456 7.17156C2.40813 7.43765 2.30169 7.7104 2.19525 7.98979C2.08882 8.26919 2.00234 8.55524 1.93582 8.84794C1.8959 9.0475 1.8826 9.24707 1.8959 9.44664C1.90921 9.64621 1.92916 9.84578 1.95577 10.0453C1.98238 10.3913 2.02229 10.7505 2.07551 11.123C2.14204 11.4955 2.22852 11.8548 2.33495 12.2007C2.44139 12.5466 2.58109 12.8792 2.75405 13.1985C2.94031 13.5045 3.16649 13.7773 3.43258 14.0168C3.76519 14.2962 4.14437 14.5024 4.57012 14.6354C4.99587 14.7552 5.42161 14.8416 5.84736 14.8949C6.37954 14.9747 6.89842 14.9813 7.40399 14.9148C7.90957 14.8483 8.38853 14.662 8.84089 14.356C9.05376 14.223 9.25333 14.1964 9.43959 14.2762C9.63916 14.3427 9.78551 14.4625 9.87864 14.6354C9.98508 14.7951 10.025 14.988 9.99839 15.2142C9.98508 15.427 9.87199 15.6 9.65912 15.7331C9.0205 16.1588 8.33531 16.4116 7.60356 16.4914C6.88512 16.5579 6.16002 16.538 5.42827 16.4315C4.936 16.365 4.45703 16.2652 3.99137 16.1322C3.52571 15.9858 3.09331 15.7597 2.69418 15.4537C2.00234 14.9481 1.48346 14.2895 1.13754 13.4779ZM12.6622 1.0448C12.9017 1.0448 13.088 1.12463 13.221 1.28429C13.3541 1.44394 13.4339 1.63021 13.4605 1.84308C13.5935 3.10701 13.6667 4.37095 13.68 5.63488C13.6933 6.89882 13.6734 8.16275 13.6202 9.42668C13.5802 10.6906 13.5137 11.9546 13.4206 13.2185C13.3275 14.4824 13.2343 15.7397 13.1412 16.9903C13.1146 17.2165 13.0281 17.4028 12.8818 17.5491C12.7487 17.7088 12.5691 17.7886 12.3429 17.7886C12.1433 17.7886 11.9571 17.7088 11.7841 17.5491C11.6112 17.4028 11.5313 17.2165 11.5446 16.9903C11.6378 15.7397 11.7309 14.4824 11.824 13.2185C11.9305 11.9546 12.0037 10.6906 12.0436 9.42668C12.0968 8.16275 12.1167 6.89882 12.1034 5.63488C12.0901 4.37095 12.017 3.10701 11.8839 1.84308C11.8573 1.63021 11.9305 1.44394 12.1034 1.28429C12.2764 1.12463 12.4627 1.0448 12.6622 1.0448ZM16.1643 16.5114C16.2707 15.8727 16.3904 15.2474 16.5235 14.6354C16.6698 14.0101 16.7763 13.3781 16.8428 12.7395C16.896 12.1142 16.9027 11.5022 16.8627 10.9035C16.8361 10.2915 16.8761 9.67282 16.9825 9.0475C17.0091 8.83463 17.1288 8.67498 17.3417 8.56854C17.5679 8.4621 17.7741 8.43549 17.9604 8.48871C18.1866 8.55524 18.3396 8.68163 18.4194 8.86789C18.5125 9.05416 18.5458 9.25373 18.5192 9.4666C18.4659 9.7726 18.4393 10.0853 18.4393 10.4046C18.4526 10.7239 18.4659 11.0432 18.4793 11.3625C18.4793 11.9745 18.4393 12.5865 18.3595 13.1985C18.2797 13.8372 18.1732 14.4625 18.0402 15.0745C17.9205 15.6865 17.8074 16.3051 17.7009 16.9305C17.661 17.1433 17.5346 17.303 17.3218 17.4094C17.1089 17.5159 16.9093 17.5425 16.723 17.4893C16.4969 17.4227 16.3372 17.2963 16.2441 17.1101C16.151 16.9238 16.1243 16.7242 16.1643 16.5114ZM17.1222 7.33121C17.0291 7.30461 16.9359 7.26469 16.8428 7.21147C16.7497 7.14495 16.6831 7.06512 16.6432 6.97199C16.6033 6.86555 16.57 6.77242 16.5434 6.6926C16.5168 6.61277 16.5035 6.51964 16.5035 6.4132C16.5035 6.29346 16.5235 6.17372 16.5634 6.05398C16.6166 5.81449 16.723 5.64153 16.8827 5.5351C16.9359 5.45527 17.0091 5.3954 17.1022 5.35549C17.2486 5.26235 17.4149 5.21579 17.6012 5.21579C17.7874 5.20248 17.9537 5.24905 18.1001 5.35549C18.1666 5.4087 18.2331 5.46857 18.2996 5.5351C18.3662 5.58832 18.4194 5.66149 18.4593 5.75462C18.4859 5.82115 18.5125 5.89432 18.5391 5.97415C18.579 6.05398 18.5923 6.1338 18.579 6.21363C18.5657 6.30676 18.5524 6.39324 18.5391 6.47307C18.5258 6.5529 18.4926 6.62607 18.4393 6.6926C18.3728 6.78573 18.3196 6.85225 18.2797 6.89216C18.2398 6.93208 18.1732 6.9853 18.0801 7.05182C18.0269 7.10504 17.9471 7.14495 17.8406 7.17156C17.5612 7.33121 17.3218 7.38443 17.1222 7.33121ZM26.8508 15.1543C26.904 15.3406 26.8774 15.5401 26.7709 15.753C26.6645 15.9659 26.5048 16.0923 26.292 16.1322C25.5735 16.2519 24.8617 16.2453 24.1566 16.1122C23.4514 15.9659 22.7995 15.6599 22.2008 15.1942C21.6154 14.7286 21.1963 14.1365 20.9435 13.4181C20.704 12.6863 20.6641 11.9546 20.8238 11.2228C20.9701 10.5709 21.2761 10.0054 21.7418 9.52647C22.2075 9.0475 22.7396 8.67498 23.3383 8.40889C23.8705 8.1561 24.4293 7.95653 25.0147 7.81018C25.6001 7.66383 26.1855 7.61726 26.7709 7.67048C26.9971 7.69709 27.1834 7.78357 27.3297 7.92992C27.4894 8.06297 27.5692 8.24258 27.5692 8.46876C27.5692 8.66832 27.4894 8.85459 27.3297 9.02755C27.1834 9.20051 26.9971 9.28033 26.7709 9.26703C26.3452 9.22712 25.9261 9.24707 25.5136 9.3269C25.1012 9.40673 24.7021 9.53312 24.3162 9.70608C24.0901 9.81252 23.8639 9.92561 23.6377 10.0453C23.4248 10.1651 23.2386 10.2981 23.0789 10.4445C22.9059 10.6041 22.7596 10.7638 22.6399 10.9234C22.5334 11.0831 22.4536 11.2694 22.4004 11.4822C22.3472 11.6951 22.3272 11.9213 22.3405 12.1608C22.3538 12.4003 22.3937 12.6397 22.4602 12.8792C22.5401 13.1054 22.6465 13.3183 22.7796 13.5178C22.9126 13.7041 23.0723 13.8638 23.2585 13.9968C23.6444 14.2762 24.0634 14.4691 24.5158 14.5756C24.9815 14.6687 25.4338 14.6753 25.8729 14.5955C26.0857 14.5556 26.2853 14.5822 26.4716 14.6753C26.6578 14.7685 26.7842 14.9281 26.8508 15.1543ZM29.4747 12.4003C29.4215 12.2406 29.4148 12.0743 29.4547 11.9013C29.3616 10.2915 29.2618 8.69493 29.1554 7.11169C29.0489 5.51514 29.0556 3.91194 29.1753 2.30209C29.2019 2.07591 29.2818 1.88965 29.4148 1.74329C29.5612 1.58364 29.7474 1.50381 29.9736 1.50381C30.1865 1.50381 30.3794 1.58364 30.5524 1.74329C30.7253 1.88965 30.7985 2.07591 30.7719 2.30209C30.6654 3.75229 30.6521 5.18918 30.732 6.61277C30.8118 8.02305 30.8983 9.45329 30.9914 10.9035C31.7365 10.4378 32.4815 9.98548 33.2266 9.54643C33.9849 9.10737 34.7233 8.64172 35.4418 8.14945C35.6547 8.0031 35.8542 7.96983 36.0405 8.04966C36.2401 8.11618 36.3864 8.23593 36.4795 8.40889C36.586 8.58184 36.6259 8.77476 36.5993 8.98763C36.5727 9.20051 36.4529 9.38012 36.2401 9.52647C35.5216 10.0187 34.7899 10.4844 34.0448 10.9234C33.3131 11.3492 32.5746 11.7882 31.8296 12.2406C32.721 12.8393 33.6058 13.4447 34.4839 14.0567C35.362 14.6687 36.2201 15.314 37.0583 15.9925C37.2312 16.1388 37.3111 16.3318 37.2978 16.5712C37.2845 16.7974 37.2046 16.9837 37.0583 17.13C36.8853 17.2897 36.6924 17.3629 36.4795 17.3496C36.28 17.3363 36.0937 17.2631 35.9207 17.13C35.1491 16.5047 34.3641 15.9127 33.5658 15.3539C32.7676 14.7951 31.956 14.2363 31.1311 13.6775C31.1444 14.1831 31.1444 14.6953 31.1311 15.2142C31.1311 15.7331 31.1178 16.2453 31.0912 16.7509C31.0779 17.0169 30.9848 17.2099 30.8118 17.3296C30.6521 17.4626 30.4725 17.5292 30.273 17.5292C30.0734 17.5292 29.8938 17.4626 29.7341 17.3296C29.5745 17.2099 29.5013 17.0169 29.5146 16.7509C29.5412 16.0324 29.5479 15.314 29.5346 14.5955C29.5346 13.8638 29.5146 13.132 29.4747 12.4003ZM45.4194 16.3118C45.2331 16.2453 45.0735 16.1189 44.9404 15.9326C44.8207 15.7331 44.8007 15.5335 44.8806 15.3339C45.1068 14.7086 45.2598 14.0766 45.3396 13.438C45.4194 12.7994 45.4726 12.1475 45.4992 11.4822C45.5125 11.2827 45.5192 11.0898 45.5192 10.9035C45.5192 10.7039 45.5258 10.5044 45.5392 10.3048C45.4992 10.1451 45.5125 9.99213 45.5791 9.84578C45.6057 9.45995 45.6323 9.07411 45.6589 8.68828C45.6855 8.28914 45.7254 7.89666 45.7786 7.51083C45.8452 6.92543 45.9117 6.34668 45.9782 5.77458C46.058 5.18918 46.1112 4.59713 46.1379 3.99842C46.1645 3.45293 46.1911 2.9141 46.2177 2.38191C46.2576 1.83643 46.3973 1.31755 46.6368 0.825279C46.7565 0.599102 46.9162 0.472708 47.1157 0.446099C47.3153 0.406185 47.5016 0.439447 47.6745 0.545883C47.8475 0.639015 47.9739 0.785366 48.0537 0.984934C48.1468 1.1845 48.1335 1.39738 48.0138 1.62355C47.9074 1.84973 47.8342 2.08256 47.7943 2.32204C47.7544 2.56153 47.7278 2.80766 47.7145 3.06045C47.7145 3.31323 47.7145 3.56602 47.7145 3.81881C47.7145 4.07159 47.7078 4.31773 47.6945 4.55721C47.628 5.15592 47.5614 5.75462 47.4949 6.35333C47.4284 6.93873 47.3619 7.53078 47.2954 8.12949C47.8541 7.85009 48.4728 7.69709 49.1513 7.67048C49.6835 7.65718 50.2224 7.75031 50.7678 7.94988C51.3266 8.13614 51.779 8.44215 52.1249 8.86789C52.3245 9.12068 52.4841 9.40008 52.6039 9.70608C52.7236 9.99878 52.8168 10.3114 52.8833 10.6441C52.9631 10.9634 53.0163 11.2893 53.0429 11.6219C53.0695 11.9412 53.0961 12.2539 53.1228 12.5599C53.1627 13.1852 53.176 13.8105 53.1627 14.4359C53.1627 15.0479 53.1494 15.6732 53.1228 16.3118C53.1228 16.5646 53.0363 16.7509 52.8633 16.8706C52.6904 17.0036 52.5041 17.0702 52.3045 17.0702C52.105 17.0702 51.9253 17.0036 51.7657 16.8706C51.606 16.7509 51.5329 16.5646 51.5462 16.3118C51.5595 15.7796 51.5728 15.2474 51.5861 14.7153C51.5994 14.1831 51.5927 13.6509 51.5661 13.1187C51.5395 12.8526 51.5196 12.5799 51.5063 12.3005C51.4929 12.0211 51.4597 11.7417 51.4065 11.4623C51.3799 11.3292 51.3533 11.2028 51.3266 11.0831C51.3133 10.9501 51.2867 10.817 51.2468 10.684C51.2335 10.5775 51.2002 10.4644 51.147 10.3447C51.1071 10.225 51.0805 10.1584 51.0672 10.1451C51.0406 10.1052 51.0206 10.072 51.0073 10.0453C50.994 10.0054 50.9741 9.96552 50.9475 9.92561C50.8277 9.79256 50.7545 9.71939 50.7279 9.70608C50.6747 9.66617 50.6282 9.63956 50.5882 9.62625C50.5483 9.59964 50.5084 9.57303 50.4685 9.54643C50.3221 9.4666 50.1558 9.40008 49.9696 9.34686C49.7833 9.29364 49.6037 9.26703 49.4307 9.26703C48.9784 9.24042 48.5526 9.32025 48.1535 9.50651C47.7677 9.69278 47.4217 9.97882 47.1157 10.3647C47.0891 11.2827 47.0426 12.194 46.976 13.0987C46.9095 13.9902 46.7166 14.8749 46.3973 15.753C46.3308 15.9526 46.2044 16.1122 46.0181 16.232C45.8452 16.3517 45.6456 16.3783 45.4194 16.3118ZM55.9862 8.96768C56.239 8.62176 56.5383 8.31575 56.8842 8.04966C57.2434 7.78357 57.6226 7.57735 58.0218 7.431C58.4209 7.27134 58.8333 7.19152 59.2591 7.19152C59.6848 7.17821 60.1106 7.25804 60.5363 7.431C60.9488 7.59065 61.3213 7.81018 61.6539 8.08958C61.9865 8.35567 62.246 8.70159 62.4322 9.12733C62.5786 9.44664 62.6651 9.79256 62.6917 10.1651C62.7183 10.5376 62.6185 10.8769 62.3923 11.1829C62.1927 11.4623 61.9466 11.6752 61.6539 11.8215C61.3745 11.9679 61.0685 12.0743 60.7359 12.1408C60.4166 12.2073 60.084 12.2406 59.7381 12.2406C59.4054 12.2406 59.0861 12.2339 58.7801 12.2206C58.4342 12.2073 58.0883 12.1807 57.7424 12.1408C57.4098 12.1009 57.0705 12.061 56.7246 12.0211C56.831 12.6198 57.0439 13.152 57.3632 13.6176C57.6825 14.0833 58.1149 14.4359 58.6604 14.6753C58.8067 14.7286 58.9198 14.7685 58.9997 14.7951C59.0396 14.8084 59.0728 14.8217 59.0994 14.835C59.1394 14.835 59.1793 14.835 59.2192 14.835C59.3256 14.8483 59.4121 14.8616 59.4786 14.8749C59.5584 14.8749 59.6316 14.8683 59.6981 14.8549C59.7913 14.8416 59.8511 14.835 59.8778 14.835C59.9177 14.8217 59.9576 14.8084 59.9975 14.7951C60.1438 14.7552 60.2702 14.7086 60.3767 14.6554C60.4964 14.6022 60.6361 14.5157 60.7958 14.3959C60.8756 14.3294 60.982 14.2296 61.1151 14.0966C61.2481 13.9635 61.3612 13.8438 61.4543 13.7374C61.5874 13.5511 61.747 13.4247 61.9333 13.3582C62.1329 13.2917 62.3324 13.3183 62.532 13.438C62.705 13.5444 62.8247 13.7108 62.8912 13.9369C62.9711 14.1498 62.9445 14.3494 62.8114 14.5356C62.4256 15.0545 61.9666 15.5002 61.4344 15.8727C60.9155 16.232 60.3168 16.4249 59.6383 16.4515C59.0928 16.4781 58.5673 16.385 58.0617 16.1721C57.5561 15.9459 57.1104 15.6466 56.7246 15.274C56.2456 14.8084 55.8664 14.2695 55.587 13.6575C55.3076 13.0455 55.1546 12.4202 55.128 11.7816C55.0083 11.6885 54.9151 11.5754 54.8486 11.4423C54.7954 11.296 54.7755 11.1496 54.7888 11.0033C54.8154 10.8569 54.8686 10.7239 54.9484 10.6041C55.0282 10.4711 55.148 10.3846 55.3076 10.3447C55.454 9.85243 55.6802 9.39342 55.9862 8.96768ZM60.7758 9.44664C60.6295 9.26038 60.4033 9.09407 60.0973 8.94772C59.8445 8.84128 59.5451 8.78807 59.1992 8.78807C58.8666 8.78807 58.5806 8.84794 58.3411 8.96768C58.0351 9.11403 57.7623 9.32025 57.5228 9.58634C57.2834 9.83913 57.0904 10.1252 56.9441 10.4445C57.2634 10.4844 57.5827 10.5243 57.902 10.5642C58.2213 10.6041 58.5406 10.6307 58.86 10.6441C59.0329 10.6441 59.2059 10.6441 59.3788 10.6441C59.5518 10.6441 59.7248 10.6374 59.8977 10.6241C59.9509 10.6241 59.9975 10.6241 60.0374 10.6241C60.0906 10.6108 60.1438 10.6041 60.1971 10.6041C60.3168 10.5775 60.4033 10.5642 60.4565 10.5642C60.523 10.5509 60.5895 10.531 60.6561 10.5044C60.7093 10.4911 60.7758 10.4711 60.8556 10.4445C60.9222 10.4179 60.9621 10.3979 60.9754 10.3846C60.9887 10.3713 61.0086 10.358 61.0353 10.3447L61.0951 10.1052C61.0685 10.052 61.0486 10.0054 61.0353 9.96552C61.0353 9.9123 61.0219 9.86574 60.9953 9.82582C60.982 9.78591 60.9488 9.72604 60.8956 9.64621C60.8556 9.56638 60.8157 9.49986 60.7758 9.44664ZM65.0362 8.5885C65.0495 8.33571 65.1426 8.14945 65.3156 8.0297C65.4886 7.89666 65.6748 7.83014 65.8744 7.83014C66.074 7.83014 66.2469 7.89666 66.3933 8.0297C66.5529 8.14945 66.6261 8.33571 66.6128 8.5885C66.6128 8.66832 66.6061 8.7548 66.5928 8.84794C66.5928 8.92776 66.5928 9.00759 66.5928 9.08742C67.0186 8.87454 67.4643 8.69493 67.9299 8.54858C68.4089 8.38893 68.8812 8.28914 69.3469 8.24923C69.8258 8.20932 70.2849 8.24923 70.7239 8.36897C71.1763 8.47541 71.5887 8.68828 71.9612 9.00759C72.1475 9.18055 72.2273 9.36681 72.2007 9.56638C72.1874 9.76595 72.1076 9.93891 71.9612 10.0853C71.8282 10.2183 71.6552 10.3048 71.4424 10.3447C71.2295 10.3713 71.0233 10.3048 70.8237 10.1451C70.6773 10.0254 70.511 9.93891 70.3248 9.88569C70.1518 9.83247 69.9589 9.81252 69.746 9.82582C69.5465 9.82582 69.3402 9.84578 69.1274 9.88569C68.9278 9.92561 68.7349 9.97217 68.5486 10.0254C67.8435 10.2516 67.1849 10.5509 66.5729 10.9234C66.5995 11.5754 66.6394 12.2273 66.6926 12.8792C66.7458 13.4247 66.7924 13.9902 66.8323 14.5756C66.8722 15.1477 66.9853 15.6931 67.1716 16.212C67.2514 16.4515 67.2315 16.6511 67.1117 16.8107C67.0053 16.9837 66.8523 17.0968 66.6527 17.15C66.4664 17.2032 66.2669 17.1899 66.054 17.1101C65.8544 17.0302 65.7147 16.8706 65.6349 16.6311C65.5285 16.3251 65.4553 16.0124 65.4154 15.6931C65.3755 15.3738 65.3356 15.0545 65.2956 14.7352C65.269 14.4292 65.2358 14.1232 65.1959 13.8172C65.1692 13.4979 65.1426 13.1852 65.116 12.8792C65.0495 12.1608 65.0029 11.449 64.9763 10.7438C64.963 10.0254 64.983 9.30694 65.0362 8.5885ZM74.1262 8.96768C74.3789 8.62176 74.6783 8.31575 75.0242 8.04966C75.3834 7.78357 75.7626 7.57735 76.1618 7.431C76.5609 7.27134 76.9733 7.19152 77.3991 7.19152C77.8248 7.17821 78.2506 7.25804 78.6763 7.431C79.0888 7.59065 79.4613 7.81018 79.7939 8.08958C80.1265 8.35567 80.386 8.70159 80.5722 9.12733C80.7186 9.44664 80.805 9.79256 80.8317 10.1651C80.8583 10.5376 80.7585 10.8769 80.5323 11.1829C80.3327 11.4623 80.0866 11.6752 79.7939 11.8215C79.5145 11.9679 79.2085 12.0743 78.8759 12.1408C78.5566 12.2073 78.224 12.2406 77.878 12.2406C77.5454 12.2406 77.2261 12.2339 76.9201 12.2206C76.5742 12.2073 76.2283 12.1807 75.8824 12.1408C75.5497 12.1009 75.2105 12.061 74.8646 12.0211C74.971 12.6198 75.1839 13.152 75.5032 13.6176C75.8225 14.0833 76.2549 14.4359 76.8004 14.6753C76.9467 14.7286 77.0598 14.7685 77.1396 14.7951C77.1796 14.8084 77.2128 14.8217 77.2394 14.835C77.2793 14.835 77.3192 14.835 77.3592 14.835C77.4656 14.8483 77.5521 14.8616 77.6186 14.8749C77.6984 14.8749 77.7716 14.8683 77.8381 14.8549C77.9313 14.8416 77.9911 14.835 78.0177 14.835C78.0577 14.8217 78.0976 14.8084 78.1375 14.7951C78.2838 14.7552 78.4102 14.7086 78.5167 14.6554C78.6364 14.6022 78.7761 14.5157 78.9358 14.3959C79.0156 14.3294 79.122 14.2296 79.2551 14.0966C79.3881 13.9635 79.5012 13.8438 79.5943 13.7374C79.7274 13.5511 79.887 13.4247 80.0733 13.3582C80.2729 13.2917 80.4724 13.3183 80.672 13.438C80.845 13.5444 80.9647 13.7108 81.0312 13.9369C81.1111 14.1498 81.0844 14.3494 80.9514 14.5356C80.5656 15.0545 80.1066 15.5002 79.5744 15.8727C79.0555 16.232 78.4568 16.4249 77.7783 16.4515C77.2328 16.4781 76.7072 16.385 76.2017 16.1721C75.6961 15.9459 75.2504 15.6466 74.8646 15.274C74.3856 14.8084 74.0064 14.2695 73.727 13.6575C73.4476 13.0455 73.2946 12.4202 73.268 11.7816C73.1483 11.6885 73.0551 11.5754 72.9886 11.4423C72.9354 11.296 72.9154 11.1496 72.9287 11.0033C72.9553 10.8569 73.0086 10.7239 73.0884 10.6041C73.1682 10.4711 73.288 10.3846 73.4476 10.3447C73.594 9.85243 73.8201 9.39342 74.1262 8.96768ZM78.9158 9.44664C78.7694 9.26038 78.5433 9.09407 78.2373 8.94772C77.9845 8.84128 77.6851 8.78807 77.3392 8.78807C77.0066 8.78807 76.7205 8.84794 76.4811 8.96768C76.1751 9.11403 75.9023 9.32025 75.6628 9.58634C75.4233 9.83913 75.2304 10.1252 75.0841 10.4445C75.4034 10.4844 75.7227 10.5243 76.042 10.5642C76.3613 10.6041 76.6806 10.6307 76.9999 10.6441C77.1729 10.6441 77.3459 10.6441 77.5188 10.6441C77.6918 10.6441 77.8647 10.6374 78.0377 10.6241C78.0909 10.6241 78.1375 10.6241 78.1774 10.6241C78.2306 10.6108 78.2838 10.6041 78.337 10.6041C78.4568 10.5775 78.5433 10.5642 78.5965 10.5642C78.663 10.5509 78.7295 10.531 78.7961 10.5044C78.8493 10.4911 78.9158 10.4711 78.9956 10.4445C79.0621 10.4179 79.1021 10.3979 79.1154 10.3846C79.1287 10.3713 79.1486 10.358 79.1752 10.3447L79.2351 10.1052C79.2085 10.052 79.1885 10.0054 79.1752 9.96552C79.1752 9.9123 79.1619 9.86574 79.1353 9.82582C79.122 9.78591 79.0888 9.72604 79.0355 9.64621C78.9956 9.56638 78.9557 9.49986 78.9158 9.44664Z" fill="#2F383F"/>
</svg>
