<svg width="18" height="18" viewBox="0 0 18 18" fill="none" xmlns="http://www.w3.org/2000/svg">
<path fill-rule="evenodd" clip-rule="evenodd" d="M8.954 0.399994L10.1999 0.399994C10.5313 0.399994 10.7999 0.668623 10.7999 0.999994C10.7999 1.33137 10.5313 1.59999 10.1999 1.59999H8.9999C7.09732 1.59999 5.73075 1.60127 4.69076 1.74109C3.66804 1.87859 3.05146 2.14011 2.59574 2.59583C2.14001 3.05156 1.8785 3.66813 1.741 4.69086C1.60118 5.73084 1.5999 7.09741 1.5999 8.99999C1.5999 10.9026 1.60118 12.2691 1.741 13.3091C1.8785 14.3319 2.14001 14.9484 2.59574 15.4042C3.05146 15.8599 3.66804 16.1214 4.69076 16.2589C5.73075 16.3987 7.09732 16.4 8.9999 16.4C10.9025 16.4 12.2691 16.3987 13.309 16.2589C14.3318 16.1214 14.9483 15.8599 15.4041 15.4042C15.8598 14.9484 16.1213 14.3319 16.2588 13.3091C16.3986 12.2691 16.3999 10.9026 16.3999 8.99999V7.79999C16.3999 7.46862 16.6685 7.19999 16.9999 7.19999C17.3313 7.19999 17.5999 7.46862 17.5999 7.79999V9.04589C17.5999 10.8926 17.5999 12.3398 17.4481 13.469C17.2927 14.6248 16.9684 15.5368 16.2526 16.2527C15.5367 16.9685 14.6247 17.2928 13.4689 17.4482C12.3397 17.6 10.8925 17.6 9.0458 17.6H8.954C7.10729 17.6 5.66006 17.6 4.53087 17.4482C3.37508 17.2928 2.46306 16.9685 1.74721 16.2527C1.03136 15.5368 0.707091 14.6248 0.5517 13.469C0.399884 12.3398 0.399892 10.8926 0.399903 9.0459V8.95409C0.399892 7.10738 0.399884 5.66015 0.5517 4.53096C0.707091 3.37517 1.03136 2.46315 1.74721 1.7473C2.46306 1.03146 3.37508 0.707183 4.53087 0.551791C5.66006 0.399976 7.10728 0.399984 8.954 0.399994ZM12.8163 1.22073C13.9106 0.126417 15.6849 0.126417 16.7792 1.22073C17.8735 2.31503 17.8735 4.08926 16.7792 5.18357L11.4607 10.5021C11.1637 10.7991 10.9776 10.9852 10.77 11.1472C10.5254 11.3379 10.2608 11.5014 9.98082 11.6349C9.74311 11.7482 9.49346 11.8314 9.09493 11.9642L6.77131 12.7387C6.34231 12.8817 5.86935 12.7701 5.54959 12.4503C5.22984 12.1305 5.11819 11.6576 5.26118 11.2286L6.03572 8.90498C6.16853 8.50644 6.25173 8.25679 6.36502 8.01907C6.49845 7.7391 6.66199 7.47448 6.85274 7.22993C7.01469 7.02229 7.20078 6.83623 7.49786 6.53919L12.8163 1.22073ZM15.9306 2.06925C15.305 1.44357 14.2905 1.44357 13.6649 2.06925L13.3636 2.37055C13.3817 2.44724 13.4071 2.53861 13.4425 2.64053C13.5571 2.97097 13.7741 3.40617 14.1839 3.81599C14.5937 4.22581 15.0289 4.44277 15.3594 4.55741C15.4613 4.59277 15.5527 4.61818 15.6293 4.63634L15.9306 4.33504C16.5563 3.70936 16.5563 2.69493 15.9306 2.06925ZM14.684 5.58167C14.2712 5.40415 13.7904 5.11956 13.3354 4.66452C12.8803 4.20947 12.5957 3.72865 12.4182 3.31588L8.37391 7.3602C8.0407 7.69341 7.91002 7.82556 7.79895 7.96795C7.66181 8.14379 7.54422 8.33404 7.44829 8.53534C7.37059 8.69836 7.31084 8.87434 7.16183 9.32139L6.81631 10.3579L7.64196 11.1836L8.67851 10.8381C9.12556 10.6891 9.30154 10.6293 9.46456 10.5516C9.66586 10.4557 9.85611 10.3381 10.0319 10.2009C10.1743 10.0899 10.3065 9.9592 10.6397 9.62599L14.684 5.58167Z" fill="#9197B3"/>
</svg>
