<svg width="24" height="24" viewBox="0 0 24 24" fill="none" xmlns="http://www.w3.org/2000/svg">
<path fill-rule="evenodd" clip-rule="evenodd" d="M11.9573 4L13.1163 4C13.4246 4 13.6744 4.24989 13.6744 4.55814C13.6744 4.86639 13.4246 5.11628 13.1163 5.11628H12C10.2302 5.11628 8.95896 5.11746 7.99153 5.24753C7.04016 5.37544 6.4666 5.61871 6.04267 6.04264C5.61874 6.46657 5.37547 7.04013 5.24756 7.9915C5.1175 8.95893 5.11631 10.2302 5.11631 12C5.11631 13.7698 5.1175 15.0411 5.24756 16.0085C5.37547 16.9599 5.61874 17.5334 6.04267 17.9574C6.4666 18.3813 7.04016 18.6246 7.99153 18.7525C8.95896 18.8825 10.2302 18.8837 12 18.8837C13.7699 18.8837 15.0411 18.8825 16.0085 18.7525C16.9599 18.6246 17.5335 18.3813 17.9574 17.9574C18.3813 17.5334 18.6246 16.9599 18.7525 16.0085C18.8826 15.0411 18.8837 13.7698 18.8837 12V10.8837C18.8837 10.5755 19.1336 10.3256 19.4419 10.3256C19.7501 10.3256 20 10.5755 20 10.8837V12.0427C20 13.7606 20 15.1068 19.8588 16.1572C19.7143 17.2324 19.4126 18.0808 18.7467 18.7467C18.0808 19.4126 17.2324 19.7142 16.1573 19.8588C15.1069 20 13.7606 20 12.0427 20H11.9573C10.2395 20 8.8932 20 7.84279 19.8588C6.76764 19.7142 5.91925 19.4126 5.25334 18.7467C4.58744 18.0808 4.28579 17.2324 4.14124 16.1572C4.00001 15.1068 4.00002 13.7606 4.00003 12.0427V11.9573C4.00002 10.2394 4.00001 8.89317 4.14124 7.84276C4.28579 6.76761 4.58744 5.91922 5.25334 5.25331C5.91925 4.58741 6.76764 4.28576 7.84279 4.14121C8.8932 3.99998 10.2395 3.99999 11.9573 4ZM15.5502 4.76347C16.5682 3.74551 18.2186 3.74551 19.2366 4.76347C20.2545 5.78143 20.2545 7.43188 19.2366 8.44984L14.2891 13.3973C14.0128 13.6736 13.8398 13.8467 13.6466 13.9974C13.4191 14.1748 13.173 14.3269 12.9125 14.4511C12.6914 14.5564 12.4592 14.6338 12.0884 14.7574L9.92692 15.4779C9.52785 15.6109 9.08788 15.507 8.79044 15.2096C8.49299 14.9121 8.38913 14.4722 8.52215 14.0731L9.24265 11.9116C9.3662 11.5409 9.44359 11.3086 9.54898 11.0875C9.6731 10.8271 9.82523 10.5809 10.0027 10.3534C10.1533 10.1603 10.3264 9.98719 10.6028 9.71088L15.5502 4.76347ZM18.4472 5.5528C17.8652 4.97077 16.9215 4.97077 16.3395 5.5528L16.0592 5.83308C16.0761 5.90441 16.0998 5.98941 16.1327 6.08422C16.2393 6.39161 16.4411 6.79644 16.8224 7.17767C17.2036 7.5589 17.6084 7.76072 17.9158 7.86736C18.0106 7.90025 18.0956 7.92389 18.167 7.94078L18.4472 7.66051C19.0293 7.07848 19.0293 6.13483 18.4472 5.5528ZM17.2876 8.82016C16.9036 8.65503 16.4563 8.3903 16.033 7.967C15.6097 7.5437 15.345 7.09643 15.1799 6.71245L11.4177 10.4746C11.1077 10.7846 10.9862 10.9075 10.8829 11.04C10.7553 11.2035 10.6459 11.3805 10.5567 11.5678C10.4844 11.7194 10.4288 11.8831 10.2902 12.299L9.96878 13.2632L10.7368 14.0312L11.7011 13.7098C12.1169 13.5712 12.2806 13.5156 12.4323 13.4434C12.6195 13.3541 12.7965 13.2447 12.9601 13.1172C13.0925 13.0138 13.2155 12.8923 13.5254 12.5823L17.2876 8.82016Z" fill="#707070"/>
</svg>
