<svg width="18" height="18" viewBox="0 0 18 18" fill="none" xmlns="http://www.w3.org/2000/svg">
<path fill-rule="evenodd" clip-rule="evenodd" d="M7.76842 0.399994H10.2314C11.5141 0.399989 12.5197 0.399985 13.323 0.476368C14.1419 0.554224 14.8123 0.715649 15.4034 1.07785C16.0224 1.45715 16.5428 1.97755 16.922 2.5965C17.2842 3.18756 17.4457 3.85804 17.5235 4.67688C17.5999 5.48023 17.5999 6.48579 17.5999 7.7685V8.62227C17.5999 9.5353 17.5999 10.2512 17.5605 10.8295C17.5203 11.4178 17.4373 11.9075 17.2497 12.3603C16.7829 13.4875 15.8874 14.383 14.7602 14.8498C14.1163 15.1166 13.3828 15.1758 12.3785 15.1931C12.0273 15.1991 11.8048 15.2036 11.6352 15.2223C11.4767 15.2399 11.4152 15.2656 11.3793 15.2865C11.3414 15.3086 11.2897 15.3488 11.2 15.4719C11.1029 15.6051 10.9932 15.7892 10.8192 16.0831L10.3856 16.8158C9.7667 17.8613 8.23308 17.8613 7.61422 16.8158L7.18054 16.0831C7.00658 15.7892 6.89687 15.6051 6.79979 15.4719C6.71008 15.3488 6.6584 15.3086 6.62048 15.2865C6.58453 15.2656 6.52309 15.2399 6.36461 15.2223C6.195 15.2036 5.97251 15.1991 5.62123 15.1931C4.617 15.1758 3.88354 15.1166 3.23956 14.8498C2.11243 14.383 1.21693 13.4875 0.750057 12.3603C0.562486 11.9075 0.479499 11.4178 0.439354 10.8295C0.399898 10.2512 0.3999 9.5353 0.399903 8.62226L0.399902 7.76851C0.399897 6.4858 0.399893 5.48023 0.476276 4.67688C0.554132 3.85804 0.715558 3.18756 1.07776 2.5965C1.45705 1.97755 1.97745 1.45715 2.59641 1.07785C3.18747 0.715649 3.85795 0.554224 4.67679 0.476368C5.48014 0.399985 6.48571 0.399989 7.76842 0.399994ZM4.79037 1.67098C4.05937 1.74048 3.59423 1.87378 3.22341 2.10102C2.76592 2.38137 2.38128 2.76601 2.10093 3.2235C1.87369 3.59432 1.74039 4.05946 1.67089 4.79046C1.60054 5.53039 1.5999 6.479 1.5999 7.79999V8.59999C1.5999 9.54009 1.60023 10.2151 1.63657 10.7478C1.67255 11.2751 1.7418 11.6189 1.85871 11.9011C2.20379 12.7342 2.86568 13.3961 3.69878 13.7412C4.11129 13.9121 4.63755 13.9759 5.6419 13.9932L5.66736 13.9937C5.98576 13.9992 6.26477 14.0039 6.49668 14.0296C6.74587 14.0572 6.98959 14.113 7.22379 14.2492C7.45602 14.3843 7.62353 14.5647 7.76955 14.7651C7.90448 14.9502 8.04314 15.1845 8.20019 15.4499L8.64688 16.2045C8.80108 16.4651 9.19869 16.4651 9.35289 16.2045L9.79958 15.4499C9.95663 15.1845 10.0953 14.9502 10.2302 14.7651C10.3762 14.5647 10.5437 14.3843 10.776 14.2492C11.0102 14.113 11.2539 14.0572 11.5031 14.0296C11.735 14.0039 12.014 13.9992 12.3324 13.9937L12.3579 13.9932C13.3622 13.9759 13.8885 13.9121 14.301 13.7412C15.1341 13.3961 15.796 12.7342 16.1411 11.9011C16.258 11.6189 16.3273 11.2751 16.3632 10.7478C16.3996 10.2151 16.3999 9.54009 16.3999 8.59999V7.79999C16.3999 6.479 16.3993 5.53039 16.3289 4.79046C16.2594 4.05946 16.1261 3.59432 15.8989 3.2235C15.6185 2.76601 15.2339 2.38137 14.7764 2.10102C14.4056 1.87378 13.9404 1.74048 13.2094 1.67098C12.4695 1.60063 11.5209 1.59999 10.1999 1.59999H7.7999C6.47891 1.59999 5.5303 1.60063 4.79037 1.67098ZM5.1999 6.59999C5.1999 6.26862 5.46853 5.99999 5.7999 5.99999H12.1999C12.5313 5.99999 12.7999 6.26862 12.7999 6.59999C12.7999 6.93136 12.5313 7.19999 12.1999 7.19999H5.7999C5.46853 7.19999 5.1999 6.93136 5.1999 6.59999ZM5.1999 9.39999C5.1999 9.06862 5.46853 8.79999 5.7999 8.79999H10.1999C10.5313 8.79999 10.7999 9.06862 10.7999 9.39999C10.7999 9.73136 10.5313 9.99999 10.1999 9.99999H5.7999C5.46853 9.99999 5.1999 9.73136 5.1999 9.39999Z" fill="#019ACB"/>
</svg>
