<svg width="24" height="24" viewBox="0 0 24 24" fill="none" xmlns="http://www.w3.org/2000/svg">
<path d="M12 4C7.58883 4 4.00003 7.56405 4.00003 11.9448V15.2364C4.00003 16.0499 4.71763 16.7117 5.60003 16.7117H6.40003C6.6122 16.7117 6.81569 16.628 6.96572 16.479C7.11574 16.33 7.20003 16.128 7.20003 15.9172V11.8312C7.20003 11.6205 7.11574 11.4184 6.96572 11.2694C6.81569 11.1204 6.6122 11.0367 6.40003 11.0367H5.67363C6.11843 7.96209 8.78243 5.58897 12 5.58897C15.2176 5.58897 17.8816 7.96209 18.3264 11.0367H17.6C17.3879 11.0367 17.1844 11.1204 17.0343 11.2694C16.8843 11.4184 16.8 11.6205 16.8 11.8312V16.7117C16.8 17.588 16.0824 18.3007 15.2 18.3007H13.6V17.5062H10.4V19.8897H15.2C16.9648 19.8897 18.4 18.4644 18.4 16.7117C19.2824 16.7117 20 16.0499 20 15.2364V11.9448C20 7.56405 16.4112 4 12 4Z" fill="#707070"/>
</svg>
