<svg width="18" height="19" viewBox="0 0 18 19" fill="none" xmlns="http://www.w3.org/2000/svg">
<path fill-rule="evenodd" clip-rule="evenodd" d="M13.95 0.585992C14.1375 0.77352 14.2428 1.02783 14.2428 1.29299C14.2428 1.55816 14.1375 1.81246 13.95 1.99999L10.95 4.99999H16C16.5304 4.99999 17.0391 5.21071 17.4142 5.58578C17.7893 5.96085 18 6.46956 18 6.99999V17C18 17.5304 17.7893 18.0391 17.4142 18.4142C17.0391 18.7893 16.5304 19 16 19H2C1.46957 19 0.960859 18.7893 0.585786 18.4142C0.210714 18.0391 0 17.5304 0 17V6.99999C0 6.46956 0.210714 5.96085 0.585786 5.58578C0.960859 5.21071 1.46957 4.99999 2 4.99999H5.636L4.05 3.41399C3.86249 3.22635 3.7572 2.97191 3.7573 2.70664C3.75739 2.44137 3.86286 2.187 4.0505 1.99949C4.23814 1.81198 4.49258 1.7067 4.75785 1.70679C5.02312 1.70688 5.27749 1.81235 5.465 1.99999L7.939 4.47499C8.03276 4.56873 8.15992 4.62139 8.2925 4.62139C8.42508 4.62139 8.55224 4.56873 8.646 4.47499L12.536 0.584992C12.7235 0.397521 12.9778 0.292206 13.243 0.292206C13.5082 0.292206 13.7625 0.398521 13.95 0.585992ZM16 6.99999H2V17H16V6.99999ZM5.98 9.54699C6.00105 9.3547 6.06708 9.17007 6.17275 9.00804C6.27842 8.84601 6.42076 8.71114 6.58824 8.61435C6.75572 8.51756 6.94365 8.46157 7.13679 8.45091C7.32994 8.44025 7.52288 8.47522 7.7 8.55299C8.45378 8.88583 9.18828 9.26075 9.9 9.67599C10.6164 10.0854 11.3091 10.5348 11.975 11.022C12.643 11.516 12.645 12.511 11.975 13.006C11.3091 13.4925 10.6163 13.9412 9.9 14.35C8.903 14.926 8.115 15.293 7.7 15.474C7.52299 15.5522 7.33003 15.5875 7.13679 15.5771C6.94356 15.5667 6.7555 15.5109 6.58791 15.4141C6.42032 15.3174 6.27792 15.1825 6.17229 15.0203C6.06666 14.8582 6.00078 14.6734 5.98 14.481C5.89317 13.6615 5.85044 12.838 5.852 12.014C5.852 10.874 5.93 9.99999 5.98 9.54699ZM7.882 10.853C7.84297 11.6258 7.84297 12.4002 7.882 13.173C8.57041 12.8203 9.2406 12.4332 9.89 12.013C9.2406 11.5928 8.57041 11.2056 7.882 10.853Z" fill="#9197B3"/>
</svg>
