<svg width="24" height="24" viewBox="0 0 24 24" fill="none" xmlns="http://www.w3.org/2000/svg">
<path fill-rule="evenodd" clip-rule="evenodd" d="M16.9636 2.27301C17.1378 2.44728 17.2357 2.68361 17.2357 2.93002C17.2357 3.17644 17.1378 3.41276 16.9636 3.58703L14.1757 6.3749H18.8687C19.3616 6.3749 19.8343 6.57072 20.1829 6.91927C20.5314 7.26782 20.7272 7.74056 20.7272 8.23348V17.5264C20.7272 18.0193 20.5314 18.4921 20.1829 18.8406C19.8343 19.1892 19.3616 19.385 18.8687 19.385H5.85858C5.36566 19.385 4.89292 19.1892 4.54437 18.8406C4.19581 18.4921 4 18.0193 4 17.5264V8.23348C4 7.74056 4.19581 7.26782 4.54437 6.91927C4.89292 6.57072 5.36566 6.3749 5.85858 6.3749H9.23748L7.76363 4.90105C7.58938 4.72668 7.49154 4.49022 7.49162 4.24371C7.49171 3.9972 7.58972 3.76082 7.76409 3.58657C7.93847 3.41232 8.17492 3.31447 8.42143 3.31456C8.66794 3.31465 8.90433 3.41266 9.07857 3.58703L11.3776 5.88703C11.4648 5.97413 11.5829 6.02307 11.7061 6.02307C11.8294 6.02307 11.9475 5.97413 12.0346 5.88703L15.6496 2.27208C15.8239 2.09787 16.0602 2 16.3066 2C16.553 2 16.7893 2.0988 16.9636 2.27301ZM18.8687 8.23348H5.85858V17.5264H18.8687V8.23348ZM9.55716 10.6004C9.57672 10.4217 9.63808 10.2501 9.73628 10.0995C9.83448 9.94897 9.96675 9.82364 10.1224 9.7337C10.278 9.64375 10.4527 9.59172 10.6322 9.58181C10.8116 9.5719 10.9909 9.6044 11.1555 9.67667C11.856 9.98598 12.5386 10.3344 13.2 10.7203C13.8657 11.1007 14.5095 11.5183 15.1283 11.9711C15.749 12.4302 15.7509 13.3548 15.1283 13.8148C14.5094 14.2669 13.8656 14.6839 13.2 15.0638C12.2735 15.599 11.5412 15.9401 11.1555 16.1083C10.991 16.181 10.8117 16.2138 10.6322 16.2042C10.4526 16.1945 10.2778 16.1426 10.1221 16.0527C9.96634 15.9628 9.83401 15.8374 9.73585 15.6867C9.63769 15.536 9.57647 15.3643 9.55716 15.1855C9.47647 14.424 9.43676 13.6587 9.43821 12.8929C9.43821 11.8336 9.51069 11.0214 9.55716 10.6004ZM11.3247 11.814C11.2884 12.5322 11.2884 13.2518 11.3247 13.97C11.9644 13.6423 12.5872 13.2825 13.1907 12.892C12.5872 12.5015 11.9644 12.1418 11.3247 11.814Z" fill="white"/>
</svg>
