<svg width="22" height="14" viewBox="0 0 22 14" fill="none" xmlns="http://www.w3.org/2000/svg">
<path d="M15 7.99999L20.223 11.482C20.2983 11.5321 20.3858 11.5608 20.4761 11.5652C20.5664 11.5695 20.6563 11.5492 20.736 11.5065C20.8157 11.4638 20.8824 11.4003 20.9289 11.3227C20.9754 11.2452 21 11.1564 21 11.066V2.86999C21 2.78201 20.9768 2.69559 20.9328 2.61944C20.8887 2.54329 20.8253 2.48011 20.7491 2.43629C20.6728 2.39247 20.5863 2.36955 20.4983 2.36985C20.4103 2.37014 20.324 2.39365 20.248 2.43799L15 5.49999" stroke="#9197B3" stroke-width="1.5" stroke-linecap="round" stroke-linejoin="round"/>
<path d="M13 1H3C1.89543 1 1 1.89543 1 3V11C1 12.1046 1.89543 13 3 13H13C14.1046 13 15 12.1046 15 11V3C15 1.89543 14.1046 1 13 1Z" stroke="#9197B3" stroke-width="1.5" stroke-linecap="round" stroke-linejoin="round"/>
</svg>
