<svg width="24" height="24" viewBox="0 0 24 24" fill="none" xmlns="http://www.w3.org/2000/svg">
<path d="M15.1995 12.5612L19.3778 15.3275C19.438 15.3674 19.508 15.3902 19.5802 15.3936C19.6525 15.3971 19.7244 15.381 19.7882 15.347C19.8519 15.3131 19.9053 15.2627 19.9425 15.201C19.9797 15.1394 19.9993 15.0689 19.9993 14.997V8.48561C19.9994 8.41571 19.9808 8.34705 19.9456 8.28655C19.9103 8.22605 19.8596 8.17586 19.7986 8.14105C19.7376 8.10623 19.6684 8.08802 19.598 8.08826C19.5276 8.0885 19.4585 8.10717 19.3978 8.1424L15.1995 10.5751" stroke="white" stroke-width="1.1917" stroke-linecap="round" stroke-linejoin="round"/>
<path d="M13.5998 7H5.59997C4.71633 7 4 7.71139 4 8.58893V14.9447C4 15.8222 4.71633 16.5336 5.59997 16.5336H13.5998C14.4834 16.5336 15.1998 15.8222 15.1998 14.9447V8.58893C15.1998 7.71139 14.4834 7 13.5998 7Z" stroke="white" stroke-width="1.1917" stroke-linecap="round" stroke-linejoin="round"/>
</svg>
