<svg width="6" height="12" viewBox="0 0 6 12" fill="none" xmlns="http://www.w3.org/2000/svg">
<path d="M0.157843 11.0689L4.76884 6.38395C4.86997 6.28173 4.92669 6.14374 4.92669 5.99995C4.92669 5.85616 4.86997 5.71817 4.76884 5.61595L0.158843 0.930948C0.0577669 0.828092 0.00113056 0.689655 0.00113056 0.545448C0.00113055 0.401241 0.0577669 0.262803 0.158843 0.159948C0.208219 0.109299 0.267235 0.0690472 0.332412 0.0415633C0.397589 0.0140793 0.467608 -7.98668e-05 0.538343 -7.98699e-05C0.609077 -7.9873e-05 0.679096 0.0140793 0.744273 0.0415633C0.80945 0.0690472 0.868465 0.109299 0.917842 0.159948L5.52784 4.84395C5.83077 5.15247 6.00049 5.56757 6.00049 5.99995C6.00049 6.43232 5.83077 6.84743 5.52784 7.15595L0.917843 11.8399C0.86845 11.8907 0.809373 11.9311 0.744103 11.9587C0.678834 11.9863 0.608698 12.0005 0.537843 12.0005C0.466988 12.0005 0.396852 11.9863 0.331583 11.9587C0.266314 11.9311 0.207235 11.8907 0.157843 11.8399C0.056767 11.7371 0.000130636 11.5987 0.00013063 11.4544C0.000130623 11.3102 0.056767 11.1718 0.157843 11.0689Z" fill="white"/>
</svg>
