<svg width="22" height="26" viewBox="0 0 22 26" fill="none" xmlns="http://www.w3.org/2000/svg">
<path fill-rule="evenodd" clip-rule="evenodd" d="M8.88757 22.5765C9.48406 23.2409 10.2498 23.6059 11.0444 23.6059H11.0455C11.8435 23.6059 12.6127 23.2409 13.2104 22.5753C13.5305 22.2218 14.0763 22.193 14.4298 22.512C14.7845 22.8309 14.8133 23.3779 14.4943 23.7314C13.5639 24.7643 12.3398 25.3332 11.0455 25.3332H11.0432C9.75236 25.332 8.5306 24.7632 7.60363 23.7303C7.28466 23.3768 7.31345 22.8298 7.66812 22.512C8.02278 22.1918 8.5686 22.2206 8.88757 22.5765ZM11.1017 0.575607C16.2202 0.575607 19.6586 4.56215 19.6586 8.285C19.6586 10.2 20.1457 11.0118 20.6627 11.8731C21.174 12.7229 21.7532 13.6879 21.7532 15.5119C21.3513 20.1721 16.4862 20.5521 11.1017 20.5521C5.71722 20.5521 0.850917 20.1721 0.453629 15.5856C0.450189 13.6879 1.0294 12.7229 1.54067 11.8731L1.72117 11.5693C2.16557 10.8055 2.5448 9.97468 2.5448 8.285C2.5448 4.56215 5.98322 0.575607 11.1017 0.575607ZM11.1017 2.30288C7.07716 2.30288 4.27207 5.45573 4.27207 8.285C4.27207 10.679 3.60764 11.7856 3.02037 12.7621C2.5494 13.5463 2.17746 14.1658 2.17746 15.5119C2.36977 17.6837 3.8034 18.8248 11.1017 18.8248C18.3597 18.8248 19.8382 17.633 20.0294 15.4371C20.0259 14.1658 19.654 13.5463 19.183 12.7621C18.5958 11.7856 17.9313 10.679 17.9313 8.285C17.9313 5.45573 15.1262 2.30288 11.1017 2.30288Z" fill="#019ACB"/>
</svg>
