<svg width="208" height="69" viewBox="0 0 208 69" fill="none" xmlns="http://www.w3.org/2000/svg">
<path d="M38.7464 27.2536C40.2672 25.7328 42.7328 25.7328 44.2536 27.2536C47.6734 30.6734 53.0244 26.0326 50.1226 22.1635L38.5742 6.76558C36.2355 3.6473 31.4365 4.06541 29.6723 7.54116L17.0605 32.3884C13.9704 38.4763 21.8257 44.1743 26.6534 39.3466L38.7464 27.2536Z" fill="#65DAFF"/>
<path d="M55.104 40.268C55.104 41.5693 54.8053 42.764 54.208 43.852C53.6107 44.9187 52.6933 45.7827 51.456 46.444C50.2187 47.1053 48.6827 47.436 46.848 47.436H43.456V55.5H37.984V33.036H46.848C48.64 33.036 50.1547 33.3453 51.392 33.964C52.6293 34.5827 53.5573 35.436 54.176 36.524C54.7947 37.612 55.104 38.86 55.104 40.268ZM46.432 43.084C47.4773 43.084 48.256 42.8387 48.768 42.348C49.28 41.8573 49.536 41.164 49.536 40.268C49.536 39.372 49.28 38.6787 48.768 38.188C48.256 37.6973 47.4773 37.452 46.432 37.452H43.456V43.084H46.432ZM67.3608 55.756C65.6114 55.756 64.0328 55.3827 62.6248 54.636C61.2381 53.8893 60.1394 52.8227 59.3288 51.436C58.5394 50.0493 58.1448 48.428 58.1448 46.572C58.1448 44.7373 58.5501 43.1267 59.3608 41.74C60.1714 40.332 61.2808 39.2547 62.6888 38.508C64.0968 37.7613 65.6754 37.388 67.4248 37.388C69.1741 37.388 70.7528 37.7613 72.1608 38.508C73.5688 39.2547 74.6781 40.332 75.4888 41.74C76.2994 43.1267 76.7048 44.7373 76.7048 46.572C76.7048 48.4067 76.2888 50.028 75.4568 51.436C74.6461 52.8227 73.5261 53.8893 72.0968 54.636C70.6888 55.3827 69.1101 55.756 67.3608 55.756ZM67.3608 51.02C68.4061 51.02 69.2914 50.636 70.0168 49.868C70.7634 49.1 71.1368 48.0013 71.1368 46.572C71.1368 45.1427 70.7741 44.044 70.0488 43.276C69.3448 42.508 68.4701 42.124 67.4248 42.124C66.3581 42.124 65.4728 42.508 64.7688 43.276C64.0648 44.0227 63.7128 45.1213 63.7128 46.572C63.7128 48.0013 64.0541 49.1 64.7368 49.868C65.4408 50.636 66.3154 51.02 67.3608 51.02ZM86.3598 40.172C86.8931 39.34 87.6291 38.668 88.5678 38.156C89.5064 37.644 90.6051 37.388 91.8638 37.388C93.3358 37.388 94.6691 37.7613 95.8638 38.508C97.0584 39.2547 97.9971 40.3213 98.6798 41.708C99.3838 43.0947 99.7358 44.7053 99.7358 46.54C99.7358 48.3747 99.3838 49.996 98.6798 51.404C97.9971 52.7907 97.0584 53.868 95.8638 54.636C94.6691 55.3827 93.3358 55.756 91.8638 55.756C90.6264 55.756 89.5278 55.5 88.5678 54.988C87.6291 54.476 86.8931 53.8147 86.3598 53.004V64.012H80.8878V37.644H86.3598V40.172ZM94.1678 46.54C94.1678 45.1747 93.7838 44.108 93.0158 43.34C92.2691 42.5507 91.3411 42.156 90.2318 42.156C89.1438 42.156 88.2158 42.5507 87.4478 43.34C86.7011 44.1293 86.3278 45.2067 86.3278 46.572C86.3278 47.9373 86.7011 49.0147 87.4478 49.804C88.2158 50.5933 89.1438 50.988 90.2318 50.988C91.3198 50.988 92.2478 50.5933 93.0158 49.804C93.7838 48.9933 94.1678 47.9053 94.1678 46.54ZM113.838 50.86V55.5H111.054C109.07 55.5 107.524 55.02 106.414 54.06C105.305 53.0787 104.75 51.4893 104.75 49.292V42.188H102.574V37.644H104.75V33.292H110.222V37.644H113.806V42.188H110.222V49.356C110.222 49.8893 110.35 50.2733 110.606 50.508C110.862 50.7427 111.289 50.86 111.886 50.86H113.838ZM135.799 37.644V55.5H130.327V53.068C129.772 53.8573 129.015 54.4973 128.055 54.988C127.116 55.4573 126.071 55.692 124.919 55.692C123.553 55.692 122.348 55.3933 121.303 54.796C120.257 54.1773 119.447 53.292 118.871 52.14C118.295 50.988 118.007 49.6333 118.007 48.076V37.644H123.447V47.34C123.447 48.5347 123.756 49.4627 124.375 50.124C124.993 50.7853 125.825 51.116 126.871 51.116C127.937 51.116 128.78 50.7853 129.399 50.124C130.017 49.4627 130.327 48.5347 130.327 47.34V37.644H135.799ZM150.961 50.86V55.5H148.177C146.193 55.5 144.646 55.02 143.537 54.06C142.428 53.0787 141.873 51.4893 141.873 49.292V42.188H139.697V37.644H141.873V33.292H147.345V37.644H150.929V42.188H147.345V49.356C147.345 49.8893 147.473 50.2733 147.729 50.508C147.985 50.7427 148.412 50.86 149.009 50.86H150.961ZM163.417 55.756C161.668 55.756 160.089 55.3827 158.681 54.636C157.294 53.8893 156.196 52.8227 155.385 51.436C154.596 50.0493 154.201 48.428 154.201 46.572C154.201 44.7373 154.606 43.1267 155.417 41.74C156.228 40.332 157.337 39.2547 158.745 38.508C160.153 37.7613 161.732 37.388 163.481 37.388C165.23 37.388 166.809 37.7613 168.217 38.508C169.625 39.2547 170.734 40.332 171.545 41.74C172.356 43.1267 172.761 44.7373 172.761 46.572C172.761 48.4067 172.345 50.028 171.513 51.436C170.702 52.8227 169.582 53.8893 168.153 54.636C166.745 55.3827 165.166 55.756 163.417 55.756ZM163.417 51.02C164.462 51.02 165.348 50.636 166.073 49.868C166.82 49.1 167.193 48.0013 167.193 46.572C167.193 45.1427 166.83 44.044 166.105 43.276C165.401 42.508 164.526 42.124 163.481 42.124C162.414 42.124 161.529 42.508 160.825 43.276C160.121 44.0227 159.769 45.1213 159.769 46.572C159.769 48.0013 160.11 49.1 160.793 49.868C161.497 50.636 162.372 51.02 163.417 51.02ZM182.416 40.62C183.056 39.6387 183.856 38.8707 184.816 38.316C185.776 37.74 186.843 37.452 188.016 37.452V43.244H186.512C185.147 43.244 184.123 43.5427 183.44 44.14C182.757 44.716 182.416 45.74 182.416 47.212V55.5H176.944V37.644H182.416V40.62ZM199.176 55.756C197.618 55.756 196.232 55.4893 195.016 54.956C193.8 54.4227 192.84 53.6973 192.136 52.78C191.432 51.8413 191.037 50.796 190.952 49.644H196.36C196.424 50.2627 196.712 50.764 197.224 51.148C197.736 51.532 198.365 51.724 199.112 51.724C199.794 51.724 200.317 51.596 200.68 51.34C201.064 51.0627 201.256 50.7107 201.256 50.284C201.256 49.772 200.989 49.3987 200.456 49.164C199.922 48.908 199.058 48.6307 197.864 48.332C196.584 48.0333 195.517 47.724 194.664 47.404C193.81 47.0627 193.074 46.54 192.456 45.836C191.837 45.1107 191.528 44.14 191.528 42.924C191.528 41.9 191.805 40.972 192.36 40.14C192.936 39.2867 193.768 38.6147 194.856 38.124C195.965 37.6333 197.277 37.388 198.792 37.388C201.032 37.388 202.792 37.9427 204.072 39.052C205.373 40.1613 206.12 41.6333 206.312 43.468H201.256C201.17 42.8493 200.893 42.3587 200.424 41.996C199.976 41.6333 199.378 41.452 198.632 41.452C197.992 41.452 197.501 41.58 197.16 41.836C196.818 42.0707 196.648 42.4013 196.648 42.828C196.648 43.34 196.914 43.724 197.448 43.98C198.002 44.236 198.856 44.492 200.008 44.748C201.33 45.0893 202.408 45.4307 203.24 45.772C204.072 46.092 204.797 46.6253 205.416 47.372C206.056 48.0973 206.386 49.0787 206.408 50.316C206.408 51.3613 206.109 52.3 205.512 53.132C204.936 53.9427 204.093 54.5827 202.984 55.052C201.896 55.5213 200.626 55.756 199.176 55.756Z" fill="#113C49"/>
</svg>
