<svg width="17" height="11" viewBox="0 0 17 11" fill="none" xmlns="http://www.w3.org/2000/svg">
<path d="M8.5 2.84372C7.97464 2.84372 7.46108 2.99951 7.02427 3.29138C6.58745 3.58325 6.24699 3.9981 6.04594 4.48347C5.8449 4.96883 5.7923 5.50292 5.89479 6.01818C5.99728 6.53344 6.25026 7.00674 6.62175 7.37822C6.99323 7.74971 7.46653 8.00269 7.98179 8.10518C8.49705 8.20767 9.03114 8.15507 9.5165 7.95402C10.0019 7.75298 10.4167 7.41252 10.7086 6.9757C11.0005 6.53888 11.1562 6.02533 11.1562 5.49997C11.1562 4.79549 10.8764 4.11986 10.3783 3.62172C9.88011 3.12357 9.20448 2.84372 8.5 2.84372ZM8.5 7.09372C8.18479 7.09372 7.87665 7.00025 7.61456 6.82512C7.35247 6.65 7.14819 6.40109 7.02757 6.10987C6.90694 5.81865 6.87538 5.4982 6.93687 5.18904C6.99837 4.87989 7.15016 4.59591 7.37305 4.37302C7.59594 4.15013 7.87992 3.99834 8.18907 3.93684C8.49823 3.87535 8.81868 3.90691 9.1099 4.02754C9.40112 4.14816 9.65003 4.35244 9.82516 4.61453C10.0003 4.87662 10.0938 5.18476 10.0938 5.49997C10.0938 5.92266 9.92584 6.32803 9.62695 6.62692C9.32807 6.92581 8.92269 7.09372 8.5 7.09372ZM15.9375 0.718719H1.0625C0.921604 0.718719 0.786478 0.77469 0.68685 0.874319C0.587221 0.973948 0.53125 1.10907 0.53125 1.24997V9.74997C0.53125 9.89087 0.587221 10.026 0.68685 10.1256C0.786478 10.2252 0.921604 10.2812 1.0625 10.2812H15.9375C16.0784 10.2812 16.2135 10.2252 16.3132 10.1256C16.4128 10.026 16.4688 9.89087 16.4688 9.74997V1.24997C16.4688 1.10907 16.4128 0.973948 16.3132 0.874319C16.2135 0.77469 16.0784 0.718719 15.9375 0.718719ZM12.8596 9.21872H4.14043C3.96207 8.61549 3.63561 8.06646 3.19081 7.62166C2.746 7.17686 2.19698 6.8504 1.59375 6.67204V4.3279C2.19698 4.14954 2.746 3.82308 3.19081 3.37828C3.63561 2.93347 3.96207 2.38445 4.14043 1.78122H12.8596C13.0379 2.38445 13.3644 2.93347 13.8092 3.37828C14.254 3.82308 14.803 4.14954 15.4062 4.3279V6.67204C14.803 6.8504 14.254 7.17686 13.8092 7.62166C13.3644 8.06646 13.0379 8.61549 12.8596 9.21872ZM15.4062 3.20032C14.769 2.92632 14.2611 2.41843 13.9871 1.78122H15.4062V3.20032ZM3.01285 1.78122C2.73885 2.41843 2.23096 2.92632 1.59375 3.20032V1.78122H3.01285ZM1.59375 7.79962C2.23096 8.07362 2.73885 8.58151 3.01285 9.21872H1.59375V7.79962ZM13.9871 9.21872C14.2611 8.58151 14.769 8.07362 15.4062 7.79962V9.21872H13.9871Z" fill="#019ACB"/>
</svg>
